<?xml version="1.0" encoding="UTF-8" standalone="no"?>
<!DOCTYPE svg PUBLIC "-//W3C//DTD SVG 1.1//EN"
 "http://www.w3.org/Graphics/SVG/1.1/DTD/svg11.dtd">
<!-- Generated by graphviz version 2.43.0 (0)
 -->
<!-- Title: EMDP Pages: 1 -->
<svg width="411pt" height="176pt"
 viewBox="0.00 0.00 410.60 176.00" xmlns="http://www.w3.org/2000/svg" xmlns:xlink="http://www.w3.org/1999/xlink">
<g id="graph0" class="graph" transform="scale(1 1) rotate(0) translate(4 172)">
<title>EMDP</title>
<polygon fill="white" stroke="transparent" points="-4,4 -4,-172 406.6,-172 406.6,4 -4,4"/>
<!-- 0 -->
<g id="node1" class="node">
<title>0</title>
<polygon fill="none" stroke="red" points="67.6,-98 40.6,-80 67.6,-62 94.6,-80 67.6,-98"/>
<text text-anchor="middle" x="67.6" y="-76.3" font-family="Helvetica,sans-Serif" font-size="14.00">0</text>
</g>
<!-- 1 -->
<g id="node3" class="node">
<title>1</title>
<ellipse fill="none" stroke="black" cx="262.6" cy="-141" rx="18" ry="18"/>
<text text-anchor="middle" x="262.6" y="-137.3" font-family="Helvetica,sans-Serif" font-size="14.00">1</text>
</g>
<!-- 0&#45;&gt;1 -->
<g id="edge2" class="edge">
<title>0&#45;&gt;1</title>
<path fill="none" stroke="red" d="M84.46,-86.92C92.82,-90.54 103.25,-95.04 112.6,-99 148.93,-114.38 156.43,-123.01 194.6,-133 207.49,-136.37 222.14,-138.33 234.45,-139.46"/>
<polygon fill="red" stroke="red" points="234.32,-142.96 244.56,-140.26 234.87,-135.98 234.32,-142.96"/>
<text text-anchor="middle" x="158.6" y="-130.8" font-family="Helvetica,sans-Serif" font-size="14.00" fill="red">1</text>
</g>
<!-- 2 -->
<g id="node4" class="node">
<title>2</title>
<ellipse fill="none" stroke="black" cx="158.6" cy="-80" rx="18" ry="18"/>
<text text-anchor="middle" x="158.6" y="-76.3" font-family="Helvetica,sans-Serif" font-size="14.00">2</text>
</g>
<!-- 0&#45;&gt;2 -->
<g id="edge3" class="edge">
<title>0&#45;&gt;2</title>
<path fill="none" stroke="red" d="M94.82,-80C106.01,-80 119.07,-80 130.37,-80"/>
<polygon fill="red" stroke="red" points="130.55,-83.5 140.55,-80 130.55,-76.5 130.55,-83.5"/>
<text text-anchor="middle" x="117.6" y="-83.8" font-family="Helvetica,sans-Serif" font-size="14.00" fill="red">2</text>
</g>
<!-- 3 -->
<g id="node5" class="node">
<title>3</title>
<ellipse fill="none" stroke="black" cx="262.6" cy="-18" rx="18" ry="18"/>
<text text-anchor="middle" x="262.6" y="-14.3" font-family="Helvetica,sans-Serif" font-size="14.00">3</text>
</g>
<!-- 0&#45;&gt;3 -->
<g id="edge4" class="edge">
<title>0&#45;&gt;3</title>
<path fill="none" stroke="red" d="M81.16,-70.74C95,-61.02 118.27,-46.05 140.6,-38 171.48,-26.87 209.06,-21.89 234.06,-19.69"/>
<polygon fill="red" stroke="red" points="234.58,-23.16 244.27,-18.89 234.03,-16.18 234.58,-23.16"/>
<text text-anchor="middle" x="158.6" y="-41.8" font-family="Helvetica,sans-Serif" font-size="14.00" fill="red">3</text>
</g>
<!-- 0i -->
<g id="node2" class="node">
<title>0i</title>
<ellipse fill="red" stroke="red" cx="1.8" cy="-80" rx="1.8" ry="1.8"/>
</g>
<!-- 0i&#45;&gt;0 -->
<g id="edge1" class="edge">
<title>0i&#45;&gt;0</title>
<path fill="none" stroke="red" d="M3.91,-80C7.37,-80 18.49,-80 30.42,-80"/>
<polygon fill="red" stroke="red" points="30.48,-83.5 40.48,-80 30.48,-76.5 30.48,-83.5"/>
</g>
<!-- 1&#45;&gt;0 -->
<g id="edge5" class="edge">
<title>1&#45;&gt;0</title>
<path fill="none" stroke="black" d="M245.16,-145.95C221.13,-152.25 175.48,-160.69 140.6,-146 117.39,-136.22 96.88,-115.58 83.75,-99.97"/>
<polygon fill="black" stroke="black" points="86.25,-97.49 77.24,-91.91 80.8,-101.89 86.25,-97.49"/>
<text text-anchor="middle" x="158.6" y="-156.8" font-family="Helvetica,sans-Serif" font-size="14.00">0.8</text>
</g>
<!-- 4 -->
<g id="node6" class="node">
<title>4</title>
<polygon fill="none" stroke="red" points="375.6,-90 348.6,-72 375.6,-54 402.6,-72 375.6,-90"/>
<text text-anchor="middle" x="375.6" y="-68.3" font-family="Helvetica,sans-Serif" font-size="14.00">4</text>
</g>
<!-- 1&#45;&gt;4 -->
<g id="edge6" class="edge">
<title>1&#45;&gt;4</title>
<path fill="none" stroke="black" d="M278.57,-131.69C297.52,-119.91 330.34,-99.52 352.26,-85.89"/>
<polygon fill="black" stroke="black" points="354.27,-88.76 360.91,-80.51 350.57,-82.82 354.27,-88.76"/>
<text text-anchor="middle" x="319.1" y="-115.8" font-family="Helvetica,sans-Serif" font-size="14.00">0.2</text>
</g>
<!-- 2&#45;&gt;1 -->
<g id="edge7" class="edge">
<title>2&#45;&gt;1</title>
<path fill="none" stroke="black" d="M174.65,-89C191.39,-99.01 218.66,-115.32 238.19,-127"/>
<polygon fill="black" stroke="black" points="236.44,-130.03 246.82,-132.16 240.03,-124.02 236.44,-130.03"/>
<text text-anchor="middle" x="206.1" y="-117.8" font-family="Helvetica,sans-Serif" font-size="14.00">0.2</text>
</g>
<!-- 2&#45;&gt;3 -->
<g id="edge8" class="edge">
<title>2&#45;&gt;3</title>
<path fill="none" stroke="black" d="M174.65,-70.85C191.39,-60.67 218.66,-44.1 238.19,-32.23"/>
<polygon fill="black" stroke="black" points="240.09,-35.17 246.82,-26.98 236.46,-29.19 240.09,-35.17"/>
<text text-anchor="middle" x="206.1" y="-62.8" font-family="Helvetica,sans-Serif" font-size="14.00">0.2</text>
</g>
<!-- 5 -->
<g id="node7" class="node">
<title>5</title>
<polygon fill="none" stroke="red" points="262.6,-98 235.6,-80 262.6,-62 289.6,-80 262.6,-98"/>
<text text-anchor="middle" x="262.6" y="-76.3" font-family="Helvetica,sans-Serif" font-size="14.00">5</text>
</g>
<!-- 2&#45;&gt;5 -->
<g id="edge9" class="edge">
<title>2&#45;&gt;5</title>
<path fill="none" stroke="black" d="M176.9,-80C190.05,-80 208.61,-80 225,-80"/>
<polygon fill="black" stroke="black" points="225.38,-83.5 235.38,-80 225.38,-76.5 225.38,-83.5"/>
<text text-anchor="middle" x="206.1" y="-83.8" font-family="Helvetica,sans-Serif" font-size="14.00">0.6</text>
</g>
<!-- 3&#45;&gt;0 -->
<g id="edge10" class="edge">
<title>3&#45;&gt;0</title>
<path fill="none" stroke="black" d="M245.22,-12.53C221.27,-5.49 175.71,4.25 140.6,-10 116.12,-19.94 95.38,-42.65 82.54,-59.52"/>
<polygon fill="black" stroke="black" points="79.63,-57.57 76.57,-67.72 85.29,-61.7 79.63,-57.57"/>
<text text-anchor="middle" x="158.6" y="-13.8" font-family="Helvetica,sans-Serif" font-size="14.00">0.3</text>
</g>
<!-- 3&#45;&gt;4 -->
<g id="edge11" class="edge">
<title>3&#45;&gt;4</title>
<path fill="none" stroke="black" d="M279.03,-25.51C297.42,-34.46 328.38,-49.52 350.07,-60.06"/>
<polygon fill="black" stroke="black" points="348.77,-63.33 359.3,-64.56 351.84,-57.03 348.77,-63.33"/>
<text text-anchor="middle" x="319.1" y="-53.8" font-family="Helvetica,sans-Serif" font-size="14.00">0.7</text>
</g>
</g>
</svg>
