<?xml version="1.0" encoding="UTF-8" standalone="no"?>
<!DOCTYPE svg PUBLIC "-//W3C//DTD SVG 1.1//EN"
 "http://www.w3.org/Graphics/SVG/1.1/DTD/svg11.dtd">
<!-- Generated by graphviz version 2.43.0 (0)
 -->
<!-- Title: EMDP Pages: 1 -->
<svg width="746pt" height="185pt"
 viewBox="0.00 0.00 745.60 185.00" xmlns="http://www.w3.org/2000/svg" xmlns:xlink="http://www.w3.org/1999/xlink">
<g id="graph0" class="graph" transform="scale(1 1) rotate(0) translate(4 181)">
<title>EMDP</title>
<polygon fill="white" stroke="transparent" points="-4,4 -4,-181 741.6,-181 741.6,4 -4,4"/>
<!-- 0 -->
<g id="node1" class="node">
<title>0</title>
<polygon fill="none" stroke="red" points="67.6,-112 40.6,-94 67.6,-76 94.6,-94 67.6,-112"/>
<text text-anchor="middle" x="67.6" y="-90.3" font-family="Helvetica,sans-Serif" font-size="14.00">0</text>
</g>
<!-- 1 -->
<g id="node3" class="node">
<title>1</title>
<polygon fill="none" stroke="red" points="189.6,-36 162.6,-18 189.6,0 216.6,-18 189.6,-36"/>
<text text-anchor="middle" x="189.6" y="-14.3" font-family="Helvetica,sans-Serif" font-size="14.00">1</text>
</g>
<!-- 0&#45;&gt;1 -->
<g id="edge2" class="edge">
<title>0&#45;&gt;1</title>
<path fill="none" stroke="red" d="M82.37,-85.28C102.89,-72.28 141.73,-47.68 166.33,-32.1"/>
<polygon fill="red" stroke="red" points="168.42,-34.92 175,-26.62 164.67,-29.01 168.42,-34.92"/>
<text text-anchor="middle" x="128.6" y="-69.8" font-family="Helvetica,sans-Serif" font-size="14.00" fill="red">1</text>
</g>
<!-- 2 -->
<g id="node4" class="node">
<title>2</title>
<ellipse fill="none" stroke="black" cx="189.6" cy="-116" rx="18" ry="18"/>
<text text-anchor="middle" x="189.6" y="-112.3" font-family="Helvetica,sans-Serif" font-size="14.00">2</text>
</g>
<!-- 0&#45;&gt;2 -->
<g id="edge3" class="edge">
<title>0&#45;&gt;2</title>
<path fill="none" stroke="red" d="M84.59,-101C92.8,-104.29 103.07,-107.93 112.6,-110 128.47,-113.45 146.59,-114.97 161.16,-115.62"/>
<polygon fill="red" stroke="red" points="161.39,-119.13 171.51,-115.96 161.63,-112.13 161.39,-119.13"/>
<text text-anchor="middle" x="128.6" y="-117.8" font-family="Helvetica,sans-Serif" font-size="14.00" fill="red">2</text>
</g>
<!-- 0i -->
<g id="node2" class="node">
<title>0i</title>
<ellipse fill="red" stroke="red" cx="1.8" cy="-94" rx="1.8" ry="1.8"/>
</g>
<!-- 0i&#45;&gt;0 -->
<g id="edge1" class="edge">
<title>0i&#45;&gt;0</title>
<path fill="none" stroke="red" d="M3.91,-94C7.37,-94 18.49,-94 30.42,-94"/>
<polygon fill="red" stroke="red" points="30.48,-97.5 40.48,-94 30.48,-90.5 30.48,-97.5"/>
</g>
<!-- 1&#45;&gt;0 -->
<g id="edge4" class="edge">
<title>1&#45;&gt;0</title>
<path fill="none" stroke="red" d="M164.98,-16.23C149.06,-16.15 128.19,-18.29 112.6,-28 96.74,-37.88 85.33,-55.82 78.11,-70.51"/>
<polygon fill="red" stroke="red" points="74.74,-69.47 73.78,-80.02 81.11,-72.37 74.74,-69.47"/>
<text text-anchor="middle" x="128.6" y="-31.8" font-family="Helvetica,sans-Serif" font-size="14.00" fill="red">1</text>
</g>
<!-- 3 -->
<g id="node5" class="node">
<title>3</title>
<ellipse fill="none" stroke="black" cx="293.6" cy="-56" rx="18" ry="18"/>
<text text-anchor="middle" x="293.6" y="-52.3" font-family="Helvetica,sans-Serif" font-size="14.00">3</text>
</g>
<!-- 1&#45;&gt;3 -->
<g id="edge5" class="edge">
<title>1&#45;&gt;3</title>
<path fill="none" stroke="red" d="M207.44,-24.27C223.65,-30.31 248.39,-39.53 267.03,-46.47"/>
<polygon fill="red" stroke="red" points="265.81,-49.76 276.41,-49.97 268.26,-43.2 265.81,-49.76"/>
<text text-anchor="middle" x="246.1" y="-46.8" font-family="Helvetica,sans-Serif" font-size="14.00" fill="red">3</text>
</g>
<!-- 2&#45;&gt;0 -->
<g id="edge6" class="edge">
<title>2&#45;&gt;0</title>
<path fill="none" stroke="black" d="M174.75,-105.65C166.47,-100.12 155.47,-93.87 144.6,-91 129.95,-87.13 113.16,-87.33 99.1,-88.73"/>
<polygon fill="black" stroke="black" points="98.45,-85.29 88.96,-89.99 99.31,-92.23 98.45,-85.29"/>
<text text-anchor="middle" x="128.6" y="-94.8" font-family="Helvetica,sans-Serif" font-size="14.00">0.75</text>
</g>
<!-- 4 -->
<g id="node6" class="node">
<title>4</title>
<polygon fill="none" stroke="red" points="506.6,-112 479.6,-94 506.6,-76 533.6,-94 506.6,-112"/>
<text text-anchor="middle" x="506.6" y="-90.3" font-family="Helvetica,sans-Serif" font-size="14.00">4</text>
</g>
<!-- 2&#45;&gt;4 -->
<g id="edge7" class="edge">
<title>2&#45;&gt;4</title>
<path fill="none" stroke="black" d="M207.98,-114.79C258.42,-111.26 405.45,-100.99 472.08,-96.34"/>
<polygon fill="black" stroke="black" points="472.32,-99.83 482.06,-95.64 471.84,-92.85 472.32,-99.83"/>
<text text-anchor="middle" x="345.6" y="-109.8" font-family="Helvetica,sans-Serif" font-size="14.00">0.25</text>
</g>
<!-- 3&#45;&gt;1 -->
<g id="edge8" class="edge">
<title>3&#45;&gt;1</title>
<path fill="none" stroke="black" d="M283.73,-40.48C277.65,-31.51 268.69,-21.03 257.6,-16 245.88,-10.68 231.78,-10.33 219.55,-11.65"/>
<polygon fill="black" stroke="black" points="218.76,-8.23 209.38,-13.16 219.79,-15.15 218.76,-8.23"/>
<text text-anchor="middle" x="246.1" y="-19.8" font-family="Helvetica,sans-Serif" font-size="14.00">0.6</text>
</g>
<!-- 5 -->
<g id="node7" class="node">
<title>5</title>
<polygon fill="none" stroke="red" points="406.6,-74 379.6,-56 406.6,-38 433.6,-56 406.6,-74"/>
<text text-anchor="middle" x="406.6" y="-52.3" font-family="Helvetica,sans-Serif" font-size="14.00">5</text>
</g>
<!-- 3&#45;&gt;5 -->
<g id="edge9" class="edge">
<title>3&#45;&gt;5</title>
<path fill="none" stroke="black" d="M311.94,-56C327.17,-56 349.83,-56 369.04,-56"/>
<polygon fill="black" stroke="black" points="369.29,-59.5 379.29,-56 369.29,-52.5 369.29,-59.5"/>
<text text-anchor="middle" x="345.6" y="-59.8" font-family="Helvetica,sans-Serif" font-size="14.00">0.4</text>
</g>
<!-- 4&#45;&gt;5 -->
<g id="edge10" class="edge">
<title>4&#45;&gt;5</title>
<path fill="none" stroke="red" d="M488.89,-87.52C473.8,-81.67 451.34,-72.96 433.85,-66.18"/>
<polygon fill="red" stroke="red" points="434.81,-62.8 424.22,-62.45 432.28,-69.32 434.81,-62.8"/>
<text text-anchor="middle" x="456.6" y="-80.8" font-family="Helvetica,sans-Serif" font-size="14.00" fill="red">1</text>
</g>
<!-- 6 -->
<g id="node8" class="node">
<title>6</title>
<ellipse fill="none" stroke="black" cx="597.6" cy="-94" rx="18" ry="18"/>
<text text-anchor="middle" x="597.6" y="-90.3" font-family="Helvetica,sans-Serif" font-size="14.00">6</text>
</g>
<!-- 4&#45;&gt;6 -->
<g id="edge11" class="edge">
<title>4&#45;&gt;6</title>
<path fill="none" stroke="red" d="M533.82,-94C545.01,-94 558.07,-94 569.37,-94"/>
<polygon fill="red" stroke="red" points="569.55,-97.5 579.55,-94 569.55,-90.5 569.55,-97.5"/>
<text text-anchor="middle" x="556.6" y="-97.8" font-family="Helvetica,sans-Serif" font-size="14.00" fill="red">2</text>
</g>
<!-- 5&#45;&gt;4 -->
<g id="edge12" class="edge">
<title>5&#45;&gt;4</title>
<path fill="none" stroke="red" d="M427.96,-52.1C438.35,-50.98 450.99,-50.98 461.6,-55 472.34,-59.07 482.13,-67.1 489.74,-74.82"/>
<polygon fill="red" stroke="red" points="487.24,-77.26 496.58,-82.27 492.4,-72.53 487.24,-77.26"/>
<text text-anchor="middle" x="456.6" y="-58.8" font-family="Helvetica,sans-Serif" font-size="14.00" fill="red">1</text>
</g>
<!-- 7 -->
<g id="node9" class="node">
<title>7</title>
<ellipse fill="none" stroke="black" cx="506.6" cy="-18" rx="18" ry="18"/>
<text text-anchor="middle" x="506.6" y="-14.3" font-family="Helvetica,sans-Serif" font-size="14.00">7</text>
</g>
<!-- 5&#45;&gt;7 -->
<g id="edge13" class="edge">
<title>5&#45;&gt;7</title>
<path fill="none" stroke="red" d="M421.97,-48.01C430.43,-43.51 441.43,-38.01 451.6,-34 460.36,-30.54 470.17,-27.42 479,-24.87"/>
<polygon fill="red" stroke="red" points="480.1,-28.2 488.8,-22.16 478.23,-21.46 480.1,-28.2"/>
<text text-anchor="middle" x="456.6" y="-37.8" font-family="Helvetica,sans-Serif" font-size="14.00" fill="red">3</text>
</g>
<!-- 6&#45;&gt;0 -->
<g id="edge14" class="edge">
<title>6&#45;&gt;0</title>
<path fill="none" stroke="black" d="M586.74,-108.75C572.05,-128.75 542.41,-162 507.6,-162 188.6,-162 188.6,-162 188.6,-162 147.83,-162 108.22,-131.93 86.25,-111.78"/>
<polygon fill="black" stroke="black" points="88.39,-108.98 78.73,-104.62 83.56,-114.05 88.39,-108.98"/>
<text text-anchor="middle" x="345.6" y="-165.8" font-family="Helvetica,sans-Serif" font-size="14.00">0.75</text>
</g>
<!-- 8 -->
<g id="node10" class="node">
<title>8</title>
<polygon fill="none" stroke="red" points="710.6,-65 683.6,-47 710.6,-29 737.6,-47 710.6,-65"/>
<text text-anchor="middle" x="710.6" y="-43.3" font-family="Helvetica,sans-Serif" font-size="14.00">8</text>
</g>
<!-- 6&#45;&gt;8 -->
<g id="edge15" class="edge">
<title>6&#45;&gt;8</title>
<path fill="none" stroke="black" d="M614.5,-87.27C632.62,-79.6 662.47,-66.96 683.9,-57.88"/>
<polygon fill="black" stroke="black" points="685.52,-61 693.36,-53.87 682.79,-54.55 685.52,-61"/>
<text text-anchor="middle" x="649.6" y="-82.8" font-family="Helvetica,sans-Serif" font-size="14.00">0.25</text>
</g>
<!-- 7&#45;&gt;1 -->
<g id="edge16" class="edge">
<title>7&#45;&gt;1</title>
<path fill="none" stroke="black" d="M488.47,-17.07C448.21,-14.94 344.41,-9.75 257.6,-8 247.38,-7.79 244.76,-6.86 234.6,-8 229.61,-8.56 224.36,-9.47 219.29,-10.51"/>
<polygon fill="black" stroke="black" points="218.26,-7.16 209.28,-12.78 219.81,-13.98 218.26,-7.16"/>
<text text-anchor="middle" x="345.6" y="-15.8" font-family="Helvetica,sans-Serif" font-size="14.00">0.6</text>
</g>
<!-- 7&#45;&gt;8 -->
<g id="edge17" class="edge">
<title>7&#45;&gt;8</title>
<path fill="none" stroke="black" d="M524.47,-20.42C558.29,-25.28 634.8,-36.26 678.13,-42.48"/>
<polygon fill="black" stroke="black" points="677.74,-45.96 688.13,-43.92 678.73,-39.03 677.74,-45.96"/>
<text text-anchor="middle" x="597.6" y="-37.8" font-family="Helvetica,sans-Serif" font-size="14.00">0.4</text>
</g>
</g>
</svg>
