<?xml version="1.0" encoding="UTF-8" standalone="no"?>
<!DOCTYPE svg PUBLIC "-//W3C//DTD SVG 1.1//EN"
 "http://www.w3.org/Graphics/SVG/1.1/DTD/svg11.dtd">
<!-- Generated by graphviz version 2.43.0 (0)
 -->
<!-- Title: EMDP Pages: 1 -->
<svg width="1746pt" height="1156pt"
 viewBox="0.00 0.00 1746.00 1156.30" xmlns="http://www.w3.org/2000/svg" xmlns:xlink="http://www.w3.org/1999/xlink">
<g id="graph0" class="graph" transform="scale(1 1) rotate(0) translate(4 1152.3)">
<title>EMDP</title>
<polygon fill="white" stroke="transparent" points="-4,4 -4,-1152.3 1742,-1152.3 1742,4 -4,4"/>
<!-- 0 -->
<g id="node1" class="node">
<title>0</title>
<polygon fill="none" stroke="red" points="532,-1107.7 496,-1069.7 532,-1031.7 568,-1069.7 532,-1107.7"/>
<text text-anchor="middle" x="532" y="-1073.5" font-family="Helvetica,sans-Serif" font-size="14.00">0</text>
<text text-anchor="middle" x="532" y="-1058.5" font-family="Helvetica,sans-Serif" font-size="14.00">(0)</text>
</g>
<!-- 0&#45;&gt;0 -->
<g id="edge2" class="edge">
<title>0&#45;&gt;0</title>
<path fill="none" stroke="red" d="M558.67,-1079.77C572.97,-1081.48 586,-1078.12 586,-1069.7 586,-1063.32 578.52,-1059.85 568.67,-1059.28"/>
<polygon fill="red" stroke="red" points="568.54,-1055.78 558.67,-1059.63 568.79,-1062.78 568.54,-1055.78"/>
<text text-anchor="middle" x="591" y="-1066" font-family="Helvetica,sans-Serif" font-size="14.00" fill="red">5</text>
</g>
<!-- 1 -->
<g id="node3" class="node">
<title>1</title>
<ellipse fill="none" stroke="black" cx="862" cy="-953.83" rx="26.74" ry="26.74"/>
<text text-anchor="middle" x="862" y="-957.63" font-family="Helvetica,sans-Serif" font-size="14.00">1</text>
<text text-anchor="middle" x="862" y="-942.63" font-family="Helvetica,sans-Serif" font-size="14.00">(1)</text>
</g>
<!-- 0&#45;&gt;1 -->
<g id="edge3" class="edge">
<title>0&#45;&gt;1</title>
<path fill="none" stroke="red" d="M558.45,-1059.57C617.66,-1039.14 760.87,-989.73 827.2,-966.84"/>
<polygon fill="red" stroke="red" points="828.48,-970.1 836.79,-963.53 826.2,-963.48 828.48,-970.1"/>
<text text-anchor="middle" x="736.5" y="-1002.5" font-family="Helvetica,sans-Serif" font-size="14.00" fill="red">10</text>
</g>
<!-- 2 -->
<g id="node4" class="node">
<title>2</title>
<polygon fill="none" stroke="red" points="637,-76 601,-38 637,0 673,-38 637,-76"/>
<text text-anchor="middle" x="637" y="-41.8" font-family="Helvetica,sans-Serif" font-size="14.00">2</text>
<text text-anchor="middle" x="637" y="-26.8" font-family="Helvetica,sans-Serif" font-size="14.00">(2)</text>
</g>
<!-- 0&#45;&gt;2 -->
<g id="edge4" class="edge">
<title>0&#45;&gt;2</title>
<path fill="none" stroke="red" d="M498.15,-1067.03C390.65,-1061.46 61.86,-1042.23 24,-1013.7 1.43,-996.7 0,-983.09 0,-954.83 0,-954.83 0,-954.83 0,-152.87 0,-124.61 1.28,-110.8 24,-94 69.49,-60.37 459.18,-44.74 592.49,-40.35"/>
<polygon fill="red" stroke="red" points="592.87,-43.84 602.75,-40.01 592.64,-36.84 592.87,-43.84"/>
<text text-anchor="middle" x="5" y="-561.28" font-family="Helvetica,sans-Serif" font-size="14.00" fill="red">7</text>
</g>
<!-- 3 -->
<g id="node5" class="node">
<title>3</title>
<ellipse fill="none" stroke="black" cx="1262" cy="-153.87" rx="26.74" ry="26.74"/>
<text text-anchor="middle" x="1262" y="-157.67" font-family="Helvetica,sans-Serif" font-size="14.00">3</text>
<text text-anchor="middle" x="1262" y="-142.67" font-family="Helvetica,sans-Serif" font-size="14.00">(3)</text>
</g>
<!-- 0&#45;&gt;3 -->
<g id="edge5" class="edge">
<title>0&#45;&gt;3</title>
<path fill="none" stroke="red" d="M567.16,-1068.75C752.43,-1068.57 1607,-1061.92 1607,-954.83 1607,-954.83 1607,-954.83 1607,-668.72 1607,-568.8 1547.1,-320.4 1501,-231.74 1491.99,-214.42 1488.87,-208.58 1472,-198.74 1417.6,-167.02 1343.47,-158.06 1299.39,-155.64"/>
<polygon fill="red" stroke="red" points="1299.28,-152.13 1289.13,-155.16 1298.95,-159.12 1299.28,-152.13"/>
<text text-anchor="middle" x="1610" y="-613.65" font-family="Helvetica,sans-Serif" font-size="14.00" fill="red">2</text>
</g>
<!-- 4 -->
<g id="node6" class="node">
<title>4</title>
<polygon fill="none" stroke="red" points="772,-307.74 736,-269.74 772,-231.74 808,-269.74 772,-307.74"/>
<text text-anchor="middle" x="772" y="-273.54" font-family="Helvetica,sans-Serif" font-size="14.00">4</text>
<text text-anchor="middle" x="772" y="-258.54" font-family="Helvetica,sans-Serif" font-size="14.00">(4)</text>
</g>
<!-- 0&#45;&gt;4 -->
<g id="edge6" class="edge">
<title>0&#45;&gt;4</title>
<path fill="none" stroke="red" d="M497.92,-1067.16C433.66,-1062.24 301,-1041.57 301,-954.83 301,-954.83 301,-954.83 301,-668.72 301,-496.39 474.12,-538.19 592,-412.48 625.32,-376.95 618.23,-352.4 659,-325.74 686.61,-307.69 701.89,-323.25 731,-307.74 736.66,-304.72 742.17,-300.75 747.21,-296.54"/>
<polygon fill="red" stroke="red" points="749.6,-299.09 754.71,-289.81 744.93,-293.88 749.6,-299.09"/>
<text text-anchor="middle" x="306" y="-666.02" font-family="Helvetica,sans-Serif" font-size="14.00" fill="red">6</text>
</g>
<!-- 5 -->
<g id="node7" class="node">
<title>5</title>
<ellipse fill="none" stroke="black" cx="515" cy="-385.61" rx="26.74" ry="26.74"/>
<text text-anchor="middle" x="515" y="-389.41" font-family="Helvetica,sans-Serif" font-size="14.00">5</text>
<text text-anchor="middle" x="515" y="-374.41" font-family="Helvetica,sans-Serif" font-size="14.00">(5)</text>
</g>
<!-- 0&#45;&gt;5 -->
<g id="edge7" class="edge">
<title>0&#45;&gt;5</title>
<path fill="none" stroke="red" d="M498.61,-1066.86C399.04,-1060.45 111,-1035 111,-954.83 111,-954.83 111,-954.83 111,-668.72 111,-615.04 112.17,-467.55 151,-430.48 152.48,-429.07 386.31,-401.63 478.37,-390.88"/>
<polygon fill="red" stroke="red" points="478.83,-394.35 488.36,-389.71 478.02,-387.4 478.83,-394.35"/>
<text text-anchor="middle" x="116" y="-718.39" font-family="Helvetica,sans-Serif" font-size="14.00" fill="red">1</text>
</g>
<!-- 6 -->
<g id="node8" class="node">
<title>6</title>
<polygon fill="none" stroke="red" points="1068,-539.48 1032,-501.48 1068,-463.48 1104,-501.48 1068,-539.48"/>
<text text-anchor="middle" x="1068" y="-505.28" font-family="Helvetica,sans-Serif" font-size="14.00">6</text>
<text text-anchor="middle" x="1068" y="-490.28" font-family="Helvetica,sans-Serif" font-size="14.00">(6)</text>
</g>
<!-- 0&#45;&gt;6 -->
<g id="edge8" class="edge">
<title>0&#45;&gt;6</title>
<path fill="none" stroke="red" d="M567.46,-1068.67C704.4,-1068.18 1198.38,-1062.97 1346,-1013.7 1426.97,-986.68 1466.3,-984 1507,-908.96 1613.94,-711.81 1228.15,-558.05 1104.76,-514.75"/>
<polygon fill="red" stroke="red" points="1105.59,-511.33 1094.99,-511.36 1103.29,-517.94 1105.59,-511.33"/>
<text text-anchor="middle" x="1516" y="-770.76" font-family="Helvetica,sans-Serif" font-size="14.00" fill="red">6</text>
</g>
<!-- 7 -->
<g id="node9" class="node">
<title>7</title>
<ellipse fill="none" stroke="black" cx="1063" cy="-617.35" rx="26.74" ry="26.74"/>
<text text-anchor="middle" x="1063" y="-621.15" font-family="Helvetica,sans-Serif" font-size="14.00">7</text>
<text text-anchor="middle" x="1063" y="-606.15" font-family="Helvetica,sans-Serif" font-size="14.00">(7)</text>
</g>
<!-- 0&#45;&gt;7 -->
<g id="edge9" class="edge">
<title>0&#45;&gt;7</title>
<path fill="none" stroke="red" d="M567.35,-1068.88C714.09,-1069.27 1270.17,-1067.18 1325,-1013.7 1403.52,-937.1 1387.74,-852.45 1319,-766.96 1275.68,-713.08 1263.99,-696.58 1204,-662.22 1170.97,-643.3 1128.82,-631.57 1099.24,-625.05"/>
<polygon fill="red" stroke="red" points="1099.84,-621.6 1089.34,-622.96 1098.4,-628.45 1099.84,-621.6"/>
<text text-anchor="middle" x="1383.5" y="-834.26" font-family="Helvetica,sans-Serif" font-size="14.00" fill="red">10</text>
</g>
<!-- 9 -->
<g id="node10" class="node">
<title>9</title>
<ellipse fill="none" stroke="black" cx="752" cy="-722.09" rx="26.74" ry="26.74"/>
<text text-anchor="middle" x="752" y="-725.89" font-family="Helvetica,sans-Serif" font-size="14.00">9</text>
<text text-anchor="middle" x="752" y="-710.89" font-family="Helvetica,sans-Serif" font-size="14.00">(9)</text>
</g>
<!-- 0&#45;&gt;9 -->
<g id="edge10" class="edge">
<title>0&#45;&gt;9</title>
<path fill="none" stroke="red" d="M508.73,-1055.94C493.53,-1046.35 474.6,-1031.77 464,-1013.7 407.87,-917.99 414.66,-835.39 502,-766.96 534.54,-741.46 653.7,-729.77 715.01,-725.35"/>
<polygon fill="red" stroke="red" points="715.31,-728.84 725.04,-724.65 714.82,-721.85 715.31,-728.84"/>
<text text-anchor="middle" x="434" y="-897.76" font-family="Helvetica,sans-Serif" font-size="14.00" fill="red">3</text>
</g>
<!-- 0i -->
<g id="node2" class="node">
<title>0i</title>
<ellipse fill="red" stroke="red" cx="532" cy="-1146.5" rx="1.8" ry="1.8"/>
</g>
<!-- 0i&#45;&gt;0 -->
<g id="edge1" class="edge">
<title>0i&#45;&gt;0</title>
<path fill="none" stroke="red" d="M532,-1144.66C532,-1141.62 532,-1130.71 532,-1118.17"/>
<polygon fill="red" stroke="red" points="535.5,-1117.88 532,-1107.88 528.5,-1117.88 535.5,-1117.88"/>
</g>
<!-- 1&#45;&gt;0 -->
<g id="edge11" class="edge">
<title>1&#45;&gt;0</title>
<path fill="none" stroke="black" d="M835.33,-958.8C797.7,-964.88 727.23,-978 670,-998.7 631.87,-1012.49 590.73,-1034.35 563.38,-1049.98"/>
<polygon fill="black" stroke="black" points="561.57,-1046.98 554.66,-1055.01 565.07,-1053.04 561.57,-1046.98"/>
<text text-anchor="middle" x="681.5" y="-1002.5" font-family="Helvetica,sans-Serif" font-size="14.00">0.1</text>
</g>
<!-- 1&#45;&gt;1 -->
<g id="edge12" class="edge">
<title>1&#45;&gt;1</title>
<path fill="none" stroke="black" d="M887.37,-963.49C897.92,-964.16 906.87,-960.94 906.87,-953.83 906.87,-949.16 903.02,-946.17 897.39,-944.86"/>
<polygon fill="black" stroke="black" points="897.59,-941.36 887.37,-944.17 897.11,-948.35 897.59,-941.36"/>
<text text-anchor="middle" x="918.37" y="-950.13" font-family="Helvetica,sans-Serif" font-size="14.00">0.1</text>
</g>
<!-- 1&#45;&gt;2 -->
<g id="edge13" class="edge">
<title>1&#45;&gt;2</title>
<path fill="none" stroke="black" d="M834.93,-951.96C751.59,-948.99 499.9,-937.81 424,-908.96 310.65,-865.88 276.9,-845.1 203,-748.96 113.06,-631.96 84,-586.55 84,-438.98 84,-438.98 84,-438.98 84,-152.87 84,-49.56 458.93,-39.18 591.35,-38.73"/>
<polygon fill="black" stroke="black" points="591.57,-42.23 601.57,-38.72 591.56,-35.23 591.57,-42.23"/>
<text text-anchor="middle" x="102.5" y="-497.78" font-family="Helvetica,sans-Serif" font-size="14.00">0.1</text>
</g>
<!-- 1&#45;&gt;3 -->
<g id="edge14" class="edge">
<title>1&#45;&gt;3</title>
<path fill="none" stroke="black" d="M888.86,-952.8C986.56,-952.12 1321.28,-944.72 1397,-875.96 1453.98,-824.22 1469.82,-615.89 1479,-539.48 1483.03,-505.94 1480.89,-497.21 1479,-463.48 1473.21,-360 1491.45,-327.99 1453,-231.74 1429.59,-173.14 1347.63,-158.8 1299.01,-155.55"/>
<polygon fill="black" stroke="black" points="1299.06,-152.05 1288.88,-155 1298.68,-159.04 1299.06,-152.05"/>
<text text-anchor="middle" x="1487.5" y="-561.28" font-family="Helvetica,sans-Serif" font-size="14.00">0.1</text>
</g>
<!-- 1&#45;&gt;4 -->
<g id="edge15" class="edge">
<title>1&#45;&gt;4</title>
<path fill="none" stroke="black" d="M835.47,-948.5C762.82,-935.89 566,-896.43 566,-838.96 566,-838.96 566,-838.96 566,-668.72 566,-618.23 553.39,-593.26 589,-557.48 616.24,-530.11 645.08,-565.07 674,-539.48 737.59,-483.2 706.13,-438.24 736,-358.74 742.59,-341.21 750.41,-321.93 757.07,-305.9"/>
<polygon fill="black" stroke="black" points="760.42,-306.96 761.05,-296.38 753.96,-304.26 760.42,-306.96"/>
<text text-anchor="middle" x="579.5" y="-613.65" font-family="Helvetica,sans-Serif" font-size="14.00">0.1</text>
</g>
<!-- 1&#45;&gt;5 -->
<g id="edge16" class="edge">
<title>1&#45;&gt;5</title>
<path fill="none" stroke="black" d="M835.04,-952.52C777.55,-951.16 639.3,-944.16 530,-908.96 516.56,-904.63 514.61,-900.32 502,-893.96 485.31,-885.55 477.47,-888.91 464,-875.96 350.05,-766.45 355.3,-697.39 349,-539.48 347.07,-491.07 319.44,-468.86 349,-430.48 364.66,-410.15 434.36,-397.32 478.31,-391.1"/>
<polygon fill="black" stroke="black" points="478.91,-394.55 488.35,-389.73 477.97,-387.61 478.91,-394.55"/>
<text text-anchor="middle" x="368.5" y="-666.02" font-family="Helvetica,sans-Serif" font-size="14.00">0.1</text>
</g>
<!-- 1&#45;&gt;6 -->
<g id="edge17" class="edge">
<title>1&#45;&gt;6</title>
<path fill="none" stroke="black" d="M888.7,-948.68C929.74,-941.03 1008.72,-921.19 1058,-875.96 1093.18,-843.68 1093.19,-826.65 1110,-781.96 1140.33,-701.34 1168.96,-671.61 1140,-590.48 1131.02,-565.33 1111.43,-542.19 1094.94,-525.95"/>
<polygon fill="black" stroke="black" points="1097.29,-523.36 1087.64,-519 1092.47,-528.43 1097.29,-523.36"/>
<text text-anchor="middle" x="1155.5" y="-718.39" font-family="Helvetica,sans-Serif" font-size="14.00">0.1</text>
</g>
<!-- 1&#45;&gt;7 -->
<g id="edge18" class="edge">
<title>1&#45;&gt;7</title>
<path fill="none" stroke="black" d="M884.79,-939.37C929.97,-911.06 1029.21,-840.37 1060,-748.96 1070.36,-718.22 1070.08,-681.06 1067.81,-654.25"/>
<polygon fill="black" stroke="black" points="1071.28,-653.78 1066.83,-644.16 1064.32,-654.46 1071.28,-653.78"/>
<text text-anchor="middle" x="1063.5" y="-770.76" font-family="Helvetica,sans-Serif" font-size="14.00">0.1</text>
</g>
<!-- 1&#45;&gt;9 -->
<g id="edge20" class="edge">
<title>1&#45;&gt;9</title>
<path fill="none" stroke="black" d="M835.45,-949.6C797.6,-943.29 730.55,-925.33 711,-875.96 698.56,-844.56 702.81,-832.73 711,-799.96 715.12,-783.47 723.53,-766.64 731.66,-752.95"/>
<polygon fill="black" stroke="black" points="734.64,-754.79 736.92,-744.45 728.68,-751.11 734.64,-754.79"/>
<text text-anchor="middle" x="722.5" y="-834.26" font-family="Helvetica,sans-Serif" font-size="14.00">0.1</text>
</g>
<!-- 8 -->
<g id="node11" class="node">
<title>8</title>
<polygon fill="none" stroke="red" points="895,-875.96 859,-837.96 895,-799.96 931,-837.96 895,-875.96"/>
<text text-anchor="middle" x="895" y="-841.76" font-family="Helvetica,sans-Serif" font-size="14.00">8</text>
<text text-anchor="middle" x="895" y="-826.76" font-family="Helvetica,sans-Serif" font-size="14.00">(8)</text>
</g>
<!-- 1&#45;&gt;8 -->
<g id="edge19" class="edge">
<title>1&#45;&gt;8</title>
<path fill="none" stroke="black" d="M869.24,-927.84C873.52,-913.09 879.01,-894.12 883.83,-877.49"/>
<polygon fill="black" stroke="black" points="887.31,-878.08 886.73,-867.5 880.58,-876.13 887.31,-878.08"/>
<text text-anchor="middle" x="889.5" y="-897.76" font-family="Helvetica,sans-Serif" font-size="14.00">0.1</text>
</g>
<!-- 2&#45;&gt;0 -->
<g id="edge21" class="edge">
<title>2&#45;&gt;0</title>
<path fill="none" stroke="red" d="M602.9,-40.02C500.93,-43.45 199.8,-56.59 110,-94 71.84,-109.89 38,-111.54 38,-152.87 38,-954.83 38,-954.83 38,-954.83 38,-1046.55 365.45,-1064.4 487.16,-1067.87"/>
<polygon fill="red" stroke="red" points="487.17,-1071.37 497.26,-1068.14 487.36,-1064.37 487.17,-1071.37"/>
<text text-anchor="middle" x="43" y="-561.28" font-family="Helvetica,sans-Serif" font-size="14.00" fill="red">8</text>
</g>
<!-- 2&#45;&gt;1 -->
<g id="edge22" class="edge">
<title>2&#45;&gt;1</title>
<path fill="none" stroke="red" d="M671.94,-39.36C842.93,-41.32 1587.17,-52.21 1681,-94 1686.89,-96.62 1738,-146.81 1738,-152.87 1738,-334.24 1738,-334.24 1738,-334.24 1738,-481.5 1700.71,-520.4 1621,-644.22 1580.86,-706.57 1547.88,-704.45 1508,-766.96 1479.81,-811.15 1498.46,-837.37 1463,-875.96 1441.35,-899.53 1429.77,-900.15 1399,-908.96 1304.78,-935.93 1004.99,-948.14 899.31,-951.69"/>
<polygon fill="red" stroke="red" points="899.01,-948.19 889.13,-952.02 899.24,-955.19 899.01,-948.19"/>
<text text-anchor="middle" x="1727" y="-497.78" font-family="Helvetica,sans-Serif" font-size="14.00" fill="red">3</text>
</g>
<!-- 2&#45;&gt;2 -->
<g id="edge23" class="edge">
<title>2&#45;&gt;2</title>
<path fill="none" stroke="red" d="M662.84,-49.03C677.46,-51.18 691,-47.51 691,-38 691,-30.8 683.22,-26.94 673.09,-26.43"/>
<polygon fill="red" stroke="red" points="672.64,-22.95 662.84,-26.97 673.01,-29.94 672.64,-22.95"/>
<text text-anchor="middle" x="696" y="-34.3" font-family="Helvetica,sans-Serif" font-size="14.00" fill="red">4</text>
</g>
<!-- 2&#45;&gt;3 -->
<g id="edge24" class="edge">
<title>2&#45;&gt;3</title>
<path fill="none" stroke="red" d="M670.79,-40.5C772.63,-45.33 1075.21,-62.08 1168,-94 1191.63,-102.13 1215.45,-117.14 1233.21,-129.97"/>
<polygon fill="red" stroke="red" points="1231.29,-132.91 1241.41,-136.06 1235.46,-127.29 1231.29,-132.91"/>
<text text-anchor="middle" x="1203" y="-97.8" font-family="Helvetica,sans-Serif" font-size="14.00" fill="red">4</text>
</g>
<!-- 2&#45;&gt;4 -->
<g id="edge25" class="edge">
<title>2&#45;&gt;4</title>
<path fill="none" stroke="red" d="M644.18,-68.5C652.12,-98.08 666.53,-144.35 687,-180.74 696.29,-197.26 701.1,-199.86 714,-213.74 723.86,-224.35 735.33,-235.45 745.44,-244.88"/>
<polygon fill="red" stroke="red" points="743.15,-247.53 752.87,-251.73 747.89,-242.38 743.15,-247.53"/>
<text text-anchor="middle" x="696.5" y="-150.17" font-family="Helvetica,sans-Serif" font-size="14.00" fill="red">10</text>
</g>
<!-- 2&#45;&gt;5 -->
<g id="edge26" class="edge">
<title>2&#45;&gt;5</title>
<path fill="none" stroke="red" d="M603.01,-40.52C564.35,-44.11 501.94,-55.88 466,-94 390.77,-173.79 411.03,-245.85 466,-340.74 470.88,-349.16 477.93,-356.83 485.18,-363.32"/>
<polygon fill="red" stroke="red" points="483.11,-366.15 493.02,-369.88 487.6,-360.78 483.11,-366.15"/>
<text text-anchor="middle" x="427.5" y="-202.54" font-family="Helvetica,sans-Serif" font-size="14.00" fill="red">10</text>
</g>
<!-- 2&#45;&gt;6 -->
<g id="edge27" class="edge">
<title>2&#45;&gt;6</title>
<path fill="none" stroke="red" d="M670.82,-40.61C753.52,-46.49 967.05,-73.64 1074,-198.74 1138.34,-274 1104.42,-402.58 1082.25,-464.74"/>
<polygon fill="red" stroke="red" points="1078.83,-463.89 1078.67,-474.48 1085.4,-466.3 1078.83,-463.89"/>
<text text-anchor="middle" x="1116" y="-266.04" font-family="Helvetica,sans-Serif" font-size="14.00" fill="red">6</text>
</g>
<!-- 2&#45;&gt;7 -->
<g id="edge28" class="edge">
<title>2&#45;&gt;7</title>
<path fill="none" stroke="red" d="M671.58,-39.6C843.97,-42.76 1603.53,-58.67 1638,-94 1684.94,-142.12 1665.33,-382.46 1638,-412.48 1557.54,-500.84 1483.69,-416.06 1374,-463.48 1298.03,-496.32 1297.66,-536.74 1223,-572.48 1182.91,-591.67 1133.02,-603.66 1099.71,-610.17"/>
<polygon fill="red" stroke="red" points="1098.69,-606.8 1089.51,-612.09 1099.99,-613.68 1098.69,-606.8"/>
<text text-anchor="middle" x="1665" y="-329.54" font-family="Helvetica,sans-Serif" font-size="14.00" fill="red">1</text>
</g>
<!-- 2&#45;&gt;9 -->
<g id="edge30" class="edge">
<title>2&#45;&gt;9</title>
<path fill="none" stroke="red" d="M604.83,-42.23C516.71,-51.96 278,-84.62 278,-152.87 278,-386.61 278,-386.61 278,-386.61 278,-554.12 475.45,-473.15 595,-590.48 615.52,-610.62 610.79,-623.77 631,-644.22 656.7,-670.24 692.77,-691.71 718.83,-705.29"/>
<polygon fill="red" stroke="red" points="717.44,-708.51 727.94,-709.93 720.62,-702.27 717.44,-708.51"/>
<text text-anchor="middle" x="285" y="-381.91" font-family="Helvetica,sans-Serif" font-size="14.00" fill="red">9</text>
</g>
<!-- 2&#45;&gt;8 -->
<g id="edge29" class="edge">
<title>2&#45;&gt;8</title>
<path fill="none" stroke="red" d="M602.88,-40.05C495.73,-44.27 173,-64.33 173,-152.87 173,-438.98 173,-438.98 173,-438.98 173,-490.55 201.18,-497.41 231,-539.48 342.13,-696.26 401.04,-741.92 589,-781.96 646.3,-794.17 797.81,-777.72 852,-799.96 858.49,-802.62 864.7,-806.67 870.27,-811.12"/>
<polygon fill="red" stroke="red" points="868.12,-813.89 877.96,-817.82 872.72,-808.61 868.12,-813.89"/>
<text text-anchor="middle" x="179" y="-434.28" font-family="Helvetica,sans-Serif" font-size="14.00" fill="red">5</text>
</g>
<!-- 3&#45;&gt;0 -->
<g id="edge31" class="edge">
<title>3&#45;&gt;0</title>
<path fill="none" stroke="black" d="M1289.07,-155.11C1334.2,-156.54 1426.59,-163.9 1495,-198.74 1514.05,-208.44 1518.21,-213.9 1530,-231.74 1587.05,-318.08 1691,-565.23 1691,-668.72 1691,-954.83 1691,-954.83 1691,-954.83 1691,-1068.72 793.14,-1070.34 577.95,-1069.09"/>
<polygon fill="black" stroke="black" points="577.66,-1065.59 567.64,-1069.03 577.62,-1072.59 577.66,-1065.59"/>
<text text-anchor="middle" x="1700.5" y="-613.65" font-family="Helvetica,sans-Serif" font-size="14.00">0.1</text>
</g>
<!-- 3&#45;&gt;1 -->
<g id="edge32" class="edge">
<title>3&#45;&gt;1</title>
<path fill="none" stroke="black" d="M1288.97,-155.78C1327.45,-158.21 1399.08,-167.02 1450,-198.74 1466.08,-208.76 1469.33,-214.41 1477,-231.74 1535.11,-362.99 1523,-766.63 1430,-875.96 1408.23,-901.55 1394.38,-900.01 1362,-908.96 1274.78,-933.07 1000.01,-946.93 899.39,-951.31"/>
<polygon fill="black" stroke="black" points="898.94,-947.82 889.1,-951.75 899.24,-954.82 898.94,-947.82"/>
<text text-anchor="middle" x="1521.5" y="-561.28" font-family="Helvetica,sans-Serif" font-size="14.00">0.1</text>
</g>
<!-- 3&#45;&gt;2 -->
<g id="edge33" class="edge">
<title>3&#45;&gt;2</title>
<path fill="none" stroke="black" d="M1249.02,-130.28C1240.3,-117.35 1227.57,-102.13 1212,-94 1120.09,-46.03 801.57,-39.67 682.43,-39"/>
<polygon fill="black" stroke="black" points="682.22,-35.5 672.2,-38.95 682.19,-42.5 682.22,-35.5"/>
<text text-anchor="middle" x="1241.5" y="-97.8" font-family="Helvetica,sans-Serif" font-size="14.00">0.1</text>
</g>
<!-- 3&#45;&gt;3 -->
<g id="edge34" class="edge">
<title>3&#45;&gt;3</title>
<path fill="none" stroke="black" d="M1287.37,-163.53C1297.92,-164.2 1306.87,-160.98 1306.87,-153.87 1306.87,-149.2 1303.02,-146.21 1297.39,-144.9"/>
<polygon fill="black" stroke="black" points="1297.59,-141.4 1287.37,-144.21 1297.11,-148.39 1297.59,-141.4"/>
<text text-anchor="middle" x="1318.37" y="-150.17" font-family="Helvetica,sans-Serif" font-size="14.00">0.1</text>
</g>
<!-- 3&#45;&gt;4 -->
<g id="edge35" class="edge">
<title>3&#45;&gt;4</title>
<path fill="none" stroke="black" d="M1234.91,-156.7C1180.92,-160.79 1056.37,-172.46 955,-198.74 901.58,-212.59 842.36,-237 806.16,-253.02"/>
<polygon fill="black" stroke="black" points="804.28,-250.03 796.58,-257.3 807.14,-256.42 804.28,-250.03"/>
<text text-anchor="middle" x="966.5" y="-202.54" font-family="Helvetica,sans-Serif" font-size="14.00">0.1</text>
</g>
<!-- 3&#45;&gt;5 -->
<g id="edge36" class="edge">
<title>3&#45;&gt;5</title>
<path fill="none" stroke="black" d="M1234.99,-156.03C1111.05,-161.41 601.55,-184.36 571,-198.74 517.54,-223.91 511.04,-301.8 512.25,-348.38"/>
<polygon fill="black" stroke="black" points="508.77,-348.8 512.66,-358.66 515.76,-348.52 508.77,-348.8"/>
<text text-anchor="middle" x="547.5" y="-266.04" font-family="Helvetica,sans-Serif" font-size="14.00">0.1</text>
</g>
<!-- 3&#45;&gt;6 -->
<g id="edge37" class="edge">
<title>3&#45;&gt;6</title>
<path fill="none" stroke="black" d="M1235.58,-158.87C1197.8,-166.12 1129.24,-185.23 1096,-231.74 1071.34,-266.25 1067.55,-386.09 1067.45,-453.5"/>
<polygon fill="black" stroke="black" points="1063.95,-453.85 1067.46,-463.84 1070.95,-453.84 1063.95,-453.85"/>
<text text-anchor="middle" x="1083.5" y="-329.54" font-family="Helvetica,sans-Serif" font-size="14.00">0.1</text>
</g>
<!-- 3&#45;&gt;7 -->
<g id="edge38" class="edge">
<title>3&#45;&gt;7</title>
<path fill="none" stroke="black" d="M1260.66,-180.8C1257.82,-227.62 1249.76,-329.16 1230,-412.48 1212.58,-485.93 1225.38,-518.12 1173,-572.48 1153.4,-592.82 1123.16,-603.96 1099.35,-609.92"/>
<polygon fill="black" stroke="black" points="1098.54,-606.52 1089.58,-612.17 1100.11,-613.34 1098.54,-606.52"/>
<text text-anchor="middle" x="1251.5" y="-381.91" font-family="Helvetica,sans-Serif" font-size="14.00">0.1</text>
</g>
<!-- 3&#45;&gt;9 -->
<g id="edge40" class="edge">
<title>3&#45;&gt;9</title>
<path fill="none" stroke="black" d="M1286.82,-164.73C1301.25,-171.87 1318.26,-183.04 1327,-198.74 1367.4,-271.31 1355.75,-494.94 1326,-572.48 1311.61,-609.99 1305.63,-623.84 1271,-644.22 1250.07,-656.54 903.58,-701.71 788.69,-716.42"/>
<polygon fill="black" stroke="black" points="788.1,-712.97 778.62,-717.71 788.99,-719.91 788.1,-712.97"/>
<text text-anchor="middle" x="1361.5" y="-434.28" font-family="Helvetica,sans-Serif" font-size="14.00">0.1</text>
</g>
<!-- 3&#45;&gt;8 -->
<g id="edge39" class="edge">
<title>3&#45;&gt;8</title>
<path fill="none" stroke="black" d="M1288.94,-153.98C1323.42,-154.5 1382.02,-161.27 1410,-198.74 1476.94,-288.4 1474.65,-544.3 1385,-644.22 1339.94,-694.45 1301.88,-664.12 1242,-695.22 1205.29,-714.29 1204.13,-732.91 1166,-748.96 1125.19,-766.15 1109.8,-752.33 1068,-766.96 1054.68,-771.62 1052.85,-776.11 1040,-781.96 1003.67,-798.5 960.8,-814.32 931.14,-824.72"/>
<polygon fill="black" stroke="black" points="929.91,-821.44 921.61,-828.03 932.21,-828.05 929.91,-821.44"/>
<text text-anchor="middle" x="1463.5" y="-497.78" font-family="Helvetica,sans-Serif" font-size="14.00">0.1</text>
</g>
<!-- 4&#45;&gt;0 -->
<g id="edge41" class="edge">
<title>4&#45;&gt;0</title>
<path fill="none" stroke="red" d="M756.13,-291.47C692.97,-374.47 461.26,-683.85 427,-799.96 404.27,-877.01 399.11,-905.37 427,-980.7 439.21,-1013.68 472.34,-1037.92 498.15,-1052.51"/>
<polygon fill="red" stroke="red" points="496.81,-1055.77 507.27,-1057.45 500.15,-1049.61 496.81,-1055.77"/>
<text text-anchor="middle" x="501" y="-666.02" font-family="Helvetica,sans-Serif" font-size="14.00" fill="red">6</text>
</g>
<!-- 4&#45;&gt;2 -->
<g id="edge42" class="edge">
<title>4&#45;&gt;2</title>
<path fill="none" stroke="red" d="M761.79,-242.21C750.07,-213.02 729.42,-165.17 706,-127 692.74,-105.39 675.04,-82.92 660.9,-66.09"/>
<polygon fill="red" stroke="red" points="663.42,-63.66 654.27,-58.32 658.09,-68.2 663.42,-63.66"/>
<text text-anchor="middle" x="740" y="-150.17" font-family="Helvetica,sans-Serif" font-size="14.00" fill="red">2</text>
</g>
<!-- 4&#45;&gt;3 -->
<g id="edge43" class="edge">
<title>4&#45;&gt;3</title>
<path fill="none" stroke="red" d="M800.82,-262.04C885.45,-242.38 1133.1,-184.82 1226.13,-163.21"/>
<polygon fill="red" stroke="red" points="1226.98,-166.6 1235.92,-160.93 1225.39,-159.78 1226.98,-166.6"/>
<text text-anchor="middle" x="1065" y="-202.54" font-family="Helvetica,sans-Serif" font-size="14.00" fill="red">9</text>
</g>
<!-- 4&#45;&gt;4 -->
<g id="edge44" class="edge">
<title>4&#45;&gt;4</title>
<path fill="none" stroke="red" d="M797.84,-280.77C812.46,-282.92 826,-279.25 826,-269.74 826,-262.54 818.22,-258.68 808.09,-258.17"/>
<polygon fill="red" stroke="red" points="807.64,-254.69 797.84,-258.71 808.01,-261.68 807.64,-254.69"/>
<text text-anchor="middle" x="831" y="-266.04" font-family="Helvetica,sans-Serif" font-size="14.00" fill="red">8</text>
</g>
<!-- 4&#45;&gt;5 -->
<g id="edge45" class="edge">
<title>4&#45;&gt;5</title>
<path fill="none" stroke="red" d="M744.21,-278.76C713.31,-288.15 662.3,-305.09 621,-325.74 610.08,-331.2 608.52,-334.55 598,-340.74 581.83,-350.26 563.42,-360.09 548.06,-368.02"/>
<polygon fill="red" stroke="red" points="546.23,-365.02 538.93,-372.7 549.43,-371.25 546.23,-365.02"/>
<text text-anchor="middle" x="626" y="-329.54" font-family="Helvetica,sans-Serif" font-size="14.00" fill="red">2</text>
</g>
<!-- 4&#45;&gt;6 -->
<g id="edge46" class="edge">
<title>4&#45;&gt;6</title>
<path fill="none" stroke="red" d="M804.14,-274.22C862.1,-281.1 980.92,-298.23 1011,-325.74 1030.87,-343.91 1049.31,-414.04 1059.57,-459.75"/>
<polygon fill="red" stroke="red" points="1056.19,-460.65 1061.76,-469.66 1063.02,-459.14 1056.19,-460.65"/>
<text text-anchor="middle" x="1052" y="-381.91" font-family="Helvetica,sans-Serif" font-size="14.00" fill="red">4</text>
</g>
<!-- 4&#45;&gt;7 -->
<g id="edge47" class="edge">
<title>4&#45;&gt;7</title>
<path fill="none" stroke="red" d="M803.25,-275.05C837.14,-281.14 891.17,-295.15 927,-325.74 1006.2,-393.36 981.33,-444.04 1023,-539.48 1029.6,-554.6 1037.89,-570.88 1045.21,-584.54"/>
<polygon fill="red" stroke="red" points="1042.24,-586.42 1050.09,-593.54 1048.4,-583.08 1042.24,-586.42"/>
<text text-anchor="middle" x="999" y="-434.28" font-family="Helvetica,sans-Serif" font-size="14.00" fill="red">2</text>
</g>
<!-- 4&#45;&gt;9 -->
<g id="edge49" class="edge">
<title>4&#45;&gt;9</title>
<path fill="none" stroke="red" d="M770.64,-306.39C768.65,-357.86 764.78,-455.98 761,-539.48 758.71,-590 755.77,-648.4 753.88,-685.04"/>
<polygon fill="red" stroke="red" points="750.37,-685.06 753.35,-695.23 757.36,-685.42 750.37,-685.06"/>
<text text-anchor="middle" x="769" y="-497.78" font-family="Helvetica,sans-Serif" font-size="14.00" fill="red">1</text>
</g>
<!-- 4&#45;&gt;8 -->
<g id="edge48" class="edge">
<title>4&#45;&gt;8</title>
<path fill="none" stroke="red" d="M791.6,-287.37C802.46,-297.5 815.46,-311.25 824,-325.74 852.34,-373.85 823.04,-405.49 862,-445.48 879.07,-463 898.09,-444.91 914,-463.48 943.2,-497.57 945.98,-617.52 950,-662.22 954.64,-713.9 931.03,-770.69 913.29,-805.08"/>
<polygon fill="red" stroke="red" points="910.06,-803.69 908.47,-814.16 916.25,-806.97 910.06,-803.69"/>
<text text-anchor="middle" x="947" y="-561.28" font-family="Helvetica,sans-Serif" font-size="14.00" fill="red">1</text>
</g>
<!-- 5&#45;&gt;0 -->
<g id="edge50" class="edge">
<title>5&#45;&gt;0</title>
<path fill="none" stroke="black" d="M488.02,-386.34C450.15,-387.35 380.94,-394.47 337,-430.48 246.5,-504.64 225,-551.72 225,-668.72 225,-954.83 225,-954.83 225,-954.83 225,-992.83 253.48,-995.81 287,-1013.7 351.77,-1048.26 437.34,-1061.15 488.32,-1065.93"/>
<polygon fill="black" stroke="black" points="488.08,-1069.42 498.35,-1066.8 488.69,-1062.45 488.08,-1069.42"/>
<text text-anchor="middle" x="236.5" y="-718.39" font-family="Helvetica,sans-Serif" font-size="14.00">0.1</text>
</g>
<!-- 5&#45;&gt;1 -->
<g id="edge51" class="edge">
<title>5&#45;&gt;1</title>
<path fill="none" stroke="black" d="M488.83,-392.2C456.26,-400.87 403.28,-421.19 390,-463.48 361.45,-554.36 373.92,-587.52 406,-677.22 447.24,-792.51 451.95,-842.82 555,-908.96 598.96,-937.18 752.65,-947.82 824.48,-951.32"/>
<polygon fill="black" stroke="black" points="824.71,-954.84 834.87,-951.81 825.04,-947.85 824.71,-954.84"/>
<text text-anchor="middle" x="417.5" y="-666.02" font-family="Helvetica,sans-Serif" font-size="14.00">0.1</text>
</g>
<!-- 5&#45;&gt;2 -->
<g id="edge52" class="edge">
<title>5&#45;&gt;2</title>
<path fill="none" stroke="black" d="M509.27,-359.33C503.38,-328.47 496.77,-275.04 510,-231.74 530.33,-165.22 581.48,-100.29 612.31,-65.38"/>
<polygon fill="black" stroke="black" points="615.23,-67.36 619.3,-57.58 610.02,-62.69 615.23,-67.36"/>
<text text-anchor="middle" x="533.5" y="-202.54" font-family="Helvetica,sans-Serif" font-size="14.00">0.1</text>
</g>
<!-- 5&#45;&gt;3 -->
<g id="edge53" class="edge">
<title>5&#45;&gt;3</title>
<path fill="none" stroke="black" d="M527.5,-361.72C534.57,-350.08 544.16,-336.22 555,-325.74 611.3,-271.32 630.81,-259.55 704,-231.74 890.19,-160.98 1133.34,-154.16 1224.94,-154.32"/>
<polygon fill="black" stroke="black" points="1225.08,-157.82 1235.1,-154.37 1225.12,-150.82 1225.08,-157.82"/>
<text text-anchor="middle" x="715.5" y="-266.04" font-family="Helvetica,sans-Serif" font-size="14.00">0.1</text>
</g>
<!-- 5&#45;&gt;4 -->
<g id="edge54" class="edge">
<title>5&#45;&gt;4</title>
<path fill="none" stroke="black" d="M531.97,-364.57C544.96,-349.68 562.1,-331.06 571,-325.74 598.16,-309.5 682.07,-289.77 732.48,-278.91"/>
<polygon fill="black" stroke="black" points="733.34,-282.3 742.39,-276.79 731.88,-275.46 733.34,-282.3"/>
<text text-anchor="middle" x="582.5" y="-329.54" font-family="Helvetica,sans-Serif" font-size="14.00">0.1</text>
</g>
<!-- 5&#45;&gt;5 -->
<g id="edge55" class="edge">
<title>5&#45;&gt;5</title>
<path fill="none" stroke="black" d="M540.37,-395.27C550.92,-395.94 559.87,-392.72 559.87,-385.61 559.87,-380.94 556.02,-377.95 550.39,-376.64"/>
<polygon fill="black" stroke="black" points="550.59,-373.14 540.37,-375.95 550.11,-380.13 550.59,-373.14"/>
<text text-anchor="middle" x="571.37" y="-381.91" font-family="Helvetica,sans-Serif" font-size="14.00">0.1</text>
</g>
<!-- 5&#45;&gt;6 -->
<g id="edge56" class="edge">
<title>5&#45;&gt;6</title>
<path fill="none" stroke="black" d="M541.94,-387.75C623.12,-391.44 864.32,-404.37 938,-430.48 949.5,-434.56 950.45,-439.35 961,-445.48 985.23,-459.56 1013.44,-473.98 1034.82,-484.53"/>
<polygon fill="black" stroke="black" points="1033.3,-487.68 1043.82,-488.94 1036.38,-481.4 1033.3,-487.68"/>
<text text-anchor="middle" x="972.5" y="-434.28" font-family="Helvetica,sans-Serif" font-size="14.00">0.1</text>
</g>
<!-- 5&#45;&gt;7 -->
<g id="edge57" class="edge">
<title>5&#45;&gt;7</title>
<path fill="none" stroke="black" d="M540.47,-395.37C559.55,-402.76 585.6,-414.67 605,-430.48 652.41,-469.12 636.2,-508.6 689,-539.48 737.07,-567.59 758.29,-547.09 813,-557.48 889.93,-572.09 978.96,-594.36 1027.29,-606.9"/>
<polygon fill="black" stroke="black" points="1026.69,-610.36 1037.25,-609.5 1028.45,-603.59 1026.69,-610.36"/>
<text text-anchor="middle" x="700.5" y="-497.78" font-family="Helvetica,sans-Serif" font-size="14.00">0.1</text>
</g>
<!-- 5&#45;&gt;9 -->
<g id="edge59" class="edge">
<title>5&#45;&gt;9</title>
<path fill="none" stroke="black" d="M528.21,-409.16C547.6,-440.94 586.25,-499.48 630,-539.48 641.2,-549.72 649.21,-545.9 659,-557.48 696.13,-601.39 676.12,-629.37 708,-677.22 712.63,-684.16 718.47,-690.92 724.38,-696.96"/>
<polygon fill="black" stroke="black" points="722.2,-699.72 731.81,-704.19 727.09,-694.71 722.2,-699.72"/>
<text text-anchor="middle" x="681.5" y="-561.28" font-family="Helvetica,sans-Serif" font-size="14.00">0.1</text>
</g>
<!-- 5&#45;&gt;8 -->
<g id="edge58" class="edge">
<title>5&#45;&gt;8</title>
<path fill="none" stroke="black" d="M488.6,-391.57C467.34,-397.11 438.82,-408.37 425,-430.48 374.57,-511.16 388.87,-562.15 437,-644.22 443.93,-656.03 450.9,-654.2 462,-662.22 535.43,-715.3 542,-750.57 627,-781.96 721.11,-816.72 759.41,-761.34 852,-799.96 858.47,-802.66 864.67,-806.72 870.25,-811.18"/>
<polygon fill="black" stroke="black" points="868.1,-813.94 877.94,-817.88 872.7,-808.67 868.1,-813.94"/>
<text text-anchor="middle" x="448.5" y="-613.65" font-family="Helvetica,sans-Serif" font-size="14.00">0.1</text>
</g>
<!-- 6&#45;&gt;0 -->
<g id="edge60" class="edge">
<title>6&#45;&gt;0</title>
<path fill="none" stroke="red" d="M1095.18,-510.83C1129.79,-521.49 1191.42,-540.59 1244,-557.48 1288.56,-571.79 1302.54,-568.77 1344,-590.48 1412.53,-626.35 1431.57,-637.44 1483,-695.22 1567.36,-789.99 1579.83,-901.13 1481,-980.7 1445.2,-1009.52 1428.09,-1004.81 1383,-1013.7 1226.26,-1044.61 728.97,-1062.49 576.73,-1067.35"/>
<polygon fill="red" stroke="red" points="576.26,-1063.86 566.37,-1067.67 576.48,-1070.85 576.26,-1063.86"/>
<text text-anchor="middle" x="1542" y="-770.76" font-family="Helvetica,sans-Serif" font-size="14.00" fill="red">5</text>
</g>
<!-- 6&#45;&gt;1 -->
<g id="edge61" class="edge">
<title>6&#45;&gt;1</title>
<path fill="none" stroke="red" d="M1090.77,-515.98C1106.3,-526.01 1126.59,-540.79 1141,-557.48 1197.29,-622.68 1194.19,-666 1171,-748.96 1145.96,-838.57 1122.33,-874.27 1036,-908.96 990.09,-927.41 934.17,-939.85 898.34,-946.64"/>
<polygon fill="red" stroke="red" points="897.54,-943.23 888.34,-948.49 898.81,-950.11 897.54,-943.23"/>
<text text-anchor="middle" x="1188" y="-718.39" font-family="Helvetica,sans-Serif" font-size="14.00" fill="red">6</text>
</g>
<!-- 6&#45;&gt;2 -->
<g id="edge62" class="edge">
<title>6&#45;&gt;2</title>
<path fill="none" stroke="red" d="M1083.66,-479.8C1090.78,-469.79 1098.95,-457.38 1105,-445.48 1148.25,-360.44 1158.16,-321.2 1125,-231.74 1103.67,-174.19 1085.18,-162.34 1035,-127 926.2,-50.36 762.48,-38.83 683.23,-38.11"/>
<polygon fill="red" stroke="red" points="683.09,-34.61 673.08,-38.07 683.07,-41.61 683.09,-34.61"/>
<text text-anchor="middle" x="1149" y="-266.04" font-family="Helvetica,sans-Serif" font-size="14.00" fill="red">9</text>
</g>
<!-- 6&#45;&gt;4 -->
<g id="edge63" class="edge">
<title>6&#45;&gt;4</title>
<path fill="none" stroke="red" d="M1054.52,-477.7C1044.01,-459.94 1029.07,-434.65 1016,-412.48 993.29,-373.95 1000.37,-353.1 965,-325.74 921.21,-291.86 857.43,-278.85 815.34,-273.86"/>
<polygon fill="red" stroke="red" points="815.71,-270.38 805.39,-272.78 814.96,-277.33 815.71,-270.38"/>
<text text-anchor="middle" x="1021" y="-381.91" font-family="Helvetica,sans-Serif" font-size="14.00" fill="red">4</text>
</g>
<!-- 6&#45;&gt;5 -->
<g id="edge64" class="edge">
<title>6&#45;&gt;5</title>
<path fill="none" stroke="red" d="M1040.18,-492.58C1003.73,-482.15 937.89,-463.05 882,-445.48 861.89,-439.16 857.53,-435.26 837,-430.48 735.4,-406.84 612.59,-394.46 552.21,-389.41"/>
<polygon fill="red" stroke="red" points="552.28,-385.91 542.02,-388.58 551.71,-392.88 552.28,-385.91"/>
<text text-anchor="middle" x="887" y="-434.28" font-family="Helvetica,sans-Serif" font-size="14.00" fill="red">1</text>
</g>
<!-- 6&#45;&gt;6 -->
<g id="edge65" class="edge">
<title>6&#45;&gt;6</title>
<path fill="none" stroke="red" d="M1093.84,-512.51C1108.46,-514.66 1122,-510.99 1122,-501.48 1122,-494.28 1114.22,-490.42 1104.09,-489.91"/>
<polygon fill="red" stroke="red" points="1103.64,-486.43 1093.84,-490.45 1104.01,-493.42 1103.64,-486.43"/>
<text text-anchor="middle" x="1127" y="-497.78" font-family="Helvetica,sans-Serif" font-size="14.00" fill="red">6</text>
</g>
<!-- 6&#45;&gt;7 -->
<g id="edge66" class="edge">
<title>6&#45;&gt;7</title>
<path fill="none" stroke="red" d="M1073.48,-533.89C1074.86,-545.98 1075.55,-559.89 1074,-572.48 1073.63,-575.5 1073.12,-578.61 1072.51,-581.72"/>
<polygon fill="red" stroke="red" points="1069.09,-580.98 1070.36,-591.5 1075.93,-582.48 1069.09,-580.98"/>
<text text-anchor="middle" x="1079" y="-561.28" font-family="Helvetica,sans-Serif" font-size="14.00" fill="red">8</text>
</g>
<!-- 6&#45;&gt;9 -->
<g id="edge67" class="edge">
<title>6&#45;&gt;9</title>
<path fill="none" stroke="red" d="M1038.17,-508.39C989.33,-518.44 894.83,-539.49 866,-557.48 816.58,-588.31 782.88,-649.28 765.58,-687.46"/>
<polygon fill="red" stroke="red" points="762.37,-686.08 761.54,-696.65 768.77,-688.9 762.37,-686.08"/>
<text text-anchor="middle" x="830" y="-613.65" font-family="Helvetica,sans-Serif" font-size="14.00" fill="red">3</text>
</g>
<!-- 7&#45;&gt;0 -->
<g id="edge68" class="edge">
<title>7&#45;&gt;0</title>
<path fill="none" stroke="black" d="M1081.12,-637.56C1087.03,-644.8 1093.07,-653.42 1097,-662.22 1103.07,-675.83 1100.94,-680.46 1103,-695.22 1116.32,-790.7 1127.74,-834.92 1066,-908.96 1024.48,-958.75 999.59,-957.65 939,-980.7 810.74,-1029.5 648.92,-1054.31 573.82,-1063.88"/>
<polygon fill="black" stroke="black" points="573.3,-1060.42 563.81,-1065.13 574.17,-1067.37 573.3,-1060.42"/>
<text text-anchor="middle" x="1124.5" y="-834.26" font-family="Helvetica,sans-Serif" font-size="14.00">0.1</text>
</g>
<!-- 7&#45;&gt;1 -->
<g id="edge69" class="edge">
<title>7&#45;&gt;1</title>
<path fill="none" stroke="black" d="M1075.09,-641.45C1077.93,-647.99 1080.55,-655.23 1082,-662.22 1092.8,-714.35 1095.22,-731.26 1079,-781.96 1063.68,-829.86 1053.54,-842.49 1016,-875.96 992.11,-897.26 980.61,-894.61 952,-908.96 933.25,-918.36 912.18,-928.65 895.15,-936.89"/>
<polygon fill="black" stroke="black" points="893.62,-933.74 886.14,-941.25 896.66,-940.05 893.62,-933.74"/>
<text text-anchor="middle" x="1094.5" y="-770.76" font-family="Helvetica,sans-Serif" font-size="14.00">0.1</text>
</g>
<!-- 7&#45;&gt;2 -->
<g id="edge70" class="edge">
<title>7&#45;&gt;2</title>
<path fill="none" stroke="black" d="M1089.47,-611.66C1117.09,-605.83 1160.79,-593.94 1193,-572.48 1209.25,-561.66 1210.35,-555.15 1222,-539.48 1256.07,-493.66 1246.15,-467.05 1290,-430.48 1403.81,-335.58 1516.71,-430.3 1600,-307.74 1627.23,-267.67 1628.82,-237.68 1600,-198.74 1489.21,-49.07 858.98,-38.65 682.77,-38.7"/>
<polygon fill="black" stroke="black" points="682.54,-35.2 672.55,-38.71 682.55,-42.2 682.54,-35.2"/>
<text text-anchor="middle" x="1596.5" y="-329.54" font-family="Helvetica,sans-Serif" font-size="14.00">0.1</text>
</g>
<!-- 7&#45;&gt;3 -->
<g id="edge71" class="edge">
<title>7&#45;&gt;3</title>
<path fill="none" stroke="black" d="M1084.04,-600.52C1101.58,-586.32 1126.02,-563.97 1141,-539.48 1159.79,-508.75 1226.6,-278.76 1252.05,-189.83"/>
<polygon fill="black" stroke="black" points="1255.49,-190.53 1254.88,-179.95 1248.76,-188.6 1255.49,-190.53"/>
<text text-anchor="middle" x="1212.5" y="-381.91" font-family="Helvetica,sans-Serif" font-size="14.00">0.1</text>
</g>
<!-- 7&#45;&gt;4 -->
<g id="edge72" class="edge">
<title>7&#45;&gt;4</title>
<path fill="none" stroke="black" d="M1044.69,-597.37C1030.34,-582.18 1010.17,-560.07 994,-539.48 968.72,-507.29 971.99,-491.33 942,-463.48 930.33,-452.64 921.46,-457.49 911,-445.48 873.23,-402.12 899.28,-369.52 862,-325.74 847.07,-308.21 825.09,-294.63 806.59,-285.35"/>
<polygon fill="black" stroke="black" points="808.09,-282.19 797.56,-281.02 805.06,-288.5 808.09,-282.19"/>
<text text-anchor="middle" x="922.5" y="-434.28" font-family="Helvetica,sans-Serif" font-size="14.00">0.1</text>
</g>
<!-- 7&#45;&gt;5 -->
<g id="edge73" class="edge">
<title>7&#45;&gt;5</title>
<path fill="none" stroke="black" d="M1038.37,-606.46C1018.64,-598.21 990.47,-585.71 967,-572.48 892.05,-530.22 885.29,-499.17 807,-463.48 719.89,-423.77 608.45,-401.59 551.74,-392.15"/>
<polygon fill="black" stroke="black" points="552.23,-388.68 541.8,-390.53 551.11,-395.59 552.23,-388.68"/>
<text text-anchor="middle" x="926.5" y="-497.78" font-family="Helvetica,sans-Serif" font-size="14.00">0.1</text>
</g>
<!-- 7&#45;&gt;6 -->
<g id="edge74" class="edge">
<title>7&#45;&gt;6</title>
<path fill="none" stroke="black" d="M1052.48,-592.17C1050.21,-585.88 1048.16,-579.03 1047,-572.48 1044.85,-560.3 1047.38,-547.25 1051.34,-535.76"/>
<polygon fill="black" stroke="black" points="1054.72,-536.71 1055.1,-526.12 1048.2,-534.16 1054.72,-536.71"/>
<text text-anchor="middle" x="1058.5" y="-561.28" font-family="Helvetica,sans-Serif" font-size="14.00">0.1</text>
</g>
<!-- 7&#45;&gt;7 -->
<g id="edge75" class="edge">
<title>7&#45;&gt;7</title>
<path fill="none" stroke="black" d="M1088.37,-627.01C1098.92,-627.68 1107.87,-624.46 1107.87,-617.35 1107.87,-612.68 1104.02,-609.69 1098.39,-608.38"/>
<polygon fill="black" stroke="black" points="1098.59,-604.88 1088.37,-607.69 1098.11,-611.87 1098.59,-604.88"/>
<text text-anchor="middle" x="1119.37" y="-613.65" font-family="Helvetica,sans-Serif" font-size="14.00">0.1</text>
</g>
<!-- 7&#45;&gt;9 -->
<g id="edge77" class="edge">
<title>7&#45;&gt;9</title>
<path fill="none" stroke="black" d="M1036.22,-621.7C999.23,-626.98 930.98,-639.09 877,-662.22 865.78,-667.03 864.76,-671.45 854,-677.22 832.1,-688.96 806.39,-700 786.26,-708.07"/>
<polygon fill="black" stroke="black" points="784.89,-704.85 776.87,-711.78 787.46,-711.36 784.89,-704.85"/>
<text text-anchor="middle" x="888.5" y="-666.02" font-family="Helvetica,sans-Serif" font-size="14.00">0.1</text>
</g>
<!-- 7&#45;&gt;8 -->
<g id="edge76" class="edge">
<title>7&#45;&gt;8</title>
<path fill="none" stroke="black" d="M1054.19,-642.89C1039.44,-683.01 1009.46,-760.34 990,-781.96 973.67,-800.1 949.91,-813.85 930.24,-823.07"/>
<polygon fill="black" stroke="black" points="928.65,-819.94 920.96,-827.23 931.52,-826.33 928.65,-819.94"/>
<text text-anchor="middle" x="1044.5" y="-718.39" font-family="Helvetica,sans-Serif" font-size="14.00">0.1</text>
</g>
<!-- 9&#45;&gt;0 -->
<g id="edge86" class="edge">
<title>9&#45;&gt;0</title>
<path fill="none" stroke="black" d="M727.22,-733.04C678.45,-754.17 571.09,-808.67 529,-893.96 507.83,-936.86 513.87,-993.2 521.64,-1030.16"/>
<polygon fill="black" stroke="black" points="518.25,-1031.04 523.86,-1040.04 525.08,-1029.51 518.25,-1031.04"/>
<text text-anchor="middle" x="540.5" y="-897.76" font-family="Helvetica,sans-Serif" font-size="14.00">0.1</text>
</g>
<!-- 9&#45;&gt;1 -->
<g id="edge87" class="edge">
<title>9&#45;&gt;1</title>
<path fill="none" stroke="black" d="M763.3,-746.68C783.02,-787.88 823.79,-873.03 846.27,-919.98"/>
<polygon fill="black" stroke="black" points="843.17,-921.6 850.64,-929.11 849.48,-918.58 843.17,-921.6"/>
<text text-anchor="middle" x="836.5" y="-834.26" font-family="Helvetica,sans-Serif" font-size="14.00">0.1</text>
</g>
<!-- 9&#45;&gt;2 -->
<g id="edge88" class="edge">
<title>9&#45;&gt;2</title>
<path fill="none" stroke="black" d="M725.79,-716.13C650.06,-701.68 434.47,-659.65 406,-644.22 264.54,-567.55 219,-495.14 219,-334.24 219,-334.24 219,-334.24 219,-152.87 219,-75.89 486.22,-49.22 593.35,-41.61"/>
<polygon fill="black" stroke="black" points="593.76,-45.09 603.5,-40.92 593.28,-38.11 593.76,-45.09"/>
<text text-anchor="middle" x="235.5" y="-381.91" font-family="Helvetica,sans-Serif" font-size="14.00">0.1</text>
</g>
<!-- 9&#45;&gt;3 -->
<g id="edge89" class="edge">
<title>9&#45;&gt;3</title>
<path fill="none" stroke="black" d="M778.42,-716.74C860.5,-703.1 1107.55,-661.09 1140,-644.22 1180.93,-622.94 1190.46,-611.54 1215,-572.48 1300.88,-435.78 1269.97,-375.17 1272,-213.74 1272.08,-207.07 1272.75,-205.36 1272,-198.74 1271.68,-195.9 1271.25,-192.98 1270.74,-190.05"/>
<polygon fill="black" stroke="black" points="1274.17,-189.35 1268.79,-180.22 1267.3,-190.71 1274.17,-189.35"/>
<text text-anchor="middle" x="1283.5" y="-434.28" font-family="Helvetica,sans-Serif" font-size="14.00">0.1</text>
</g>
<!-- 9&#45;&gt;4 -->
<g id="edge90" class="edge">
<title>9&#45;&gt;4</title>
<path fill="none" stroke="black" d="M748.63,-695.29C744.23,-660.13 736.75,-595.18 734,-539.48 732.33,-505.74 730.72,-497.1 734,-463.48 739.26,-409.57 752.62,-348.38 762,-309.68"/>
<polygon fill="black" stroke="black" points="765.43,-310.41 764.41,-299.86 758.63,-308.74 765.43,-310.41"/>
<text text-anchor="middle" x="745.5" y="-497.78" font-family="Helvetica,sans-Serif" font-size="14.00">0.1</text>
</g>
<!-- 9&#45;&gt;5 -->
<g id="edge91" class="edge">
<title>9&#45;&gt;5</title>
<path fill="none" stroke="black" d="M730.16,-706.07C719.32,-698.11 706.37,-687.81 696,-677.22 662.3,-642.79 665.29,-624.31 631,-590.48 603.6,-563.45 583.26,-570.88 561,-539.48 536.12,-504.39 524.5,-455.66 519.21,-422.73"/>
<polygon fill="black" stroke="black" points="522.64,-422 517.7,-412.62 515.71,-423.03 522.64,-422"/>
<text text-anchor="middle" x="617.5" y="-561.28" font-family="Helvetica,sans-Serif" font-size="14.00">0.1</text>
</g>
<!-- 9&#45;&gt;6 -->
<g id="edge92" class="edge">
<title>9&#45;&gt;6</title>
<path fill="none" stroke="black" d="M769.65,-701.47C780.9,-689.48 796.12,-674.2 811,-662.22 822.52,-652.94 828.1,-654.22 839,-644.22 874.9,-611.29 866.36,-585.79 906,-557.48 942.74,-531.24 992.96,-516.77 1027.7,-509.35"/>
<polygon fill="black" stroke="black" points="1028.41,-512.77 1037.51,-507.35 1027.01,-505.91 1028.41,-512.77"/>
<text text-anchor="middle" x="886.5" y="-613.65" font-family="Helvetica,sans-Serif" font-size="14.00">0.1</text>
</g>
<!-- 9&#45;&gt;7 -->
<g id="edge93" class="edge">
<title>9&#45;&gt;7</title>
<path fill="none" stroke="black" d="M772.76,-704.86C783.32,-696.59 796.35,-686.38 808,-677.22 816.46,-670.57 817.2,-666.67 827,-662.22 844.89,-654.1 964.5,-634.14 1026.25,-624.18"/>
<polygon fill="black" stroke="black" points="1027.03,-627.6 1036.35,-622.56 1025.93,-620.69 1027.03,-627.6"/>
<text text-anchor="middle" x="838.5" y="-666.02" font-family="Helvetica,sans-Serif" font-size="14.00">0.1</text>
</g>
<!-- 9&#45;&gt;9 -->
<g id="edge95" class="edge">
<title>9&#45;&gt;9</title>
<path fill="none" stroke="black" d="M777.37,-731.75C787.92,-732.42 796.87,-729.2 796.87,-722.09 796.87,-717.42 793.02,-714.43 787.39,-713.12"/>
<polygon fill="black" stroke="black" points="787.59,-709.62 777.37,-712.43 787.11,-716.61 787.59,-709.62"/>
<text text-anchor="middle" x="808.37" y="-718.39" font-family="Helvetica,sans-Serif" font-size="14.00">0.1</text>
</g>
<!-- 9&#45;&gt;8 -->
<g id="edge94" class="edge">
<title>9&#45;&gt;8</title>
<path fill="none" stroke="black" d="M775.63,-735.36C790.41,-743.48 809.5,-754.85 825,-766.96 841.42,-779.79 857.98,-796.16 870.87,-809.85"/>
<polygon fill="black" stroke="black" points="868.64,-812.59 878.01,-817.55 873.78,-807.83 868.64,-812.59"/>
<text text-anchor="middle" x="852.5" y="-770.76" font-family="Helvetica,sans-Serif" font-size="14.00">0.1</text>
</g>
<!-- 8&#45;&gt;1 -->
<g id="edge78" class="edge">
<title>8&#45;&gt;1</title>
<path fill="none" stroke="red" d="M879.11,-859.4C872.42,-869.27 865.42,-881.62 862,-893.96 859.99,-901.21 859.14,-909.15 858.94,-916.79"/>
<polygon fill="red" stroke="red" points="855.44,-916.96 859.03,-926.93 862.44,-916.9 855.44,-916.96"/>
<text text-anchor="middle" x="867" y="-897.76" font-family="Helvetica,sans-Serif" font-size="14.00" fill="red">9</text>
</g>
<!-- 8&#45;&gt;2 -->
<g id="edge79" class="edge">
<title>8&#45;&gt;2</title>
<path fill="none" stroke="red" d="M924.16,-830.6C965.77,-821.26 1044.43,-802.71 1110,-781.96 1319.56,-715.64 1395.5,-720.5 1558,-572.48 1649.13,-489.47 1700,-457.51 1700,-334.24 1700,-334.24 1700,-334.24 1700,-152.87 1700,-120.21 1684.8,-109.41 1656,-94 1569.43,-47.66 868.59,-40.33 682.32,-39.2"/>
<polygon fill="red" stroke="red" points="682.09,-35.7 672.07,-39.14 682.05,-42.7 682.09,-35.7"/>
<text text-anchor="middle" x="1693.5" y="-434.28" font-family="Helvetica,sans-Serif" font-size="14.00" fill="red">10</text>
</g>
<!-- 8&#45;&gt;3 -->
<g id="edge80" class="edge">
<title>8&#45;&gt;3</title>
<path fill="none" stroke="red" d="M919.42,-825.5C942.42,-814.6 977.77,-797.6 1008,-781.96 1079.15,-745.14 1092.97,-728.14 1166,-695.22 1227.14,-667.67 1258.32,-689.26 1308,-644.22 1333.76,-620.87 1396,-464.33 1396,-438.98 1396,-438.98 1396,-438.98 1396,-268.74 1396,-216.56 1336.28,-183.3 1296.57,-166.95"/>
<polygon fill="red" stroke="red" points="1297.79,-163.67 1287.2,-163.26 1295.22,-170.18 1297.79,-163.67"/>
<text text-anchor="middle" x="1395" y="-497.78" font-family="Helvetica,sans-Serif" font-size="14.00" fill="red">5</text>
</g>
<!-- 8&#45;&gt;4 -->
<g id="edge81" class="edge">
<title>8&#45;&gt;4</title>
<path fill="none" stroke="red" d="M897.51,-802.4C899.73,-770.06 902.78,-720.4 904,-677.22 904.84,-647.24 903.18,-593.03 902,-590.48 887.69,-559.64 862.86,-568.41 845,-539.48 821.38,-501.21 793.53,-376.63 780.08,-311.4"/>
<polygon fill="red" stroke="red" points="783.48,-310.56 778.05,-301.46 776.62,-311.96 783.48,-310.56"/>
<text text-anchor="middle" x="893" y="-561.28" font-family="Helvetica,sans-Serif" font-size="14.00" fill="red">4</text>
</g>
<!-- 8&#45;&gt;5 -->
<g id="edge82" class="edge">
<title>8&#45;&gt;5</title>
<path fill="none" stroke="red" d="M877,-818.57C869.74,-811.96 860.96,-804.92 852,-799.96 828.39,-786.88 819.35,-791.23 794,-781.96 671.18,-737.05 604.78,-754.18 534,-644.22 489.97,-575.81 498.8,-475 507.68,-422.06"/>
<polygon fill="red" stroke="red" points="511.14,-422.59 509.45,-412.13 504.25,-421.36 511.14,-422.59"/>
<text text-anchor="middle" x="539" y="-613.65" font-family="Helvetica,sans-Serif" font-size="14.00" fill="red">9</text>
</g>
<!-- 8&#45;&gt;7 -->
<g id="edge83" class="edge">
<title>8&#45;&gt;7</title>
<path fill="none" stroke="red" d="M913.96,-819.09C924.36,-808.77 937.11,-795.24 947,-781.96 973.58,-746.27 971.28,-731.53 997,-695.22 1009.44,-677.66 1025.06,-659.33 1037.98,-644.97"/>
<polygon fill="red" stroke="red" points="1040.7,-647.18 1044.85,-637.43 1035.53,-642.47 1040.7,-647.18"/>
<text text-anchor="middle" x="1002" y="-718.39" font-family="Helvetica,sans-Serif" font-size="14.00" fill="red">9</text>
</g>
<!-- 8&#45;&gt;9 -->
<g id="edge85" class="edge">
<title>8&#45;&gt;9</title>
<path fill="none" stroke="red" d="M872.98,-823.1C856.55,-812.45 833.79,-797.06 815,-781.96 802.3,-771.75 789,-759.58 777.92,-748.96"/>
<polygon fill="red" stroke="red" points="780.25,-746.34 770.63,-741.9 775.38,-751.37 780.25,-746.34"/>
<text text-anchor="middle" x="820" y="-770.76" font-family="Helvetica,sans-Serif" font-size="14.00" fill="red">4</text>
</g>
<!-- 8&#45;&gt;8 -->
<g id="edge84" class="edge">
<title>8&#45;&gt;8</title>
<path fill="none" stroke="red" d="M920.84,-848.99C935.46,-851.14 949,-847.47 949,-837.96 949,-830.76 941.22,-826.9 931.09,-826.39"/>
<polygon fill="red" stroke="red" points="930.64,-822.91 920.84,-826.93 931.01,-829.9 930.64,-822.91"/>
<text text-anchor="middle" x="954" y="-834.26" font-family="Helvetica,sans-Serif" font-size="14.00" fill="red">2</text>
</g>
</g>
</svg>
