<?xml version="1.0" encoding="UTF-8" standalone="no"?>
<!DOCTYPE svg PUBLIC "-//W3C//DTD SVG 1.1//EN"
 "http://www.w3.org/Graphics/SVG/1.1/DTD/svg11.dtd">
<!-- Generated by graphviz version 2.43.0 (0)
 -->
<!-- Title: EMDP Pages: 1 -->
<svg width="112pt" height="229pt"
 viewBox="0.00 0.00 111.87 229.34" xmlns="http://www.w3.org/2000/svg" xmlns:xlink="http://www.w3.org/1999/xlink">
<g id="graph0" class="graph" transform="scale(1 1) rotate(0) translate(4 225.34)">
<title>EMDP</title>
<polygon fill="white" stroke="transparent" points="-4,4 -4,-225.34 107.87,-225.34 107.87,4 -4,4"/>
<!-- 0 -->
<g id="node1" class="node">
<title>0</title>
<ellipse fill="none" stroke="black" cx="36" cy="-153.87" rx="26.74" ry="26.74"/>
<text text-anchor="middle" x="36" y="-157.67" font-family="Helvetica,sans-Serif" font-size="14.00">0</text>
<text text-anchor="middle" x="36" y="-142.67" font-family="Helvetica,sans-Serif" font-size="14.00">(0)</text>
</g>
<!-- 0&#45;&gt;0 -->
<g id="edge2" class="edge">
<title>0&#45;&gt;0</title>
<path fill="none" stroke="black" d="M61.82,-162.07C72.18,-162.53 80.87,-159.8 80.87,-153.87 80.87,-150.07 77.3,-147.58 72.02,-146.41"/>
<polygon fill="black" stroke="black" points="72.05,-142.9 61.82,-145.67 71.54,-149.88 72.05,-142.9"/>
<text text-anchor="middle" x="92.37" y="-150.17" font-family="Helvetica,sans-Serif" font-size="14.00">0.5</text>
</g>
<!-- 1 -->
<g id="node3" class="node">
<title>1</title>
<polygon fill="none" stroke="red" points="36,-76 0,-38 36,0 72,-38 36,-76"/>
<text text-anchor="middle" x="36" y="-41.8" font-family="Helvetica,sans-Serif" font-size="14.00">1</text>
<text text-anchor="middle" x="36" y="-26.8" font-family="Helvetica,sans-Serif" font-size="14.00">(1)</text>
</g>
<!-- 0&#45;&gt;1 -->
<g id="edge3" class="edge">
<title>0&#45;&gt;1</title>
<path fill="none" stroke="black" d="M36,-126.75C36,-114.82 36,-100.3 36,-86.54"/>
<polygon fill="black" stroke="black" points="39.5,-86.22 36,-76.22 32.5,-86.22 39.5,-86.22"/>
<text text-anchor="middle" x="47.5" y="-97.8" font-family="Helvetica,sans-Serif" font-size="14.00">0.5</text>
</g>
<!-- 0i -->
<g id="node2" class="node">
<title>0i</title>
<ellipse fill="black" stroke="black" cx="36" cy="-219.54" rx="1.8" ry="1.8"/>
</g>
<!-- 0i&#45;&gt;0 -->
<g id="edge1" class="edge">
<title>0i&#45;&gt;0</title>
<path fill="none" stroke="black" d="M36,-217.44C36,-213.98 36,-202.89 36,-190.98"/>
<polygon fill="black" stroke="black" points="39.5,-190.94 36,-180.94 32.5,-190.94 39.5,-190.94"/>
</g>
</g>
</svg>
