<?xml version="1.0" encoding="UTF-8" standalone="no"?>
<!DOCTYPE svg PUBLIC "-//W3C//DTD SVG 1.1//EN"
 "http://www.w3.org/Graphics/SVG/1.1/DTD/svg11.dtd">
<!-- Generated by graphviz version 2.43.0 (0)
 -->
<!-- Title: EMDP Pages: 1 -->
<svg width="198pt" height="77pt"
 viewBox="0.00 0.00 197.60 77.00" xmlns="http://www.w3.org/2000/svg" xmlns:xlink="http://www.w3.org/1999/xlink">
<g id="graph0" class="graph" transform="scale(1 1) rotate(0) translate(4 73)">
<title>EMDP</title>
<polygon fill="white" stroke="transparent" points="-4,4 -4,-73 193.6,-73 193.6,4 -4,4"/>
<!-- 0 -->
<g id="node1" class="node">
<title>0</title>
<ellipse fill="none" stroke="black" cx="58.6" cy="-18" rx="18" ry="18"/>
<text text-anchor="middle" x="58.6" y="-14.3" font-family="Helvetica,sans-Serif" font-size="14.00">0</text>
</g>
<!-- 0&#45;&gt;0 -->
<g id="edge2" class="edge">
<title>0&#45;&gt;0</title>
<path fill="none" stroke="black" d="M52.22,-35.04C50.92,-44.86 53.05,-54 58.6,-54 62.07,-54 64.2,-50.43 65,-45.35"/>
<polygon fill="black" stroke="black" points="68.5,-45.03 64.98,-35.04 61.5,-45.04 68.5,-45.03"/>
<text text-anchor="middle" x="58.6" y="-57.8" font-family="Helvetica,sans-Serif" font-size="14.00">0.5</text>
</g>
<!-- 1 -->
<g id="node3" class="node">
<title>1</title>
<polygon fill="none" stroke="red" points="162.6,-36 135.6,-18 162.6,0 189.6,-18 162.6,-36"/>
<text text-anchor="middle" x="162.6" y="-14.3" font-family="Helvetica,sans-Serif" font-size="14.00">1</text>
</g>
<!-- 0&#45;&gt;1 -->
<g id="edge3" class="edge">
<title>0&#45;&gt;1</title>
<path fill="none" stroke="black" d="M76.9,-18C90.05,-18 108.61,-18 125,-18"/>
<polygon fill="black" stroke="black" points="125.38,-21.5 135.38,-18 125.38,-14.5 125.38,-21.5"/>
<text text-anchor="middle" x="106.1" y="-21.8" font-family="Helvetica,sans-Serif" font-size="14.00">0.5</text>
</g>
<!-- 0i -->
<g id="node2" class="node">
<title>0i</title>
<ellipse fill="black" stroke="black" cx="1.8" cy="-18" rx="1.8" ry="1.8"/>
</g>
<!-- 0i&#45;&gt;0 -->
<g id="edge1" class="edge">
<title>0i&#45;&gt;0</title>
<path fill="none" stroke="black" d="M3.75,-18C7.11,-18 18.87,-18 30.55,-18"/>
<polygon fill="black" stroke="black" points="30.58,-21.5 40.58,-18 30.58,-14.5 30.58,-21.5"/>
</g>
</g>
</svg>
