<?xml version="1.0" encoding="UTF-8" standalone="no"?>
<!DOCTYPE svg PUBLIC "-//W3C//DTD SVG 1.1//EN"
 "http://www.w3.org/Graphics/SVG/1.1/DTD/svg11.dtd">
<!-- Generated by graphviz version 2.43.0 (0)
 -->
<!-- Title: EMDP Pages: 1 -->
<svg width="281pt" height="483pt"
 viewBox="0.00 0.00 280.64 483.34" xmlns="http://www.w3.org/2000/svg" xmlns:xlink="http://www.w3.org/1999/xlink">
<g id="graph0" class="graph" transform="scale(1 1) rotate(0) translate(4 479.34)">
<title>EMDP</title>
<polygon fill="white" stroke="transparent" points="-4,4 -4,-479.34 276.64,-479.34 276.64,4 -4,4"/>
<!-- 0 -->
<g id="node1" class="node">
<title>0</title>
<polygon fill="none" stroke="red" points="81.64,-434.74 45.64,-396.74 81.64,-358.74 117.64,-396.74 81.64,-434.74"/>
<text text-anchor="middle" x="81.64" y="-400.54" font-family="Helvetica,sans-Serif" font-size="14.00">0</text>
<text text-anchor="middle" x="81.64" y="-385.54" font-family="Helvetica,sans-Serif" font-size="14.00">(0)</text>
</g>
<!-- 1 -->
<g id="node3" class="node">
<title>1</title>
<ellipse fill="none" stroke="black" cx="27.64" cy="-165" rx="26.74" ry="26.74"/>
<text text-anchor="middle" x="27.64" y="-168.8" font-family="Helvetica,sans-Serif" font-size="14.00">1</text>
<text text-anchor="middle" x="27.64" y="-153.8" font-family="Helvetica,sans-Serif" font-size="14.00">(1)</text>
</g>
<!-- 0&#45;&gt;1 -->
<g id="edge2" class="edge">
<title>0&#45;&gt;1</title>
<path fill="none" stroke="red" d="M69,-371.78C60.44,-354.46 49.63,-330.25 43.64,-307.74 34.29,-272.57 30.4,-231.07 28.79,-202.1"/>
<polygon fill="red" stroke="red" points="32.28,-201.84 28.29,-192.03 25.29,-202.19 32.28,-201.84"/>
<text text-anchor="middle" x="48.64" y="-277.17" font-family="Helvetica,sans-Serif" font-size="14.00" fill="red">1</text>
</g>
<!-- 2 -->
<g id="node4" class="node">
<title>2</title>
<ellipse fill="none" stroke="black" cx="131.64" cy="-280.87" rx="26.74" ry="26.74"/>
<text text-anchor="middle" x="131.64" y="-284.67" font-family="Helvetica,sans-Serif" font-size="14.00">2</text>
<text text-anchor="middle" x="131.64" y="-269.67" font-family="Helvetica,sans-Serif" font-size="14.00">(2)</text>
</g>
<!-- 0&#45;&gt;2 -->
<g id="edge3" class="edge">
<title>0&#45;&gt;2</title>
<path fill="none" stroke="red" d="M92.87,-370.19C100.01,-353.92 109.33,-332.68 117.05,-315.11"/>
<polygon fill="red" stroke="red" points="120.33,-316.35 121.14,-305.78 113.92,-313.53 120.33,-316.35"/>
<text text-anchor="middle" x="116.64" y="-329.54" font-family="Helvetica,sans-Serif" font-size="14.00" fill="red">2</text>
</g>
<!-- 3 -->
<g id="node5" class="node">
<title>3</title>
<ellipse fill="none" stroke="black" cx="195.64" cy="-165" rx="26.74" ry="26.74"/>
<text text-anchor="middle" x="195.64" y="-168.8" font-family="Helvetica,sans-Serif" font-size="14.00">3</text>
<text text-anchor="middle" x="195.64" y="-153.8" font-family="Helvetica,sans-Serif" font-size="14.00">(3)</text>
</g>
<!-- 0&#45;&gt;3 -->
<g id="edge4" class="edge">
<title>0&#45;&gt;3</title>
<path fill="none" stroke="red" d="M113.72,-392.41C148.68,-387.16 204.21,-373.88 238.64,-340.74 276.99,-303.84 265.06,-267.2 238.64,-221 233.28,-211.61 226.42,-202.08 219.78,-193.65"/>
<polygon fill="red" stroke="red" points="222.28,-191.19 213.26,-185.64 216.85,-195.6 222.28,-191.19"/>
<text text-anchor="middle" x="267.64" y="-277.17" font-family="Helvetica,sans-Serif" font-size="14.00" fill="red">3</text>
</g>
<!-- 0i -->
<g id="node2" class="node">
<title>0i</title>
<ellipse fill="red" stroke="red" cx="81.64" cy="-473.54" rx="1.8" ry="1.8"/>
</g>
<!-- 0i&#45;&gt;0 -->
<g id="edge1" class="edge">
<title>0i&#45;&gt;0</title>
<path fill="none" stroke="red" d="M81.64,-471.7C81.64,-468.66 81.64,-457.75 81.64,-445.21"/>
<polygon fill="red" stroke="red" points="85.14,-444.92 81.64,-434.92 78.14,-444.92 85.14,-444.92"/>
</g>
<!-- 1&#45;&gt;0 -->
<g id="edge5" class="edge">
<title>1&#45;&gt;0</title>
<path fill="none" stroke="black" d="M17.18,-189.81C6.08,-218.57 -7.97,-268.06 6.64,-307.74 16.09,-333.39 36.7,-356.64 53.93,-372.8"/>
<polygon fill="black" stroke="black" points="51.8,-375.59 61.56,-379.71 56.5,-370.4 51.8,-375.59"/>
<text text-anchor="middle" x="18.14" y="-277.17" font-family="Helvetica,sans-Serif" font-size="14.00">0.8</text>
</g>
<!-- 4 -->
<g id="node6" class="node">
<title>4</title>
<polygon fill="none" stroke="red" points="108.64,-76 72.64,-38 108.64,0 144.64,-38 108.64,-76"/>
<text text-anchor="middle" x="108.64" y="-41.8" font-family="Helvetica,sans-Serif" font-size="14.00">4</text>
<text text-anchor="middle" x="108.64" y="-26.8" font-family="Helvetica,sans-Serif" font-size="14.00">(4)</text>
</g>
<!-- 1&#45;&gt;4 -->
<g id="edge6" class="edge">
<title>1&#45;&gt;4</title>
<path fill="none" stroke="black" d="M41.94,-141.94C54.93,-121.89 74.22,-92.12 88.73,-69.74"/>
<polygon fill="black" stroke="black" points="91.72,-71.56 94.22,-61.26 85.85,-67.75 91.72,-71.56"/>
<text text-anchor="middle" x="85.14" y="-97.8" font-family="Helvetica,sans-Serif" font-size="14.00">0.2</text>
</g>
<!-- 2&#45;&gt;1 -->
<g id="edge7" class="edge">
<title>2&#45;&gt;1</title>
<path fill="none" stroke="black" d="M112.41,-261.91C104.28,-254.12 94.82,-244.79 86.64,-236 74.39,-222.83 61.44,-207.61 50.8,-194.74"/>
<polygon fill="black" stroke="black" points="53.22,-192.18 44.17,-186.67 47.81,-196.62 53.22,-192.18"/>
<text text-anchor="middle" x="102.64" y="-224.8" font-family="Helvetica,sans-Serif" font-size="14.00">0.25</text>
</g>
<!-- 2&#45;&gt;3 -->
<g id="edge8" class="edge">
<title>2&#45;&gt;3</title>
<path fill="none" stroke="black" d="M144.44,-257.1C154.03,-240.03 167.28,-216.47 177.9,-197.58"/>
<polygon fill="black" stroke="black" points="181.02,-199.16 182.87,-188.73 174.92,-195.73 181.02,-199.16"/>
<text text-anchor="middle" x="179.64" y="-224.8" font-family="Helvetica,sans-Serif" font-size="14.00">0.25</text>
</g>
<!-- 5 -->
<g id="node7" class="node">
<title>5</title>
<polygon fill="none" stroke="red" points="112.64,-203 76.64,-165 112.64,-127 148.64,-165 112.64,-203"/>
<text text-anchor="middle" x="112.64" y="-168.8" font-family="Helvetica,sans-Serif" font-size="14.00">5</text>
<text text-anchor="middle" x="112.64" y="-153.8" font-family="Helvetica,sans-Serif" font-size="14.00">(5)</text>
</g>
<!-- 2&#45;&gt;5 -->
<g id="edge9" class="edge">
<title>2&#45;&gt;5</title>
<path fill="none" stroke="black" d="M127.38,-254.32C125.08,-240.55 122.19,-223.21 119.58,-207.56"/>
<polygon fill="black" stroke="black" points="123.01,-206.86 117.91,-197.57 116.11,-208.01 123.01,-206.86"/>
<text text-anchor="middle" x="136.14" y="-224.8" font-family="Helvetica,sans-Serif" font-size="14.00">0.5</text>
</g>
<!-- 3&#45;&gt;0 -->
<g id="edge10" class="edge">
<title>3&#45;&gt;0</title>
<path fill="none" stroke="black" d="M200.33,-191.52C201.97,-204.9 202.74,-221.48 199.64,-236 192.37,-270.15 187.26,-278.86 167.64,-307.74 151.05,-332.17 127.3,-355.88 108.96,-372.52"/>
<polygon fill="black" stroke="black" points="106.6,-369.93 101.47,-379.2 111.26,-375.16 106.6,-369.93"/>
<text text-anchor="middle" x="206.14" y="-277.17" font-family="Helvetica,sans-Serif" font-size="14.00">0.2</text>
</g>
<!-- 3&#45;&gt;4 -->
<g id="edge11" class="edge">
<title>3&#45;&gt;4</title>
<path fill="none" stroke="black" d="M180.69,-142.51C166.56,-122.21 145.23,-91.57 129.45,-68.89"/>
<polygon fill="black" stroke="black" points="132.28,-66.83 123.7,-60.63 126.54,-70.83 132.28,-66.83"/>
<text text-anchor="middle" x="169.14" y="-97.8" font-family="Helvetica,sans-Serif" font-size="14.00">0.8</text>
</g>
<!-- 5&#45;&gt;0 -->
<g id="edge12" class="edge">
<title>5&#45;&gt;0</title>
<path fill="none" stroke="green" d="M94.77,-184.42C85.95,-194.48 75.89,-207.6 69.64,-221 49.09,-265.08 58.91,-322.3 69.17,-359.03"/>
<polygon fill="green" stroke="green" points="65.87,-360.21 72.05,-368.81 72.58,-358.23 65.87,-360.21"/>
<text text-anchor="middle" x="76.14" y="-277.17" font-family="Helvetica,sans-Serif" font-size="14.00" fill="green">&#45;100</text>
</g>
</g>
</svg>
