<?xml version="1.0" encoding="UTF-8" standalone="no"?>
<!DOCTYPE svg PUBLIC "-//W3C//DTD SVG 1.1//EN"
 "http://www.w3.org/Graphics/SVG/1.1/DTD/svg11.dtd">
<!-- Generated by graphviz version 2.43.0 (0)
 -->
<!-- Title: EMDP Pages: 1 -->
<svg width="203pt" height="461pt"
 viewBox="0.00 0.00 203.10 461.08" xmlns="http://www.w3.org/2000/svg" xmlns:xlink="http://www.w3.org/1999/xlink">
<g id="graph0" class="graph" transform="scale(1 1) rotate(0) translate(4 457.08)">
<title>EMDP</title>
<polygon fill="white" stroke="transparent" points="-4,4 -4,-457.08 199.1,-457.08 199.1,4 -4,4"/>
<!-- 0 -->
<g id="node1" class="node">
<title>0</title>
<polygon fill="none" stroke="red" points="105.1,-412.48 69.1,-374.48 105.1,-336.48 141.1,-374.48 105.1,-412.48"/>
<text text-anchor="middle" x="105.1" y="-378.28" font-family="Helvetica,sans-Serif" font-size="14.00">0</text>
<text text-anchor="middle" x="105.1" y="-363.28" font-family="Helvetica,sans-Serif" font-size="14.00">(0)</text>
</g>
<!-- 1 -->
<g id="node3" class="node">
<title>1</title>
<ellipse fill="none" stroke="black" cx="64.1" cy="-153.87" rx="26.74" ry="26.74"/>
<text text-anchor="middle" x="64.1" y="-157.67" font-family="Helvetica,sans-Serif" font-size="14.00">1</text>
<text text-anchor="middle" x="64.1" y="-142.67" font-family="Helvetica,sans-Serif" font-size="14.00">(1)</text>
</g>
<!-- 0&#45;&gt;1 -->
<g id="edge2" class="edge">
<title>0&#45;&gt;1</title>
<path fill="none" stroke="red" d="M80.23,-362.29C53.82,-348.64 14.59,-322.68 5.1,-285.48 -4.63,-247.33 0.05,-230.66 23.1,-198.74 27.55,-192.58 32.79,-186.37 38.01,-180.64"/>
<polygon fill="red" stroke="red" points="40.73,-182.86 45.03,-173.18 35.63,-178.06 40.73,-182.86"/>
<text text-anchor="middle" x="10.1" y="-254.91" font-family="Helvetica,sans-Serif" font-size="14.00" fill="red">1</text>
</g>
<!-- 2 -->
<g id="node4" class="node">
<title>2</title>
<ellipse fill="none" stroke="black" cx="105.1" cy="-258.61" rx="26.74" ry="26.74"/>
<text text-anchor="middle" x="105.1" y="-262.41" font-family="Helvetica,sans-Serif" font-size="14.00">2</text>
<text text-anchor="middle" x="105.1" y="-247.41" font-family="Helvetica,sans-Serif" font-size="14.00">(2)</text>
</g>
<!-- 0&#45;&gt;2 -->
<g id="edge3" class="edge">
<title>0&#45;&gt;2</title>
<path fill="none" stroke="red" d="M105.1,-336.19C105.1,-323.32 105.1,-308.93 105.1,-296.12"/>
<polygon fill="red" stroke="red" points="108.6,-295.8 105.1,-285.8 101.6,-295.8 108.6,-295.8"/>
<text text-anchor="middle" x="110.1" y="-307.28" font-family="Helvetica,sans-Serif" font-size="14.00" fill="red">2</text>
</g>
<!-- 3 -->
<g id="node5" class="node">
<title>3</title>
<ellipse fill="none" stroke="black" cx="139.1" cy="-153.87" rx="26.74" ry="26.74"/>
<text text-anchor="middle" x="139.1" y="-157.67" font-family="Helvetica,sans-Serif" font-size="14.00">3</text>
<text text-anchor="middle" x="139.1" y="-142.67" font-family="Helvetica,sans-Serif" font-size="14.00">(3)</text>
</g>
<!-- 0&#45;&gt;3 -->
<g id="edge4" class="edge">
<title>0&#45;&gt;3</title>
<path fill="none" stroke="red" d="M117.12,-348.62C125.04,-331.29 135.02,-307.43 141.1,-285.48 149.71,-254.39 149.65,-245.9 152.1,-213.74 152.61,-207.09 153.06,-205.34 152.1,-198.74 151.66,-195.69 151.05,-192.56 150.34,-189.45"/>
<polygon fill="red" stroke="red" points="153.7,-188.44 147.79,-179.65 146.93,-190.21 153.7,-188.44"/>
<text text-anchor="middle" x="155.1" y="-254.91" font-family="Helvetica,sans-Serif" font-size="14.00" fill="red">3</text>
</g>
<!-- 0i -->
<g id="node2" class="node">
<title>0i</title>
<ellipse fill="red" stroke="red" cx="105.1" cy="-451.28" rx="1.8" ry="1.8"/>
</g>
<!-- 0i&#45;&gt;0 -->
<g id="edge1" class="edge">
<title>0i&#45;&gt;0</title>
<path fill="none" stroke="red" d="M105.1,-449.44C105.1,-446.4 105.1,-435.49 105.1,-422.95"/>
<polygon fill="red" stroke="red" points="108.6,-422.66 105.1,-412.66 101.6,-422.66 108.6,-422.66"/>
</g>
<!-- 1&#45;&gt;0 -->
<g id="edge5" class="edge">
<title>1&#45;&gt;0</title>
<path fill="none" stroke="black" d="M54.57,-179.44C45.64,-206.06 35.18,-249.57 46.1,-285.48 52.99,-308.11 67.84,-330.21 80.92,-346.6"/>
<polygon fill="black" stroke="black" points="78.48,-349.14 87.55,-354.62 83.88,-344.68 78.48,-349.14"/>
<text text-anchor="middle" x="57.6" y="-254.91" font-family="Helvetica,sans-Serif" font-size="14.00">0.8</text>
</g>
<!-- 4 -->
<g id="node6" class="node">
<title>4</title>
<polygon fill="none" stroke="red" points="100.1,-76 64.1,-38 100.1,0 136.1,-38 100.1,-76"/>
<text text-anchor="middle" x="100.1" y="-41.8" font-family="Helvetica,sans-Serif" font-size="14.00">4</text>
<text text-anchor="middle" x="100.1" y="-26.8" font-family="Helvetica,sans-Serif" font-size="14.00">(4)</text>
</g>
<!-- 1&#45;&gt;4 -->
<g id="edge6" class="edge">
<title>1&#45;&gt;4</title>
<path fill="none" stroke="black" d="M72,-127.88C76.74,-112.89 82.87,-93.52 88.19,-76.69"/>
<polygon fill="black" stroke="black" points="91.53,-77.72 91.21,-67.13 84.86,-75.61 91.53,-77.72"/>
<text text-anchor="middle" x="93.6" y="-97.8" font-family="Helvetica,sans-Serif" font-size="14.00">0.2</text>
</g>
<!-- 2&#45;&gt;1 -->
<g id="edge7" class="edge">
<title>2&#45;&gt;1</title>
<path fill="none" stroke="black" d="M95.39,-233.26C90.08,-219.96 83.42,-203.27 77.61,-188.71"/>
<polygon fill="black" stroke="black" points="80.71,-187.03 73.75,-179.04 74.21,-189.63 80.71,-187.03"/>
<text text-anchor="middle" x="98.6" y="-202.54" font-family="Helvetica,sans-Serif" font-size="14.00">0.5</text>
</g>
<!-- 2&#45;&gt;3 -->
<g id="edge8" class="edge">
<title>2&#45;&gt;3</title>
<path fill="none" stroke="black" d="M113.25,-233C117.59,-219.88 123,-203.53 127.75,-189.18"/>
<polygon fill="black" stroke="black" points="131.09,-190.23 130.91,-179.63 124.44,-188.03 131.09,-190.23"/>
<text text-anchor="middle" x="136.6" y="-202.54" font-family="Helvetica,sans-Serif" font-size="14.00">0.5</text>
</g>
<!-- 3&#45;&gt;0 -->
<g id="edge9" class="edge">
<title>3&#45;&gt;0</title>
<path fill="none" stroke="black" d="M155.1,-175.62C159.56,-182.59 163.81,-190.65 166.1,-198.74 176.61,-235.84 174.15,-248.25 164.1,-285.48 157.9,-308.47 142.89,-330.7 129.56,-347.08"/>
<polygon fill="black" stroke="black" points="126.58,-345.18 122.8,-355.07 131.92,-349.7 126.58,-345.18"/>
<text text-anchor="middle" x="183.6" y="-254.91" font-family="Helvetica,sans-Serif" font-size="14.00">0.2</text>
</g>
<!-- 3&#45;&gt;4 -->
<g id="edge10" class="edge">
<title>3&#45;&gt;4</title>
<path fill="none" stroke="black" d="M130.64,-128.16C125.43,-112.96 118.66,-93.19 112.82,-76.13"/>
<polygon fill="black" stroke="black" points="116.06,-74.78 109.51,-66.45 109.43,-77.05 116.06,-74.78"/>
<text text-anchor="middle" x="134.6" y="-97.8" font-family="Helvetica,sans-Serif" font-size="14.00">0.8</text>
</g>
</g>
</svg>
