<?xml version="1.0" encoding="UTF-8" standalone="no"?>
<!DOCTYPE svg PUBLIC "-//W3C//DTD SVG 1.1//EN"
 "http://www.w3.org/Graphics/SVG/1.1/DTD/svg11.dtd">
<!-- Generated by graphviz version 2.43.0 (0)
 -->
<!-- Title: EMDP Pages: 1 -->
<svg width="1623pt" height="183pt"
 viewBox="0.00 0.00 1622.51 183.00" xmlns="http://www.w3.org/2000/svg" xmlns:xlink="http://www.w3.org/1999/xlink">
<g id="graph0" class="graph" transform="scale(1 1) rotate(0) translate(4 179)">
<title>EMDP</title>
<polygon fill="white" stroke="transparent" points="-4,4 -4,-179 1618.51,-179 1618.51,4 -4,4"/>
<!-- 0 -->
<g id="node1" class="node">
<title>0</title>
<polygon fill="none" stroke="red" points="127,-175 100,-157 127,-139 154,-157 127,-175"/>
<text text-anchor="middle" x="127" y="-153.3" font-family="Helvetica,sans-Serif" font-size="14.00">0</text>
</g>
<!-- 1 -->
<g id="node2" class="node">
<title>1</title>
<polygon fill="none" stroke="red" points="27,-121 0,-103 27,-85 54,-103 27,-121"/>
<text text-anchor="middle" x="27" y="-99.3" font-family="Helvetica,sans-Serif" font-size="14.00">1</text>
</g>
<!-- 1&#45;&gt;0 -->
<g id="edge1" class="edge">
<title>1&#45;&gt;0</title>
<path fill="none" stroke="red" d="M42.46,-110.97C58.31,-119.7 83.97,-133.84 102.68,-144.15"/>
<polygon fill="red" stroke="red" points="101.03,-147.24 111.48,-149 104.41,-141.11 101.03,-147.24"/>
<text text-anchor="middle" x="77" y="-134.8" font-family="Helvetica,sans-Serif" font-size="14.00" fill="red">1</text>
</g>
<!-- 3 -->
<g id="node3" class="node">
<title>3</title>
<polygon fill="none" stroke="red" points="127,-121 100,-103 127,-85 154,-103 127,-121"/>
<text text-anchor="middle" x="127" y="-99.3" font-family="Helvetica,sans-Serif" font-size="14.00">3</text>
</g>
<!-- 1&#45;&gt;3 -->
<g id="edge2" class="edge">
<title>1&#45;&gt;3</title>
<path fill="none" stroke="red" d="M54,-103C64.97,-103 77.92,-103 89.79,-103"/>
<polygon fill="red" stroke="red" points="89.87,-106.5 99.87,-103 89.87,-99.5 89.87,-106.5"/>
<text text-anchor="middle" x="77" y="-106.8" font-family="Helvetica,sans-Serif" font-size="14.00" fill="red">3</text>
</g>
<!-- 2 -->
<g id="node4" class="node">
<title>2</title>
<ellipse fill="none" stroke="black" cx="220.5" cy="-55" rx="18" ry="18"/>
<text text-anchor="middle" x="220.5" y="-51.3" font-family="Helvetica,sans-Serif" font-size="14.00">2</text>
</g>
<!-- 3&#45;&gt;2 -->
<g id="edge5" class="edge">
<title>3&#45;&gt;2</title>
<path fill="none" stroke="red" d="M142.7,-95.29C156.81,-87.89 178.37,-76.58 195.05,-67.82"/>
<polygon fill="red" stroke="red" points="197,-70.76 204.23,-63.01 193.74,-64.56 197,-70.76"/>
<text text-anchor="middle" x="177" y="-82.8" font-family="Helvetica,sans-Serif" font-size="14.00" fill="red">1</text>
</g>
<!-- 5 -->
<g id="node6" class="node">
<title>5</title>
<polygon fill="none" stroke="red" points="571,-121 544,-103 571,-85 598,-103 571,-121"/>
<text text-anchor="middle" x="571" y="-99.3" font-family="Helvetica,sans-Serif" font-size="14.00">5</text>
</g>
<!-- 3&#45;&gt;5 -->
<g id="edge6" class="edge">
<title>3&#45;&gt;5</title>
<path fill="none" stroke="red" d="M138.83,-113.39C155.01,-127.78 187.06,-152 219.5,-152 219.5,-152 219.5,-152 450,-152 486.79,-152 525.53,-132.02 548.72,-117.58"/>
<polygon fill="red" stroke="red" points="550.87,-120.35 557.38,-111.99 547.08,-114.47 550.87,-120.35"/>
<text text-anchor="middle" x="336" y="-155.8" font-family="Helvetica,sans-Serif" font-size="14.00" fill="red">2</text>
</g>
<!-- 2&#45;&gt;1 -->
<g id="edge3" class="edge">
<title>2&#45;&gt;1</title>
<path fill="none" stroke="black" d="M202.45,-53.37C178.88,-51.66 135.24,-50.52 100,-61 81.34,-66.55 62.41,-77.87 48.64,-87.35"/>
<polygon fill="black" stroke="black" points="46.5,-84.59 40.4,-93.25 50.57,-90.28 46.5,-84.59"/>
<text text-anchor="middle" x="127" y="-64.8" font-family="Helvetica,sans-Serif" font-size="14.00">0.247</text>
</g>
<!-- 4 -->
<g id="node5" class="node">
<title>4</title>
<ellipse fill="none" stroke="black" cx="336" cy="-87" rx="18" ry="18"/>
<text text-anchor="middle" x="336" y="-83.3" font-family="Helvetica,sans-Serif" font-size="14.00">4</text>
</g>
<!-- 2&#45;&gt;4 -->
<g id="edge4" class="edge">
<title>2&#45;&gt;4</title>
<path fill="none" stroke="black" d="M238.25,-59.72C256.79,-64.95 286.94,-73.45 308.66,-79.57"/>
<polygon fill="black" stroke="black" points="307.98,-83.02 318.55,-82.36 309.88,-76.28 307.98,-83.02"/>
<text text-anchor="middle" x="279.5" y="-80.8" font-family="Helvetica,sans-Serif" font-size="14.00">0.753</text>
</g>
<!-- 4&#45;&gt;3 -->
<g id="edge7" class="edge">
<title>4&#45;&gt;3</title>
<path fill="none" stroke="black" d="M318.38,-91.44C312.6,-92.81 306.05,-94.17 300,-95 253.29,-101.37 198.87,-102.93 163.95,-103.19"/>
<polygon fill="black" stroke="black" points="163.76,-99.69 153.77,-103.23 163.79,-106.69 163.76,-99.69"/>
<text text-anchor="middle" x="220.5" y="-105.8" font-family="Helvetica,sans-Serif" font-size="14.00">0.381</text>
</g>
<!-- 6 -->
<g id="node7" class="node">
<title>6</title>
<ellipse fill="none" stroke="black" cx="449" cy="-51" rx="18" ry="18"/>
<text text-anchor="middle" x="449" y="-47.3" font-family="Helvetica,sans-Serif" font-size="14.00">6</text>
</g>
<!-- 4&#45;&gt;6 -->
<g id="edge8" class="edge">
<title>4&#45;&gt;6</title>
<path fill="none" stroke="black" d="M353.38,-81.69C371.41,-75.84 400.66,-66.35 421.87,-59.47"/>
<polygon fill="black" stroke="black" points="423.12,-62.75 431.55,-56.33 420.96,-56.09 423.12,-62.75"/>
<text text-anchor="middle" x="392.5" y="-79.8" font-family="Helvetica,sans-Serif" font-size="14.00">0.619</text>
</g>
<!-- 5&#45;&gt;4 -->
<g id="edge9" class="edge">
<title>5&#45;&gt;4</title>
<path fill="none" stroke="red" d="M544.55,-103.46C506.74,-103.82 433.55,-103.21 372,-95 369.26,-94.63 366.41,-94.15 363.58,-93.61"/>
<polygon fill="red" stroke="red" points="364.13,-90.15 353.62,-91.46 362.66,-96.99 364.13,-90.15"/>
<text text-anchor="middle" x="449" y="-105.8" font-family="Helvetica,sans-Serif" font-size="14.00" fill="red">5</text>
</g>
<!-- 7 -->
<g id="node8" class="node">
<title>7</title>
<polygon fill="none" stroke="red" points="671,-83 644,-65 671,-47 698,-65 671,-83"/>
<text text-anchor="middle" x="671" y="-61.3" font-family="Helvetica,sans-Serif" font-size="14.00">7</text>
</g>
<!-- 5&#45;&gt;7 -->
<g id="edge10" class="edge">
<title>5&#45;&gt;7</title>
<path fill="none" stroke="red" d="M588.62,-96.55C603.69,-90.71 626.14,-82.01 643.65,-75.22"/>
<polygon fill="red" stroke="red" points="645.24,-78.36 653.29,-71.48 642.71,-71.83 645.24,-78.36"/>
<text text-anchor="middle" x="621" y="-89.8" font-family="Helvetica,sans-Serif" font-size="14.00" fill="red">1</text>
</g>
<!-- 6&#45;&gt;5 -->
<g id="edge11" class="edge">
<title>6&#45;&gt;5</title>
<path fill="none" stroke="black" d="M466.24,-56.57C481.78,-62.05 505.78,-70.9 526,-80 532.76,-83.04 539.94,-86.64 546.5,-90.07"/>
<polygon fill="black" stroke="black" points="545.08,-93.28 555.55,-94.9 548.37,-87.1 545.08,-93.28"/>
<text text-anchor="middle" x="505.5" y="-83.8" font-family="Helvetica,sans-Serif" font-size="14.00">0.616</text>
</g>
<!-- 8 -->
<g id="node9" class="node">
<title>8</title>
<ellipse fill="none" stroke="black" cx="864.5" cy="-50" rx="18" ry="18"/>
<text text-anchor="middle" x="864.5" y="-46.3" font-family="Helvetica,sans-Serif" font-size="14.00">8</text>
</g>
<!-- 6&#45;&gt;8 -->
<g id="edge12" class="edge">
<title>6&#45;&gt;8</title>
<path fill="none" stroke="black" d="M463.96,-40.68C485.53,-25.78 528.8,0 570,0 570,0 570,0 772,0 799.07,0 825.73,-17.06 843.23,-31.25"/>
<polygon fill="black" stroke="black" points="841.16,-34.08 851.05,-37.9 845.7,-28.75 841.16,-34.08"/>
<text text-anchor="middle" x="671" y="-3.8" font-family="Helvetica,sans-Serif" font-size="14.00">0.384</text>
</g>
<!-- 7&#45;&gt;6 -->
<g id="edge13" class="edge">
<title>7&#45;&gt;6</title>
<path fill="none" stroke="red" d="M645.97,-63.47C604.74,-60.85 520.8,-55.51 477.38,-52.74"/>
<polygon fill="red" stroke="red" points="477.47,-49.24 467.26,-52.1 477.02,-56.23 477.47,-49.24"/>
<text text-anchor="middle" x="571" y="-64.8" font-family="Helvetica,sans-Serif" font-size="14.00" fill="red">2</text>
</g>
<!-- 9 -->
<g id="node10" class="node">
<title>9</title>
<polygon fill="none" stroke="red" points="771,-121 744,-103 771,-85 798,-103 771,-121"/>
<text text-anchor="middle" x="771" y="-99.3" font-family="Helvetica,sans-Serif" font-size="14.00">9</text>
</g>
<!-- 7&#45;&gt;9 -->
<g id="edge14" class="edge">
<title>7&#45;&gt;9</title>
<path fill="none" stroke="red" d="M688.62,-71.45C703.69,-77.29 726.14,-85.99 743.65,-92.78"/>
<polygon fill="red" stroke="red" points="742.71,-96.17 753.29,-96.52 745.24,-89.64 742.71,-96.17"/>
<text text-anchor="middle" x="721" y="-89.8" font-family="Helvetica,sans-Serif" font-size="14.00" fill="red">2</text>
</g>
<!-- 8&#45;&gt;7 -->
<g id="edge15" class="edge">
<title>8&#45;&gt;7</title>
<path fill="none" stroke="black" d="M846.33,-51.35C814.68,-53.82 746.65,-59.15 705.56,-62.37"/>
<polygon fill="black" stroke="black" points="705.18,-58.89 695.48,-63.16 705.72,-65.87 705.18,-58.89"/>
<text text-anchor="middle" x="771" y="-63.8" font-family="Helvetica,sans-Serif" font-size="14.00">0.752</text>
</g>
<!-- 10 -->
<g id="node11" class="node">
<title>10</title>
<ellipse fill="none" stroke="black" cx="984.75" cy="-81" rx="23" ry="23"/>
<text text-anchor="middle" x="984.75" y="-77.3" font-family="Helvetica,sans-Serif" font-size="14.00">10</text>
</g>
<!-- 8&#45;&gt;10 -->
<g id="edge16" class="edge">
<title>8&#45;&gt;10</title>
<path fill="none" stroke="black" d="M882.19,-54.38C900.41,-59.15 929.99,-66.91 952.54,-72.82"/>
<polygon fill="black" stroke="black" points="951.78,-76.24 962.34,-75.39 953.55,-69.47 951.78,-76.24"/>
<text text-anchor="middle" x="923.5" y="-74.8" font-family="Helvetica,sans-Serif" font-size="14.00">0.248</text>
</g>
<!-- 9&#45;&gt;8 -->
<g id="edge17" class="edge">
<title>9&#45;&gt;8</title>
<path fill="none" stroke="red" d="M786.3,-94.72C800.55,-86.46 822.69,-73.64 839.61,-63.84"/>
<polygon fill="red" stroke="red" points="841.49,-66.79 848.39,-58.75 837.98,-60.74 841.49,-66.79"/>
<text text-anchor="middle" x="821" y="-80.8" font-family="Helvetica,sans-Serif" font-size="14.00" fill="red">1</text>
</g>
<!-- 11 -->
<g id="node12" class="node">
<title>11</title>
<polygon fill="none" stroke="red" points="1239.16,-121 1206.82,-103 1239.16,-85 1271.5,-103 1239.16,-121"/>
<text text-anchor="middle" x="1239.16" y="-99.3" font-family="Helvetica,sans-Serif" font-size="14.00">11</text>
</g>
<!-- 9&#45;&gt;11 -->
<g id="edge18" class="edge">
<title>9&#45;&gt;11</title>
<path fill="none" stroke="red" d="M782.83,-113.39C799.01,-127.78 831.06,-152 863.5,-152 863.5,-152 863.5,-152 1108.24,-152 1147.57,-152 1189.54,-132.1 1214.81,-117.66"/>
<polygon fill="red" stroke="red" points="1216.81,-120.55 1223.64,-112.45 1213.25,-114.52 1216.81,-120.55"/>
<text text-anchor="middle" x="984.75" y="-155.8" font-family="Helvetica,sans-Serif" font-size="14.00" fill="red">1</text>
</g>
<!-- 10&#45;&gt;9 -->
<g id="edge19" class="edge">
<title>10&#45;&gt;9</title>
<path fill="none" stroke="black" d="M962.4,-86.44C956.48,-87.78 950.02,-89.1 944,-90 896.9,-97.07 841.93,-100.38 807.06,-101.86"/>
<polygon fill="black" stroke="black" points="806.76,-98.37 796.91,-102.27 807.04,-105.37 806.76,-98.37"/>
<text text-anchor="middle" x="864.5" y="-102.8" font-family="Helvetica,sans-Serif" font-size="14.00">0.641</text>
</g>
<!-- 12 -->
<g id="node13" class="node">
<title>12</title>
<ellipse fill="none" stroke="black" cx="1107.24" cy="-48" rx="23" ry="23"/>
<text text-anchor="middle" x="1107.24" y="-44.3" font-family="Helvetica,sans-Serif" font-size="14.00">12</text>
</g>
<!-- 10&#45;&gt;12 -->
<g id="edge20" class="edge">
<title>10&#45;&gt;12</title>
<path fill="none" stroke="black" d="M1007.01,-75.18C1025.94,-69.99 1053.87,-62.34 1075.27,-56.48"/>
<polygon fill="black" stroke="black" points="1076.47,-59.78 1085.19,-53.77 1074.62,-53.03 1076.47,-59.78"/>
<text text-anchor="middle" x="1046" y="-73.8" font-family="Helvetica,sans-Serif" font-size="14.00">0.359</text>
</g>
<!-- 11&#45;&gt;10 -->
<g id="edge21" class="edge">
<title>11&#45;&gt;10</title>
<path fill="none" stroke="red" d="M1208.1,-102.28C1166.79,-101 1090.23,-97.61 1025.5,-89 1022.78,-88.64 1019.96,-88.2 1017.15,-87.72"/>
<polygon fill="red" stroke="red" points="1017.59,-84.24 1007.11,-85.84 1016.3,-91.12 1017.59,-84.24"/>
<text text-anchor="middle" x="1107.24" y="-102.8" font-family="Helvetica,sans-Serif" font-size="14.00" fill="red">1</text>
</g>
<!-- 13 -->
<g id="node14" class="node">
<title>13</title>
<polygon fill="none" stroke="red" points="1349.5,-108 1317.16,-90 1349.5,-72 1381.85,-90 1349.5,-108"/>
<text text-anchor="middle" x="1349.5" y="-86.3" font-family="Helvetica,sans-Serif" font-size="14.00">13</text>
</g>
<!-- 11&#45;&gt;13 -->
<g id="edge22" class="edge">
<title>11&#45;&gt;13</title>
<path fill="none" stroke="red" d="M1266.11,-99.89C1279.95,-98.23 1297.19,-96.16 1312.32,-94.34"/>
<polygon fill="red" stroke="red" points="1312.88,-97.8 1322.39,-93.13 1312.04,-90.85 1312.88,-97.8"/>
<text text-anchor="middle" x="1294.33" y="-100.8" font-family="Helvetica,sans-Serif" font-size="14.00" fill="red">1</text>
</g>
<!-- 12&#45;&gt;11 -->
<g id="edge23" class="edge">
<title>12&#45;&gt;11</title>
<path fill="none" stroke="black" d="M1128.96,-55.82C1145.36,-62.09 1168.78,-71.28 1188.99,-80 1196.37,-83.18 1204.28,-86.8 1211.56,-90.2"/>
<polygon fill="black" stroke="black" points="1210.45,-93.55 1220.98,-94.65 1213.44,-87.22 1210.45,-93.55"/>
<text text-anchor="middle" x="1168.49" y="-83.8" font-family="Helvetica,sans-Serif" font-size="14.00">0.228</text>
</g>
<!-- 14 -->
<g id="node15" class="node">
<title>14</title>
<ellipse fill="none" stroke="black" cx="1591.76" cy="-58" rx="23" ry="23"/>
<text text-anchor="middle" x="1591.76" y="-54.3" font-family="Helvetica,sans-Serif" font-size="14.00">14</text>
</g>
<!-- 12&#45;&gt;14 -->
<g id="edge24" class="edge">
<title>12&#45;&gt;14</title>
<path fill="none" stroke="black" d="M1126.82,-36.38C1151.34,-22.17 1196.32,0 1238.16,0 1238.16,0 1238.16,0 1460.84,0 1499.73,0 1539.93,-21.94 1565.11,-38.83"/>
<polygon fill="black" stroke="black" points="1563.15,-41.73 1573.37,-44.55 1567.14,-35.98 1563.15,-41.73"/>
<text text-anchor="middle" x="1349.5" y="-3.8" font-family="Helvetica,sans-Serif" font-size="14.00">0.772</text>
</g>
<!-- 13&#45;&gt;12 -->
<g id="edge25" class="edge">
<title>13&#45;&gt;12</title>
<path fill="none" stroke="red" d="M1331.46,-82.01C1316.1,-75.2 1292.71,-65.77 1271.33,-61 1226.56,-51.01 1173.36,-48.45 1140.19,-47.92"/>
<polygon fill="red" stroke="red" points="1140.2,-44.42 1130.16,-47.82 1140.13,-51.42 1140.2,-44.42"/>
<text text-anchor="middle" x="1239.16" y="-64.8" font-family="Helvetica,sans-Serif" font-size="14.00" fill="red">4</text>
</g>
<!-- 15 -->
<g id="node16" class="node">
<title>15</title>
<polygon fill="none" stroke="red" points="1459.84,-64 1427.5,-46 1459.84,-28 1492.19,-46 1459.84,-64"/>
<text text-anchor="middle" x="1459.84" y="-42.3" font-family="Helvetica,sans-Serif" font-size="14.00">15</text>
</g>
<!-- 13&#45;&gt;15 -->
<g id="edge26" class="edge">
<title>13&#45;&gt;15</title>
<path fill="none" stroke="red" d="M1368.88,-82.54C1385.93,-75.61 1411.52,-65.22 1431.06,-57.28"/>
<polygon fill="red" stroke="red" points="1432.43,-60.51 1440.38,-53.5 1429.79,-54.02 1432.43,-60.51"/>
<text text-anchor="middle" x="1404.67" y="-73.8" font-family="Helvetica,sans-Serif" font-size="14.00" fill="red">3</text>
</g>
<!-- 14&#45;&gt;13 -->
<g id="edge27" class="edge">
<title>14&#45;&gt;13</title>
<path fill="none" stroke="black" d="M1572.42,-70.08C1553.27,-81.91 1521.92,-99.12 1492.01,-106 1454.03,-114.74 1409.17,-106.65 1380.3,-99.14"/>
<polygon fill="black" stroke="black" points="1381,-95.71 1370.43,-96.43 1379.15,-102.46 1381,-95.71"/>
<text text-anchor="middle" x="1459.84" y="-112.8" font-family="Helvetica,sans-Serif" font-size="14.00">0.471</text>
</g>
<!-- 14&#45;&gt;15 -->
<g id="edge28" class="edge">
<title>14&#45;&gt;15</title>
<path fill="none" stroke="black" d="M1568.77,-58.04C1552.5,-57.85 1529.82,-57.17 1510.01,-55 1504.76,-54.42 1499.22,-53.61 1493.83,-52.71"/>
<polygon fill="black" stroke="black" points="1494.22,-49.22 1483.76,-50.9 1492.98,-56.11 1494.22,-49.22"/>
<text text-anchor="middle" x="1530.51" y="-61.8" font-family="Helvetica,sans-Serif" font-size="14.00">0.529</text>
</g>
<!-- 15&#45;&gt;14 -->
<g id="edge30" class="edge">
<title>15&#45;&gt;14</title>
<path fill="none" stroke="red" d="M1481.2,-39.61C1499.67,-34.79 1527.53,-29.93 1551.01,-36 1555.22,-37.09 1559.46,-38.73 1563.53,-40.63"/>
<polygon fill="red" stroke="red" points="1562.11,-43.84 1572.58,-45.41 1565.37,-37.65 1562.11,-43.84"/>
<text text-anchor="middle" x="1530.51" y="-39.8" font-family="Helvetica,sans-Serif" font-size="14.00" fill="red">5</text>
</g>
<!-- 15&#45;&gt;15 -->
<g id="edge31" class="edge">
<title>15&#45;&gt;15</title>
<path fill="none" stroke="red" d="M1451.26,-59.29C1447.6,-70.4 1450.46,-82 1459.84,-82 1466.3,-82 1469.67,-76.52 1469.95,-69.48"/>
<polygon fill="red" stroke="red" points="1473.37,-68.66 1468.42,-59.29 1466.44,-69.7 1473.37,-68.66"/>
<text text-anchor="middle" x="1459.84" y="-85.8" font-family="Helvetica,sans-Serif" font-size="14.00" fill="red">2</text>
</g>
<!-- 15i -->
<g id="node17" class="node">
<title>15i</title>
<ellipse fill="red" stroke="red" cx="1349.5" cy="-46" rx="1.8" ry="1.8"/>
</g>
<!-- 15i&#45;&gt;15 -->
<g id="edge29" class="edge">
<title>15i&#45;&gt;15</title>
<path fill="none" stroke="red" d="M1351.72,-46C1358.28,-46 1390.1,-46 1417.38,-46"/>
<polygon fill="red" stroke="red" points="1417.54,-49.5 1427.54,-46 1417.54,-42.5 1417.54,-49.5"/>
</g>
</g>
</svg>
