<?xml version="1.0" encoding="UTF-8" standalone="no"?>
<!DOCTYPE svg PUBLIC "-//W3C//DTD SVG 1.1//EN"
 "http://www.w3.org/Graphics/SVG/1.1/DTD/svg11.dtd">
<!-- Generated by graphviz version 2.43.0 (0)
 -->
<!-- Title: EMDP Pages: 1 -->
<svg width="651pt" height="183pt"
 viewBox="0.00 0.00 651.28 182.62" xmlns="http://www.w3.org/2000/svg" xmlns:xlink="http://www.w3.org/1999/xlink">
<g id="graph0" class="graph" transform="scale(1 1) rotate(0) translate(4 178.62)">
<title>EMDP</title>
<polygon fill="white" stroke="transparent" points="-4,4 -4,-178.62 647.28,-178.62 647.28,4 -4,4"/>
<!-- 0 -->
<g id="node1" class="node">
<title>0</title>
<polygon fill="none" stroke="red" points="45,-147.8 0,-109.8 45,-71.8 90,-109.8 45,-147.8"/>
<text text-anchor="middle" x="45" y="-113.6" font-family="Helvetica,sans-Serif" font-size="14.00">0</text>
<text text-anchor="middle" x="45" y="-98.6" font-family="Helvetica,sans-Serif" font-size="14.00">(11)</text>
</g>
<!-- 2 -->
<g id="node2" class="node">
<title>2</title>
<polygon fill="none" stroke="red" points="181,-110.8 136,-72.8 181,-34.8 226,-72.8 181,-110.8"/>
<text text-anchor="middle" x="181" y="-76.6" font-family="Helvetica,sans-Serif" font-size="14.00">2</text>
<text text-anchor="middle" x="181" y="-61.6" font-family="Helvetica,sans-Serif" font-size="14.00">(13)</text>
</g>
<!-- 0&#45;&gt;2 -->
<g id="edge1" class="edge">
<title>0&#45;&gt;2</title>
<path fill="none" stroke="red" d="M79.47,-100.56C96.82,-95.77 118.2,-89.86 136.79,-84.73"/>
<polygon fill="red" stroke="red" points="137.79,-88.09 146.49,-82.05 135.92,-81.34 137.79,-88.09"/>
<text text-anchor="middle" x="113" y="-96.6" font-family="Helvetica,sans-Serif" font-size="14.00" fill="red">1</text>
</g>
<!-- 1 -->
<g id="node3" class="node">
<title>1</title>
<ellipse fill="none" stroke="black" cx="303.82" cy="-142.8" rx="31.64" ry="31.64"/>
<text text-anchor="middle" x="303.82" y="-146.6" font-family="Helvetica,sans-Serif" font-size="14.00">1</text>
<text text-anchor="middle" x="303.82" y="-131.6" font-family="Helvetica,sans-Serif" font-size="14.00">(12)</text>
</g>
<!-- 2&#45;&gt;1 -->
<g id="edge4" class="edge">
<title>2&#45;&gt;1</title>
<path fill="none" stroke="red" d="M208.22,-87.99C225.39,-97.94 248.07,-111.08 266.92,-122"/>
<polygon fill="red" stroke="red" points="265.41,-125.17 275.82,-127.16 268.92,-119.11 265.41,-125.17"/>
<text text-anchor="middle" x="249" y="-118.6" font-family="Helvetica,sans-Serif" font-size="14.00" fill="red">4</text>
</g>
<!-- 4 -->
<g id="node5" class="node">
<title>4</title>
<polygon fill="none" stroke="red" points="598.28,-85.8 553.28,-47.8 598.28,-9.8 643.28,-47.8 598.28,-85.8"/>
<text text-anchor="middle" x="598.28" y="-51.6" font-family="Helvetica,sans-Serif" font-size="14.00">4</text>
<text text-anchor="middle" x="598.28" y="-36.6" font-family="Helvetica,sans-Serif" font-size="14.00">(15)</text>
</g>
<!-- 2&#45;&gt;4 -->
<g id="edge5" class="edge">
<title>2&#45;&gt;4</title>
<path fill="none" stroke="red" d="M221.38,-68.63C280.54,-62.6 395.91,-51.73 494.28,-47.8 510.4,-47.16 527.96,-46.97 543.93,-46.99"/>
<polygon fill="red" stroke="red" points="544.15,-50.49 554.17,-47.03 544.18,-43.49 544.15,-50.49"/>
<text text-anchor="middle" x="374.14" y="-60.6" font-family="Helvetica,sans-Serif" font-size="14.00" fill="red">3</text>
</g>
<!-- 1&#45;&gt;0 -->
<g id="edge2" class="edge">
<title>1&#45;&gt;0</title>
<path fill="none" stroke="black" d="M272.17,-138.86C228.18,-133.21 146.69,-122.74 94.48,-116.03"/>
<polygon fill="black" stroke="black" points="94.81,-112.54 84.45,-114.74 93.92,-119.49 94.81,-112.54"/>
<text text-anchor="middle" x="181" y="-136.6" font-family="Helvetica,sans-Serif" font-size="14.00">0.228</text>
</g>
<!-- 3 -->
<g id="node4" class="node">
<title>3</title>
<ellipse fill="none" stroke="black" cx="444.46" cy="-97.8" rx="31.64" ry="31.64"/>
<text text-anchor="middle" x="444.46" y="-101.6" font-family="Helvetica,sans-Serif" font-size="14.00">3</text>
<text text-anchor="middle" x="444.46" y="-86.6" font-family="Helvetica,sans-Serif" font-size="14.00">(14)</text>
</g>
<!-- 1&#45;&gt;3 -->
<g id="edge3" class="edge">
<title>1&#45;&gt;3</title>
<path fill="none" stroke="black" d="M334.22,-133.26C354.72,-126.6 382.27,-117.66 404.58,-110.42"/>
<polygon fill="black" stroke="black" points="405.67,-113.75 414.1,-107.33 403.51,-107.09 405.67,-113.75"/>
<text text-anchor="middle" x="374.14" y="-129.6" font-family="Helvetica,sans-Serif" font-size="14.00">0.772</text>
</g>
<!-- 3&#45;&gt;2 -->
<g id="edge6" class="edge">
<title>3&#45;&gt;2</title>
<path fill="none" stroke="black" d="M412.79,-94.58C391.22,-92.34 361.67,-89.31 335.64,-86.8 301.18,-83.47 262.35,-79.94 232.35,-77.25"/>
<polygon fill="black" stroke="black" points="232.4,-73.74 222.12,-76.34 231.77,-80.71 232.4,-73.74"/>
<text text-anchor="middle" x="303.82" y="-90.6" font-family="Helvetica,sans-Serif" font-size="14.00">0.471</text>
</g>
<!-- 3&#45;&gt;4 -->
<g id="edge7" class="edge">
<title>3&#45;&gt;4</title>
<path fill="none" stroke="black" d="M476.41,-94.29C494.01,-91.72 516.26,-87.49 535.28,-80.8 544.59,-77.53 554.2,-73.03 563,-68.4"/>
<polygon fill="black" stroke="black" points="564.73,-71.45 571.83,-63.59 561.38,-65.3 564.73,-71.45"/>
<text text-anchor="middle" x="514.78" y="-95.6" font-family="Helvetica,sans-Serif" font-size="14.00">0.529</text>
</g>
<!-- 4&#45;&gt;3 -->
<g id="edge9" class="edge">
<title>4&#45;&gt;3</title>
<path fill="none" stroke="red" d="M554.46,-48.85C535.46,-50.51 513.18,-54.14 494.28,-61.8 488.39,-64.19 482.56,-67.45 477.09,-71.05"/>
<polygon fill="red" stroke="red" points="474.98,-68.25 468.84,-76.89 479.03,-73.97 474.98,-68.25"/>
<text text-anchor="middle" x="514.78" y="-65.6" font-family="Helvetica,sans-Serif" font-size="14.00" fill="red">5</text>
</g>
<!-- 4&#45;&gt;4 -->
<g id="edge10" class="edge">
<title>4&#45;&gt;4</title>
<path fill="none" stroke="red" d="M583.87,-73.72C580.66,-89.22 585.47,-103.8 598.28,-103.8 608.19,-103.8 613.31,-95.08 613.64,-83.95"/>
<polygon fill="red" stroke="red" points="617.1,-83.36 612.69,-73.72 610.13,-84 617.1,-83.36"/>
<text text-anchor="middle" x="598.28" y="-107.6" font-family="Helvetica,sans-Serif" font-size="14.00" fill="red">2</text>
</g>
<!-- 4i -->
<g id="node6" class="node">
<title>4i</title>
<ellipse fill="red" stroke="red" cx="444.46" cy="-1.8" rx="1.8" ry="1.8"/>
</g>
<!-- 4i&#45;&gt;4 -->
<g id="edge8" class="edge">
<title>4i&#45;&gt;4</title>
<path fill="none" stroke="red" d="M446.37,-1.87C453.39,-2.4 499.72,-6.27 535.28,-17.8 544.04,-20.64 553.14,-24.49 561.58,-28.48"/>
<polygon fill="red" stroke="red" points="560.27,-31.73 570.78,-33 563.35,-25.45 560.27,-31.73"/>
</g>
</g>
</svg>
