<?xml version="1.0" encoding="UTF-8" standalone="no"?>
<!DOCTYPE svg PUBLIC "-//W3C//DTD SVG 1.1//EN"
 "http://www.w3.org/Graphics/SVG/1.1/DTD/svg11.dtd">
<!-- Generated by graphviz version 2.43.0 (0)
 -->
<!-- Title: EMDP Pages: 1 -->
<svg width="534pt" height="228pt"
 viewBox="0.00 0.00 533.60 228.00" xmlns="http://www.w3.org/2000/svg" xmlns:xlink="http://www.w3.org/1999/xlink">
<g id="graph0" class="graph" transform="scale(1 1) rotate(0) translate(4 224)">
<title>EMDP</title>
<polygon fill="white" stroke="transparent" points="-4,4 -4,-224 529.6,-224 529.6,4 -4,4"/>
<!-- 0 -->
<g id="node1" class="node">
<title>0</title>
<polygon fill="none" stroke="red" points="67.6,-69 40.6,-51 67.6,-33 94.6,-51 67.6,-69"/>
<text text-anchor="middle" x="67.6" y="-47.3" font-family="Helvetica,sans-Serif" font-size="14.00">0</text>
</g>
<!-- 1 -->
<g id="node3" class="node">
<title>1</title>
<polygon fill="none" stroke="red" points="167.6,-183 140.6,-165 167.6,-147 194.6,-165 167.6,-183"/>
<text text-anchor="middle" x="167.6" y="-161.3" font-family="Helvetica,sans-Serif" font-size="14.00">1</text>
</g>
<!-- 0&#45;&gt;1 -->
<g id="edge2" class="edge">
<title>0&#45;&gt;1</title>
<path fill="none" stroke="red" d="M78.35,-62.35C95.16,-81.89 129.73,-122.11 150.26,-145.99"/>
<polygon fill="red" stroke="red" points="147.71,-148.4 156.88,-153.7 153.02,-143.83 147.71,-148.4"/>
<text text-anchor="middle" x="117.6" y="-114.8" font-family="Helvetica,sans-Serif" font-size="14.00" fill="red">2</text>
</g>
<!-- 2 -->
<g id="node4" class="node">
<title>2</title>
<polygon fill="none" stroke="red" points="167.6,-97 140.6,-79 167.6,-61 194.6,-79 167.6,-97"/>
<text text-anchor="middle" x="167.6" y="-75.3" font-family="Helvetica,sans-Serif" font-size="14.00">2</text>
</g>
<!-- 0&#45;&gt;2 -->
<g id="edge3" class="edge">
<title>0&#45;&gt;2</title>
<path fill="none" stroke="red" d="M91.33,-48.79C101.13,-48.5 112.61,-49.08 122.6,-52 130.95,-54.44 139.29,-58.91 146.43,-63.52"/>
<polygon fill="red" stroke="red" points="144.53,-66.46 154.74,-69.29 148.52,-60.71 144.53,-66.46"/>
<text text-anchor="middle" x="117.6" y="-55.8" font-family="Helvetica,sans-Serif" font-size="14.00" fill="red">0</text>
</g>
<!-- 4 -->
<g id="node5" class="node">
<title>4</title>
<ellipse fill="none" stroke="black" cx="272.6" cy="-18" rx="18" ry="18"/>
<text text-anchor="middle" x="272.6" y="-14.3" font-family="Helvetica,sans-Serif" font-size="14.00">4</text>
</g>
<!-- 0&#45;&gt;4 -->
<g id="edge4" class="edge">
<title>0&#45;&gt;4</title>
<path fill="none" stroke="green" d="M88.73,-46.82C103.14,-43.89 123.02,-39.98 140.6,-37 176.44,-30.92 218.02,-25.1 244.55,-21.54"/>
<polygon fill="green" stroke="green" points="245.15,-24.99 254.6,-20.2 244.23,-18.05 245.15,-24.99"/>
<text text-anchor="middle" x="167.6" y="-40.8" font-family="Helvetica,sans-Serif" font-size="14.00" fill="green">&#45;1</text>
</g>
<!-- 0i -->
<g id="node2" class="node">
<title>0i</title>
<ellipse fill="red" stroke="red" cx="1.8" cy="-51" rx="1.8" ry="1.8"/>
</g>
<!-- 0i&#45;&gt;0 -->
<g id="edge1" class="edge">
<title>0i&#45;&gt;0</title>
<path fill="none" stroke="red" d="M3.91,-51C7.37,-51 18.49,-51 30.42,-51"/>
<polygon fill="red" stroke="red" points="30.48,-54.5 40.48,-51 30.48,-47.5 30.48,-54.5"/>
</g>
<!-- 3 -->
<g id="node6" class="node">
<title>3</title>
<polygon fill="none" stroke="red" points="272.6,-152 245.6,-134 272.6,-116 299.6,-134 272.6,-152"/>
<text text-anchor="middle" x="272.6" y="-130.3" font-family="Helvetica,sans-Serif" font-size="14.00">3</text>
</g>
<!-- 1&#45;&gt;3 -->
<g id="edge5" class="edge">
<title>1&#45;&gt;3</title>
<path fill="none" stroke="red" d="M186.54,-159.6C202.32,-154.85 225.55,-147.86 243.74,-142.38"/>
<polygon fill="red" stroke="red" points="244.95,-145.68 253.52,-139.44 242.93,-138.97 244.95,-145.68"/>
<text text-anchor="middle" x="220.1" y="-154.8" font-family="Helvetica,sans-Serif" font-size="14.00" fill="red">0</text>
</g>
<!-- 5 -->
<g id="node7" class="node">
<title>5</title>
<ellipse fill="none" stroke="black" cx="385.6" cy="-195" rx="18" ry="18"/>
<text text-anchor="middle" x="385.6" y="-191.3" font-family="Helvetica,sans-Serif" font-size="14.00">5</text>
</g>
<!-- 1&#45;&gt;5 -->
<g id="edge6" class="edge">
<title>1&#45;&gt;5</title>
<path fill="none" stroke="green" d="M190.5,-168.04C230.25,-173.56 314.15,-185.21 357.46,-191.23"/>
<polygon fill="green" stroke="green" points="357.16,-194.72 367.54,-192.63 358.12,-187.79 357.16,-194.72"/>
<text text-anchor="middle" x="272.6" y="-185.8" font-family="Helvetica,sans-Serif" font-size="14.00" fill="green">&#45;1</text>
</g>
<!-- 2&#45;&gt;0 -->
<g id="edge7" class="edge">
<title>2&#45;&gt;0</title>
<path fill="none" stroke="red" d="M146.18,-75.12C136.01,-73.02 123.57,-70.2 112.6,-67 106.7,-65.28 100.45,-63.18 94.57,-61.08"/>
<polygon fill="red" stroke="red" points="95.74,-57.78 85.15,-57.59 93.31,-64.34 95.74,-57.78"/>
<text text-anchor="middle" x="117.6" y="-73.8" font-family="Helvetica,sans-Serif" font-size="14.00" fill="red">0</text>
</g>
<!-- 2&#45;&gt;4 -->
<g id="edge9" class="edge">
<title>2&#45;&gt;4</title>
<path fill="none" stroke="green" d="M182.49,-70.77C199.25,-60.85 227.7,-44 247.94,-32.01"/>
<polygon fill="green" stroke="green" points="249.77,-34.99 256.6,-26.89 246.21,-28.97 249.77,-34.99"/>
<text text-anchor="middle" x="220.1" y="-56.8" font-family="Helvetica,sans-Serif" font-size="14.00" fill="green">&#45;1</text>
</g>
<!-- 2&#45;&gt;3 -->
<g id="edge8" class="edge">
<title>2&#45;&gt;3</title>
<path fill="none" stroke="red" d="M184.67,-85.64C196.7,-90.78 213.45,-98.31 227.6,-106 235.21,-110.14 243.27,-115.09 250.39,-119.67"/>
<polygon fill="red" stroke="red" points="248.51,-122.63 258.79,-125.19 252.35,-116.77 248.51,-122.63"/>
<text text-anchor="middle" x="220.1" y="-109.8" font-family="Helvetica,sans-Serif" font-size="14.00" fill="red">5</text>
</g>
<!-- 4&#45;&gt;0 -->
<g id="edge12" class="edge">
<title>4&#45;&gt;0</title>
<path fill="none" stroke="black" d="M254.72,-13.62C229.45,-7.81 180.47,0.56 140.6,-10 121.89,-14.95 102.96,-26.02 89.21,-35.41"/>
<polygon fill="black" stroke="black" points="87.1,-32.62 80.98,-41.26 91.16,-38.32 87.1,-32.62"/>
<text text-anchor="middle" x="167.6" y="-13.8" font-family="Helvetica,sans-Serif" font-size="14.00">0.8</text>
</g>
<!-- 6 -->
<g id="node8" class="node">
<title>6</title>
<polygon fill="none" stroke="red" points="385.6,-36 358.6,-18 385.6,0 412.6,-18 385.6,-36"/>
<text text-anchor="middle" x="385.6" y="-14.3" font-family="Helvetica,sans-Serif" font-size="14.00">6</text>
</g>
<!-- 4&#45;&gt;6 -->
<g id="edge13" class="edge">
<title>4&#45;&gt;6</title>
<path fill="none" stroke="black" d="M290.94,-18C306.17,-18 328.83,-18 348.04,-18"/>
<polygon fill="black" stroke="black" points="348.29,-21.5 358.29,-18 348.29,-14.5 348.29,-21.5"/>
<text text-anchor="middle" x="329.1" y="-21.8" font-family="Helvetica,sans-Serif" font-size="14.00">0.2</text>
</g>
<!-- 3&#45;&gt;1 -->
<g id="edge10" class="edge">
<title>3&#45;&gt;1</title>
<path fill="none" stroke="red" d="M254.06,-128.25C242.05,-125.26 225.95,-123.13 212.6,-128 202.41,-131.72 192.94,-138.95 185.42,-146.04"/>
<polygon fill="red" stroke="red" points="182.59,-143.92 178.08,-153.5 187.58,-148.83 182.59,-143.92"/>
<text text-anchor="middle" x="220.1" y="-131.8" font-family="Helvetica,sans-Serif" font-size="14.00" fill="red">0</text>
</g>
<!-- 3&#45;&gt;5 -->
<g id="edge11" class="edge">
<title>3&#45;&gt;5</title>
<path fill="none" stroke="green" d="M289.61,-140.9C303.39,-147.01 323.65,-156.43 340.6,-166 347.61,-169.96 355,-174.62 361.68,-179.04"/>
<polygon fill="green" stroke="green" points="360,-182.13 370.25,-184.82 363.91,-176.33 360,-182.13"/>
<text text-anchor="middle" x="329.1" y="-169.8" font-family="Helvetica,sans-Serif" font-size="14.00" fill="green">&#45;1</text>
</g>
<!-- 5&#45;&gt;1 -->
<g id="edge14" class="edge">
<title>5&#45;&gt;1</title>
<path fill="none" stroke="black" d="M367.68,-198.47C341.27,-203.27 288.8,-210.36 245.6,-201 226.2,-196.8 205.92,-187.07 191.05,-178.78"/>
<polygon fill="black" stroke="black" points="192.53,-175.6 182.12,-173.62 189.03,-181.66 192.53,-175.6"/>
<text text-anchor="middle" x="272.6" y="-208.8" font-family="Helvetica,sans-Serif" font-size="14.00">0.8</text>
</g>
<!-- 7 -->
<g id="node9" class="node">
<title>7</title>
<polygon fill="none" stroke="red" points="498.6,-213 471.6,-195 498.6,-177 525.6,-195 498.6,-213"/>
<text text-anchor="middle" x="498.6" y="-191.3" font-family="Helvetica,sans-Serif" font-size="14.00">7</text>
</g>
<!-- 5&#45;&gt;7 -->
<g id="edge15" class="edge">
<title>5&#45;&gt;7</title>
<path fill="none" stroke="black" d="M403.94,-195C419.17,-195 441.83,-195 461.04,-195"/>
<polygon fill="black" stroke="black" points="461.29,-198.5 471.29,-195 461.29,-191.5 461.29,-198.5"/>
<text text-anchor="middle" x="442.1" y="-198.8" font-family="Helvetica,sans-Serif" font-size="14.00">0.2</text>
</g>
</g>
</svg>
