<?xml version="1.0" encoding="UTF-8" standalone="no"?>
<!DOCTYPE svg PUBLIC "-//W3C//DTD SVG 1.1//EN"
 "http://www.w3.org/Graphics/SVG/1.1/DTD/svg11.dtd">
<!-- Generated by graphviz version 2.43.0 (0)
 -->
<!-- Title: EMDP Pages: 1 -->
<svg width="1313pt" height="632pt"
 viewBox="0.00 0.00 1312.96 632.00" xmlns="http://www.w3.org/2000/svg" xmlns:xlink="http://www.w3.org/1999/xlink">
<g id="graph0" class="graph" transform="scale(1 1) rotate(0) translate(4 628)">
<title>EMDP</title>
<polygon fill="white" stroke="transparent" points="-4,4 -4,-628 1308.96,-628 1308.96,4 -4,4"/>
<!-- 0 -->
<g id="node1" class="node">
<title>0</title>
<polygon fill="none" stroke="red" points="67.6,-176 40.6,-158 67.6,-140 94.6,-158 67.6,-176"/>
<text text-anchor="middle" x="67.6" y="-154.3" font-family="Helvetica,sans-Serif" font-size="14.00">0</text>
</g>
<!-- 1 -->
<g id="node3" class="node">
<title>1</title>
<ellipse fill="none" stroke="black" cx="171.6" cy="-248" rx="18" ry="18"/>
<text text-anchor="middle" x="171.6" y="-244.3" font-family="Helvetica,sans-Serif" font-size="14.00">1</text>
</g>
<!-- 0&#45;&gt;1 -->
<g id="edge2" class="edge">
<title>0&#45;&gt;1</title>
<path fill="none" stroke="red" d="M81.14,-167.07C94.93,-177.24 117.55,-194.48 135.6,-211 141.12,-216.05 146.82,-221.81 151.97,-227.25"/>
<polygon fill="red" stroke="red" points="149.68,-229.93 159.05,-234.89 154.81,-225.17 149.68,-229.93"/>
<text text-anchor="middle" x="124.1" y="-214.8" font-family="Helvetica,sans-Serif" font-size="14.00" fill="red">2</text>
</g>
<!-- 7 -->
<g id="node4" class="node">
<title>7</title>
<polygon fill="none" stroke="red" points="825.11,-157 798.11,-139 825.11,-121 852.11,-139 825.11,-157"/>
<text text-anchor="middle" x="825.11" y="-135.3" font-family="Helvetica,sans-Serif" font-size="14.00">7</text>
</g>
<!-- 0&#45;&gt;7 -->
<g id="edge3" class="edge">
<title>0&#45;&gt;7</title>
<path fill="none" stroke="red" d="M79.13,-147.28C96.52,-130.77 133.07,-101 170.6,-101 170.6,-101 170.6,-101 707.94,-101 741.36,-101 777.63,-115.38 800.59,-126.45"/>
<polygon fill="red" stroke="red" points="799.06,-129.6 809.57,-130.94 802.19,-123.34 799.06,-129.6"/>
<text text-anchor="middle" x="427.1" y="-104.8" font-family="Helvetica,sans-Serif" font-size="14.00" fill="red">0</text>
</g>
<!-- 14 -->
<g id="node5" class="node">
<title>14</title>
<ellipse fill="none" stroke="black" cx="939.03" cy="-51" rx="23" ry="23"/>
<text text-anchor="middle" x="939.03" y="-47.3" font-family="Helvetica,sans-Serif" font-size="14.00">14</text>
</g>
<!-- 0&#45;&gt;14 -->
<g id="edge4" class="edge">
<title>0&#45;&gt;14</title>
<path fill="none" stroke="green" d="M71.06,-142.27C78.28,-102.31 103.34,0 170.6,0 170.6,0 170.6,0 826.11,0 857.83,0 890.42,-17.17 912.19,-31.58"/>
<polygon fill="green" stroke="green" points="910.32,-34.55 920.54,-37.33 914.29,-28.78 910.32,-34.55"/>
<text text-anchor="middle" x="483.6" y="-3.8" font-family="Helvetica,sans-Serif" font-size="14.00" fill="green">&#45;1</text>
</g>
<!-- 0i -->
<g id="node2" class="node">
<title>0i</title>
<ellipse fill="red" stroke="red" cx="1.8" cy="-158" rx="1.8" ry="1.8"/>
</g>
<!-- 0i&#45;&gt;0 -->
<g id="edge1" class="edge">
<title>0i&#45;&gt;0</title>
<path fill="none" stroke="red" d="M3.91,-158C7.37,-158 18.49,-158 30.42,-158"/>
<polygon fill="red" stroke="red" points="30.48,-161.5 40.48,-158 30.48,-154.5 30.48,-161.5"/>
</g>
<!-- 1&#45;&gt;0 -->
<g id="edge5" class="edge">
<title>1&#45;&gt;0</title>
<path fill="none" stroke="black" d="M153.68,-244.58C141.27,-241.41 124.58,-235.68 112.6,-226 97.76,-214.01 86.29,-195.63 78.79,-181"/>
<polygon fill="black" stroke="black" points="81.74,-179.07 74.23,-171.59 75.44,-182.12 81.74,-179.07"/>
<text text-anchor="middle" x="124.1" y="-242.8" font-family="Helvetica,sans-Serif" font-size="14.00">0.3</text>
</g>
<!-- 2 -->
<g id="node6" class="node">
<title>2</title>
<polygon fill="none" stroke="red" points="275.6,-280 248.6,-262 275.6,-244 302.6,-262 275.6,-280"/>
<text text-anchor="middle" x="275.6" y="-258.3" font-family="Helvetica,sans-Serif" font-size="14.00">2</text>
</g>
<!-- 1&#45;&gt;2 -->
<g id="edge6" class="edge">
<title>1&#45;&gt;2</title>
<path fill="none" stroke="black" d="M189.9,-250.37C204.31,-252.35 225.2,-255.22 242.63,-257.61"/>
<polygon fill="black" stroke="black" points="242.56,-261.14 252.95,-259.03 243.52,-254.2 242.56,-261.14"/>
<text text-anchor="middle" x="219.1" y="-259.8" font-family="Helvetica,sans-Serif" font-size="14.00">0.7</text>
</g>
<!-- 7&#45;&gt;0 -->
<g id="edge19" class="edge">
<title>7&#45;&gt;0</title>
<path fill="none" stroke="red" d="M797.81,-139C774.27,-139 738.8,-139 707.94,-139 170.6,-139 170.6,-139 170.6,-139 145.29,-139 117.04,-144.72 96.69,-149.89"/>
<polygon fill="red" stroke="red" points="95.6,-146.56 86.84,-152.5 97.4,-153.32 95.6,-146.56"/>
<text text-anchor="middle" x="427.1" y="-142.8" font-family="Helvetica,sans-Serif" font-size="14.00" fill="red">0</text>
</g>
<!-- 7&#45;&gt;14 -->
<g id="edge21" class="edge">
<title>7&#45;&gt;14</title>
<path fill="none" stroke="green" d="M834.93,-127.19C844.1,-115.47 859.31,-97.51 875.28,-85 885.39,-77.08 897.6,-70 908.55,-64.38"/>
<polygon fill="green" stroke="green" points="910.35,-67.4 917.77,-59.83 907.25,-61.12 910.35,-67.4"/>
<text text-anchor="middle" x="886.78" y="-88.8" font-family="Helvetica,sans-Serif" font-size="14.00" fill="green">&#45;1</text>
</g>
<!-- 8 -->
<g id="node17" class="node">
<title>8</title>
<ellipse fill="none" stroke="black" cx="939.03" cy="-169" rx="18" ry="18"/>
<text text-anchor="middle" x="939.03" y="-165.3" font-family="Helvetica,sans-Serif" font-size="14.00">8</text>
</g>
<!-- 7&#45;&gt;8 -->
<g id="edge20" class="edge">
<title>7&#45;&gt;8</title>
<path fill="none" stroke="red" d="M850.97,-139.88C865.11,-140.93 882.99,-143.18 898.28,-148 903.77,-149.73 909.4,-152.2 914.63,-154.85"/>
<polygon fill="red" stroke="red" points="913.03,-157.97 923.49,-159.68 916.38,-151.82 913.03,-157.97"/>
<text text-anchor="middle" x="886.78" y="-151.8" font-family="Helvetica,sans-Serif" font-size="14.00" fill="red">5</text>
</g>
<!-- 14&#45;&gt;0 -->
<g id="edge36" class="edge">
<title>14&#45;&gt;0</title>
<path fill="none" stroke="black" d="M916.16,-51C893.6,-51 857.39,-51 826.11,-51 170.6,-51 170.6,-51 170.6,-51 124.75,-51 93.21,-103.12 78.35,-134.61"/>
<polygon fill="black" stroke="black" points="75.03,-133.46 74.11,-144.01 81.41,-136.33 75.03,-133.46"/>
<text text-anchor="middle" x="483.6" y="-54.8" font-family="Helvetica,sans-Serif" font-size="14.00">0.8</text>
</g>
<!-- 18 -->
<g id="node20" class="node">
<title>18</title>
<polygon fill="none" stroke="red" points="1052.95,-69 1020.61,-51 1052.95,-33 1085.29,-51 1052.95,-69"/>
<text text-anchor="middle" x="1052.95" y="-47.3" font-family="Helvetica,sans-Serif" font-size="14.00">18</text>
</g>
<!-- 14&#45;&gt;18 -->
<g id="edge37" class="edge">
<title>14&#45;&gt;18</title>
<path fill="none" stroke="black" d="M961.87,-51C975.55,-51 993.61,-51 1009.97,-51"/>
<polygon fill="black" stroke="black" points="1010.42,-54.5 1020.42,-51 1010.42,-47.5 1010.42,-54.5"/>
<text text-anchor="middle" x="991.28" y="-54.8" font-family="Helvetica,sans-Serif" font-size="14.00">0.2</text>
</g>
<!-- 3 -->
<g id="node7" class="node">
<title>3</title>
<ellipse fill="none" stroke="black" cx="379.6" cy="-316" rx="18" ry="18"/>
<text text-anchor="middle" x="379.6" y="-312.3" font-family="Helvetica,sans-Serif" font-size="14.00">3</text>
</g>
<!-- 2&#45;&gt;3 -->
<g id="edge7" class="edge">
<title>2&#45;&gt;3</title>
<path fill="none" stroke="red" d="M295.26,-267.12C309.13,-271.35 328.23,-278.11 343.6,-287 348.64,-289.91 353.68,-293.56 358.3,-297.27"/>
<polygon fill="red" stroke="red" points="356.19,-300.07 366.08,-303.87 360.72,-294.73 356.19,-300.07"/>
<text text-anchor="middle" x="332.1" y="-290.8" font-family="Helvetica,sans-Serif" font-size="14.00" fill="red">2</text>
</g>
<!-- 9 -->
<g id="node8" class="node">
<title>9</title>
<polygon fill="none" stroke="red" points="1052.95,-252 1025.95,-234 1052.95,-216 1079.95,-234 1052.95,-252"/>
<text text-anchor="middle" x="1052.95" y="-230.3" font-family="Helvetica,sans-Serif" font-size="14.00">9</text>
</g>
<!-- 2&#45;&gt;9 -->
<g id="edge8" class="edge">
<title>2&#45;&gt;9</title>
<path fill="none" stroke="red" d="M288.35,-252.49C306.53,-238.76 343.11,-215 378.6,-215 378.6,-215 378.6,-215 940.03,-215 968.78,-215 1001.11,-221.17 1023.6,-226.48"/>
<polygon fill="red" stroke="red" points="1022.95,-229.92 1033.5,-228.91 1024.62,-223.12 1022.95,-229.92"/>
<text text-anchor="middle" x="650.44" y="-218.8" font-family="Helvetica,sans-Serif" font-size="14.00" fill="red">0</text>
</g>
<!-- 15 -->
<g id="node9" class="node">
<title>15</title>
<ellipse fill="none" stroke="black" cx="1158.87" cy="-558" rx="23" ry="23"/>
<text text-anchor="middle" x="1158.87" y="-554.3" font-family="Helvetica,sans-Serif" font-size="14.00">15</text>
</g>
<!-- 2&#45;&gt;15 -->
<g id="edge9" class="edge">
<title>2&#45;&gt;15</title>
<path fill="none" stroke="green" d="M278.59,-278.34C286.6,-340.39 318.95,-558 378.6,-558 378.6,-558 378.6,-558 1053.95,-558 1078.07,-558 1105.34,-558 1125.89,-558"/>
<polygon fill="green" stroke="green" points="1125.97,-561.5 1135.97,-558 1125.97,-554.5 1125.97,-561.5"/>
<text text-anchor="middle" x="706.94" y="-561.8" font-family="Helvetica,sans-Serif" font-size="14.00" fill="green">&#45;1</text>
</g>
<!-- 3&#45;&gt;0 -->
<g id="edge10" class="edge">
<title>3&#45;&gt;0</title>
<path fill="none" stroke="black" d="M361.46,-317.9C314.55,-322.08 182.86,-326.77 112.6,-258 91.77,-237.61 80.09,-205.67 74.09,-183.39"/>
<polygon fill="black" stroke="black" points="77.46,-182.47 71.65,-173.62 70.67,-184.17 77.46,-182.47"/>
<text text-anchor="middle" x="219.1" y="-316.8" font-family="Helvetica,sans-Serif" font-size="14.00">0.3</text>
</g>
<!-- 4 -->
<g id="node10" class="node">
<title>4</title>
<polygon fill="none" stroke="red" points="483.6,-433 456.6,-415 483.6,-397 510.6,-415 483.6,-433"/>
<text text-anchor="middle" x="483.6" y="-411.3" font-family="Helvetica,sans-Serif" font-size="14.00">4</text>
</g>
<!-- 3&#45;&gt;4 -->
<g id="edge11" class="edge">
<title>3&#45;&gt;4</title>
<path fill="none" stroke="black" d="M393.11,-328.14C411.03,-345.54 444.12,-377.66 464.66,-397.58"/>
<polygon fill="black" stroke="black" points="462.24,-400.12 471.85,-404.57 467.11,-395.09 462.24,-400.12"/>
<text text-anchor="middle" x="427.1" y="-374.8" font-family="Helvetica,sans-Serif" font-size="14.00">0.7</text>
</g>
<!-- 9&#45;&gt;2 -->
<g id="edge24" class="edge">
<title>9&#45;&gt;2</title>
<path fill="none" stroke="red" d="M1033.5,-239.09C1011.44,-244.72 973.34,-253 940.03,-253 378.6,-253 378.6,-253 378.6,-253 355.09,-253 328.66,-255.4 308.59,-257.72"/>
<polygon fill="red" stroke="red" points="307.94,-254.28 298.44,-258.95 308.79,-261.22 307.94,-254.28"/>
<text text-anchor="middle" x="650.44" y="-256.8" font-family="Helvetica,sans-Serif" font-size="14.00" fill="red">0</text>
</g>
<!-- 9&#45;&gt;15 -->
<g id="edge26" class="edge">
<title>9&#45;&gt;15</title>
<path fill="none" stroke="green" d="M1058.55,-248.34C1074.24,-297.27 1125.91,-458.36 1147.86,-526.8"/>
<polygon fill="green" stroke="green" points="1144.61,-528.13 1151,-536.58 1151.28,-525.99 1144.61,-528.13"/>
<text text-anchor="middle" x="1110.62" y="-428.8" font-family="Helvetica,sans-Serif" font-size="14.00" fill="green">&#45;1</text>
</g>
<!-- 10 -->
<g id="node18" class="node">
<title>10</title>
<ellipse fill="none" stroke="black" cx="1158.87" cy="-234" rx="23" ry="23"/>
<text text-anchor="middle" x="1158.87" y="-230.3" font-family="Helvetica,sans-Serif" font-size="14.00">10</text>
</g>
<!-- 9&#45;&gt;10 -->
<g id="edge25" class="edge">
<title>9&#45;&gt;10</title>
<path fill="none" stroke="red" d="M1080.17,-234C1094.01,-234 1111.1,-234 1125.73,-234"/>
<polygon fill="red" stroke="red" points="1125.87,-237.5 1135.87,-234 1125.87,-230.5 1125.87,-237.5"/>
<text text-anchor="middle" x="1110.62" y="-237.8" font-family="Helvetica,sans-Serif" font-size="14.00" fill="red">5</text>
</g>
<!-- 15&#45;&gt;2 -->
<g id="edge38" class="edge">
<title>15&#45;&gt;2</title>
<path fill="none" stroke="black" d="M1141.09,-572.21C1121.51,-587.3 1087.51,-609 1053.95,-609 378.6,-609 378.6,-609 378.6,-609 312.03,-609 285.76,-370.97 278.7,-289.2"/>
<polygon fill="black" stroke="black" points="282.15,-288.41 277.83,-278.74 275.17,-288.99 282.15,-288.41"/>
<text text-anchor="middle" x="706.94" y="-612.8" font-family="Helvetica,sans-Serif" font-size="14.00">0.8</text>
</g>
<!-- 19 -->
<g id="node21" class="node">
<title>19</title>
<polygon fill="none" stroke="red" points="1272.79,-576 1240.44,-558 1272.79,-540 1305.13,-558 1272.79,-576"/>
<text text-anchor="middle" x="1272.79" y="-554.3" font-family="Helvetica,sans-Serif" font-size="14.00">19</text>
</g>
<!-- 15&#45;&gt;19 -->
<g id="edge39" class="edge">
<title>15&#45;&gt;19</title>
<path fill="none" stroke="black" d="M1181.71,-558C1195.38,-558 1213.45,-558 1229.81,-558"/>
<polygon fill="black" stroke="black" points="1230.25,-561.5 1240.25,-558 1230.25,-554.5 1230.25,-561.5"/>
<text text-anchor="middle" x="1211.11" y="-561.8" font-family="Helvetica,sans-Serif" font-size="14.00">0.2</text>
</g>
<!-- 16 -->
<g id="node11" class="node">
<title>16</title>
<ellipse fill="none" stroke="black" cx="706.94" cy="-493" rx="23" ry="23"/>
<text text-anchor="middle" x="706.94" y="-489.3" font-family="Helvetica,sans-Serif" font-size="14.00">16</text>
</g>
<!-- 4&#45;&gt;16 -->
<g id="edge12" class="edge">
<title>4&#45;&gt;16</title>
<path fill="none" stroke="green" d="M500.61,-421.89C528.42,-433.7 587.58,-458.17 638.94,-475 650.51,-478.79 663.38,-482.39 674.73,-485.37"/>
<polygon fill="green" stroke="green" points="674.09,-488.81 684.64,-487.91 675.83,-482.03 674.09,-488.81"/>
<text text-anchor="middle" x="588.77" y="-471.8" font-family="Helvetica,sans-Serif" font-size="14.00" fill="green">&#45;1</text>
</g>
<!-- 5 -->
<g id="node12" class="node">
<title>5</title>
<ellipse fill="none" stroke="black" cx="588.77" cy="-356" rx="18" ry="18"/>
<text text-anchor="middle" x="588.77" y="-352.3" font-family="Helvetica,sans-Serif" font-size="14.00">5</text>
</g>
<!-- 4&#45;&gt;5 -->
<g id="edge13" class="edge">
<title>4&#45;&gt;5</title>
<path fill="none" stroke="red" d="M494.93,-404.08C503.34,-395.73 515.86,-384.41 528.6,-377 538.81,-371.06 550.98,-366.39 561.62,-362.97"/>
<polygon fill="red" stroke="red" points="562.67,-366.31 571.24,-360.08 560.65,-359.61 562.67,-366.31"/>
<text text-anchor="middle" x="533.6" y="-380.8" font-family="Helvetica,sans-Serif" font-size="14.00" fill="red">2</text>
</g>
<!-- 11 -->
<g id="node13" class="node">
<title>11</title>
<polygon fill="none" stroke="red" points="588.77,-428 556.43,-410 588.77,-392 621.11,-410 588.77,-428"/>
<text text-anchor="middle" x="588.77" y="-406.3" font-family="Helvetica,sans-Serif" font-size="14.00">11</text>
</g>
<!-- 4&#45;&gt;11 -->
<g id="edge14" class="edge">
<title>4&#45;&gt;11</title>
<path fill="none" stroke="red" d="M499.22,-407.34C507.58,-403.4 518.4,-399.01 528.6,-397 539.02,-394.95 550.42,-396.54 560.41,-399.21"/>
<polygon fill="red" stroke="red" points="559.62,-402.64 570.21,-402.29 561.71,-395.96 559.62,-402.64"/>
<text text-anchor="middle" x="533.6" y="-400.8" font-family="Helvetica,sans-Serif" font-size="14.00" fill="red">0</text>
</g>
<!-- 16&#45;&gt;4 -->
<g id="edge41" class="edge">
<title>16&#45;&gt;4</title>
<path fill="none" stroke="black" d="M684.53,-496.95C654.47,-501.46 598.72,-505.96 556.6,-487 532.17,-476 511.43,-452.78 498.57,-435.67"/>
<polygon fill="black" stroke="black" points="501.28,-433.44 492.59,-427.38 495.6,-437.54 501.28,-433.44"/>
<text text-anchor="middle" x="588.77" y="-503.8" font-family="Helvetica,sans-Serif" font-size="14.00">0.8</text>
</g>
<!-- 20 -->
<g id="node22" class="node">
<title>20</title>
<polygon fill="none" stroke="red" points="825.11,-524 792.77,-506 825.11,-488 857.45,-506 825.11,-524"/>
<text text-anchor="middle" x="825.11" y="-502.3" font-family="Helvetica,sans-Serif" font-size="14.00">20</text>
</g>
<!-- 16&#45;&gt;20 -->
<g id="edge40" class="edge">
<title>16&#45;&gt;20</title>
<path fill="none" stroke="black" d="M729.79,-495.45C746.1,-497.27 768.74,-499.8 787.76,-501.93"/>
<polygon fill="black" stroke="black" points="787.56,-505.43 797.88,-503.07 788.34,-498.47 787.56,-505.43"/>
<text text-anchor="middle" x="763.44" y="-503.8" font-family="Helvetica,sans-Serif" font-size="14.00">0.2</text>
</g>
<!-- 5&#45;&gt;0 -->
<g id="edge15" class="edge">
<title>5&#45;&gt;0</title>
<path fill="none" stroke="black" d="M582.05,-339.16C565.74,-294.6 514.51,-177 428.1,-177 170.6,-177 170.6,-177 170.6,-177 145.29,-177 117.04,-171.28 96.69,-166.11"/>
<polygon fill="black" stroke="black" points="97.4,-162.68 86.84,-163.5 95.6,-169.44 97.4,-162.68"/>
<text text-anchor="middle" x="332.1" y="-180.8" font-family="Helvetica,sans-Serif" font-size="14.00">0.3</text>
</g>
<!-- 6 -->
<g id="node14" class="node">
<title>6</title>
<polygon fill="none" stroke="red" points="706.94,-381 679.94,-363 706.94,-345 733.94,-363 706.94,-381"/>
<text text-anchor="middle" x="706.94" y="-359.3" font-family="Helvetica,sans-Serif" font-size="14.00">6</text>
</g>
<!-- 5&#45;&gt;6 -->
<g id="edge16" class="edge">
<title>5&#45;&gt;6</title>
<path fill="none" stroke="black" d="M607,-356.06C621.63,-356.22 643.19,-356.68 661.94,-358 665.77,-358.27 669.78,-358.63 673.75,-359.02"/>
<polygon fill="black" stroke="black" points="673.72,-362.54 684.04,-360.14 674.48,-355.58 673.72,-362.54"/>
<text text-anchor="middle" x="650.44" y="-361.8" font-family="Helvetica,sans-Serif" font-size="14.00">0.7</text>
</g>
<!-- 11&#45;&gt;4 -->
<g id="edge30" class="edge">
<title>11&#45;&gt;4</title>
<path fill="none" stroke="red" d="M558.73,-411.41C546.49,-412 532.15,-412.7 519.35,-413.32"/>
<polygon fill="red" stroke="red" points="518.87,-409.84 509.05,-413.82 519.21,-416.83 518.87,-409.84"/>
<text text-anchor="middle" x="533.6" y="-415.8" font-family="Helvetica,sans-Serif" font-size="14.00" fill="red">0</text>
</g>
<!-- 11&#45;&gt;16 -->
<g id="edge29" class="edge">
<title>11&#45;&gt;16</title>
<path fill="none" stroke="green" d="M603.99,-419.62C618.62,-429.57 642.03,-445.65 661.94,-460 667.87,-464.28 674.19,-468.95 680.14,-473.4"/>
<polygon fill="green" stroke="green" points="678.4,-476.47 688.5,-479.68 682.61,-470.87 678.4,-476.47"/>
<text text-anchor="middle" x="650.44" y="-463.8" font-family="Helvetica,sans-Serif" font-size="14.00" fill="green">&#45;1</text>
</g>
<!-- 12 -->
<g id="node19" class="node">
<title>12</title>
<ellipse fill="none" stroke="black" cx="706.94" cy="-304" rx="23" ry="23"/>
<text text-anchor="middle" x="706.94" y="-300.3" font-family="Helvetica,sans-Serif" font-size="14.00">12</text>
</g>
<!-- 11&#45;&gt;12 -->
<g id="edge31" class="edge">
<title>11&#45;&gt;12</title>
<path fill="none" stroke="red" d="M610,-403.63C625.81,-397.79 647.46,-387.79 661.94,-373 674.74,-359.93 670.11,-351.42 679.94,-336 681.49,-333.57 683.2,-331.11 684.98,-328.69"/>
<polygon fill="red" stroke="red" points="687.79,-330.77 691.15,-320.73 682.26,-326.48 687.79,-330.77"/>
<text text-anchor="middle" x="650.44" y="-393.8" font-family="Helvetica,sans-Serif" font-size="14.00" fill="red">5</text>
</g>
<!-- 17 -->
<g id="node15" class="node">
<title>17</title>
<ellipse fill="none" stroke="black" cx="939.03" cy="-366" rx="23" ry="23"/>
<text text-anchor="middle" x="939.03" y="-362.3" font-family="Helvetica,sans-Serif" font-size="14.00">17</text>
</g>
<!-- 6&#45;&gt;17 -->
<g id="edge17" class="edge">
<title>6&#45;&gt;17</title>
<path fill="none" stroke="green" d="M716.58,-374.64C724.54,-384.3 737.3,-397.34 751.94,-403 805.39,-423.66 872.12,-399.16 909.41,-381.33"/>
<polygon fill="green" stroke="green" points="911.26,-384.32 918.67,-376.75 908.15,-378.05 911.26,-384.32"/>
<text text-anchor="middle" x="825.11" y="-413.8" font-family="Helvetica,sans-Serif" font-size="14.00" fill="green">&#45;1</text>
</g>
<!-- 13 -->
<g id="node16" class="node">
<title>13</title>
<polygon fill="none" stroke="red" points="825.11,-330 792.77,-312 825.11,-294 857.45,-312 825.11,-330"/>
<text text-anchor="middle" x="825.11" y="-308.3" font-family="Helvetica,sans-Serif" font-size="14.00">13</text>
</g>
<!-- 6&#45;&gt;13 -->
<g id="edge18" class="edge">
<title>6&#45;&gt;13</title>
<path fill="none" stroke="red" d="M726.21,-357.74C739.89,-353.57 758.91,-347.24 774.94,-340 783.56,-336.11 792.66,-331.18 800.65,-326.55"/>
<polygon fill="red" stroke="red" points="802.62,-329.45 809.43,-321.33 799.04,-323.43 802.62,-329.45"/>
<text text-anchor="middle" x="763.44" y="-351.8" font-family="Helvetica,sans-Serif" font-size="14.00" fill="red">0</text>
</g>
<!-- 17&#45;&gt;6 -->
<g id="edge43" class="edge">
<title>17&#45;&gt;6</title>
<path fill="none" stroke="black" d="M916.24,-366.83C881.48,-368 811.33,-369.69 751.94,-367 748.39,-366.84 744.67,-366.6 740.98,-366.33"/>
<polygon fill="black" stroke="black" points="741.01,-362.82 730.75,-365.47 740.42,-369.79 741.01,-362.82"/>
<text text-anchor="middle" x="825.11" y="-371.8" font-family="Helvetica,sans-Serif" font-size="14.00">0.8</text>
</g>
<!-- 21 -->
<g id="node23" class="node">
<title>21</title>
<polygon fill="none" stroke="red" points="1052.95,-384 1020.61,-366 1052.95,-348 1085.29,-366 1052.95,-384"/>
<text text-anchor="middle" x="1052.95" y="-362.3" font-family="Helvetica,sans-Serif" font-size="14.00">21</text>
</g>
<!-- 17&#45;&gt;21 -->
<g id="edge42" class="edge">
<title>17&#45;&gt;21</title>
<path fill="none" stroke="black" d="M961.87,-366C975.55,-366 993.61,-366 1009.97,-366"/>
<polygon fill="black" stroke="black" points="1010.42,-369.5 1020.42,-366 1010.42,-362.5 1010.42,-369.5"/>
<text text-anchor="middle" x="991.28" y="-369.8" font-family="Helvetica,sans-Serif" font-size="14.00">0.2</text>
</g>
<!-- 13&#45;&gt;6 -->
<g id="edge35" class="edge">
<title>13&#45;&gt;6</title>
<path fill="none" stroke="red" d="M793.42,-311.58C780.13,-312.46 764.72,-314.94 751.94,-321 748.69,-322.55 736.39,-334.38 725.62,-345.1"/>
<polygon fill="red" stroke="red" points="723.13,-342.65 718.54,-352.2 728.08,-347.59 723.13,-342.65"/>
<text text-anchor="middle" x="763.44" y="-324.8" font-family="Helvetica,sans-Serif" font-size="14.00" fill="red">0</text>
</g>
<!-- 13&#45;&gt;17 -->
<g id="edge34" class="edge">
<title>13&#45;&gt;17</title>
<path fill="none" stroke="green" d="M847.64,-317.63C862.36,-321.92 882.07,-328.52 898.28,-337 903.08,-339.51 907.94,-342.55 912.53,-345.71"/>
<polygon fill="green" stroke="green" points="910.81,-348.79 920.96,-351.82 914.92,-343.12 910.81,-348.79"/>
<text text-anchor="middle" x="886.78" y="-340.8" font-family="Helvetica,sans-Serif" font-size="14.00" fill="green">&#45;1</text>
</g>
<!-- 8&#45;&gt;7 -->
<g id="edge22" class="edge">
<title>8&#45;&gt;7</title>
<path fill="none" stroke="black" d="M920.95,-169.01C908.16,-168.62 890.34,-167.25 875.28,-163 866.21,-160.44 856.79,-156.27 848.65,-152.11"/>
<polygon fill="black" stroke="black" points="850.24,-148.99 839.78,-147.33 846.92,-155.15 850.24,-148.99"/>
<text text-anchor="middle" x="886.78" y="-171.8" font-family="Helvetica,sans-Serif" font-size="14.00">0.1</text>
</g>
<!-- 8&#45;&gt;9 -->
<g id="edge23" class="edge">
<title>8&#45;&gt;9</title>
<path fill="none" stroke="black" d="M956.9,-171.19C970.07,-173.45 988.47,-177.83 1002.78,-186 1015.56,-193.3 1027.45,-204.72 1036.34,-214.59"/>
<polygon fill="black" stroke="black" points="1033.87,-217.09 1043.04,-222.39 1039.18,-212.53 1033.87,-217.09"/>
<text text-anchor="middle" x="991.28" y="-189.8" font-family="Helvetica,sans-Serif" font-size="14.00">0.9</text>
</g>
<!-- 10&#45;&gt;7 -->
<g id="edge27" class="edge">
<title>10&#45;&gt;7</title>
<path fill="none" stroke="black" d="M1139.42,-221.77C1105.83,-200.34 1031.66,-156.87 961.78,-142 927.6,-134.73 887.49,-134.88 859.79,-136.29"/>
<polygon fill="black" stroke="black" points="859.23,-132.81 849.46,-136.9 859.65,-139.8 859.23,-132.81"/>
<text text-anchor="middle" x="991.28" y="-156.8" font-family="Helvetica,sans-Serif" font-size="14.00">0.1</text>
</g>
<!-- 10&#45;&gt;11 -->
<g id="edge28" class="edge">
<title>10&#45;&gt;11</title>
<path fill="none" stroke="black" d="M1156.58,-256.97C1153.37,-305.71 1143.4,-417.22 1118.12,-444 1097.94,-465.37 1083.34,-460 1053.95,-460 885.78,-460 885.78,-460 885.78,-460 787.81,-460 674.13,-433.04 620.62,-418.72"/>
<polygon fill="black" stroke="black" points="621.31,-415.28 610.74,-416.03 619.47,-422.03 621.31,-415.28"/>
<text text-anchor="middle" x="886.78" y="-463.8" font-family="Helvetica,sans-Serif" font-size="14.00">0.9</text>
</g>
<!-- 12&#45;&gt;7 -->
<g id="edge32" class="edge">
<title>12&#45;&gt;7</title>
<path fill="none" stroke="black" d="M720.82,-285.71C742.74,-254.57 787.15,-191.5 809.93,-159.14"/>
<polygon fill="black" stroke="black" points="812.85,-161.07 815.75,-150.88 807.13,-157.04 812.85,-161.07"/>
<text text-anchor="middle" x="763.44" y="-245.8" font-family="Helvetica,sans-Serif" font-size="14.00">0.1</text>
</g>
<!-- 12&#45;&gt;13 -->
<g id="edge33" class="edge">
<title>12&#45;&gt;13</title>
<path fill="none" stroke="black" d="M727.55,-293.91C740.89,-288.31 758.95,-283.17 774.94,-287 783.91,-289.15 793.09,-293.22 801.05,-297.46"/>
<polygon fill="black" stroke="black" points="799.33,-300.51 809.76,-302.42 802.8,-294.43 799.33,-300.51"/>
<text text-anchor="middle" x="763.44" y="-290.8" font-family="Helvetica,sans-Serif" font-size="14.00">0.9</text>
</g>
</g>
</svg>
