<?xml version="1.0" encoding="UTF-8" standalone="no"?>
<!DOCTYPE svg PUBLIC "-//W3C//DTD SVG 1.1//EN"
 "http://www.w3.org/Graphics/SVG/1.1/DTD/svg11.dtd">
<!-- Generated by graphviz version 2.43.0 (0)
 -->
<!-- Title: EMDP Pages: 1 -->
<svg width="1759pt" height="719pt"
 viewBox="0.00 0.00 1759.44 719.00" xmlns="http://www.w3.org/2000/svg" xmlns:xlink="http://www.w3.org/1999/xlink">
<g id="graph0" class="graph" transform="scale(1 1) rotate(0) translate(4 715)">
<title>EMDP</title>
<polygon fill="white" stroke="transparent" points="-4,4 -4,-715 1755.44,-715 1755.44,4 -4,4"/>
<!-- 0 -->
<g id="node1" class="node">
<title>0</title>
<polygon fill="none" stroke="red" points="90.6,-221 40.6,-183 90.6,-145 140.6,-183 90.6,-221"/>
<text text-anchor="middle" x="90.6" y="-186.8" font-family="Helvetica,sans-Serif" font-size="14.00">0</text>
<text text-anchor="middle" x="90.6" y="-171.8" font-family="Helvetica,sans-Serif" font-size="14.00">(0,0)</text>
</g>
<!-- 1 -->
<g id="node3" class="node">
<title>1</title>
<ellipse fill="none" stroke="black" cx="234.96" cy="-273" rx="35.21" ry="35.21"/>
<text text-anchor="middle" x="234.96" y="-276.8" font-family="Helvetica,sans-Serif" font-size="14.00">1</text>
<text text-anchor="middle" x="234.96" y="-261.8" font-family="Helvetica,sans-Serif" font-size="14.00">(0,1)</text>
</g>
<!-- 0&#45;&gt;1 -->
<g id="edge2" class="edge">
<title>0&#45;&gt;1</title>
<path fill="none" stroke="red" d="M119.94,-198.88C137.84,-209.12 161.34,-222.91 181.6,-236 186.88,-239.41 192.37,-243.11 197.73,-246.82"/>
<polygon fill="red" stroke="red" points="195.79,-249.73 205.99,-252.59 199.8,-244 195.79,-249.73"/>
<text text-anchor="middle" x="170.1" y="-239.8" font-family="Helvetica,sans-Serif" font-size="14.00" fill="red">2</text>
</g>
<!-- 7 -->
<g id="node4" class="node">
<title>7</title>
<polygon fill="none" stroke="red" points="1132.02,-185 1082.02,-147 1132.02,-109 1182.02,-147 1132.02,-185"/>
<text text-anchor="middle" x="1132.02" y="-150.8" font-family="Helvetica,sans-Serif" font-size="14.00">7</text>
<text text-anchor="middle" x="1132.02" y="-135.8" font-family="Helvetica,sans-Serif" font-size="14.00">(1,0)</text>
</g>
<!-- 0&#45;&gt;7 -->
<g id="edge3" class="edge">
<title>0&#45;&gt;7</title>
<path fill="none" stroke="red" d="M117.9,-165.43C145.56,-148.69 190.96,-126 233.96,-126 233.96,-126 233.96,-126 974.02,-126 1010.59,-126 1051.52,-131.67 1082.43,-137.11"/>
<polygon fill="red" stroke="red" points="1082.04,-140.6 1092.5,-138.94 1083.29,-133.71 1082.04,-140.6"/>
<text text-anchor="middle" x="588.52" y="-129.8" font-family="Helvetica,sans-Serif" font-size="14.00" fill="red">0</text>
</g>
<!-- 14 -->
<g id="node5" class="node">
<title>14</title>
<ellipse fill="none" stroke="black" cx="1276.38" cy="-50" rx="35.21" ry="35.21"/>
<text text-anchor="middle" x="1276.38" y="-53.8" font-family="Helvetica,sans-Serif" font-size="14.00">14</text>
<text text-anchor="middle" x="1276.38" y="-38.8" font-family="Helvetica,sans-Serif" font-size="14.00">(2,0)</text>
</g>
<!-- 0&#45;&gt;14 -->
<g id="edge4" class="edge">
<title>0&#45;&gt;14</title>
<path fill="none" stroke="green" d="M99.31,-151.49C108.62,-119.23 127.07,-69.36 158.6,-37 184.63,-10.27 196.64,0 233.96,0 233.96,0 233.96,0 1133.02,0 1169.5,0 1208.42,-14.8 1236.32,-28.29"/>
<polygon fill="green" stroke="green" points="1234.84,-31.46 1245.35,-32.79 1237.96,-25.2 1234.84,-31.46"/>
<text text-anchor="middle" x="668.02" y="-3.8" font-family="Helvetica,sans-Serif" font-size="14.00" fill="green">&#45;1</text>
</g>
<!-- 0i -->
<g id="node2" class="node">
<title>0i</title>
<ellipse fill="red" stroke="red" cx="1.8" cy="-183" rx="1.8" ry="1.8"/>
</g>
<!-- 0i&#45;&gt;0 -->
<g id="edge1" class="edge">
<title>0i&#45;&gt;0</title>
<path fill="none" stroke="red" d="M3.77,-183C6.95,-183 17.53,-183 30.23,-183"/>
<polygon fill="red" stroke="red" points="30.27,-186.5 40.27,-183 30.27,-179.5 30.27,-186.5"/>
</g>
<!-- 1&#45;&gt;0 -->
<g id="edge5" class="edge">
<title>1&#45;&gt;0</title>
<path fill="none" stroke="black" d="M199.81,-266.92C186.34,-263.55 171.12,-258.48 158.6,-251 142.81,-241.57 128.12,-227.54 116.54,-214.67"/>
<polygon fill="black" stroke="black" points="118.96,-212.11 109.76,-206.85 113.67,-216.7 118.96,-212.11"/>
<text text-anchor="middle" x="170.1" y="-264.8" font-family="Helvetica,sans-Serif" font-size="14.00">0.3</text>
</g>
<!-- 2 -->
<g id="node6" class="node">
<title>2</title>
<polygon fill="none" stroke="red" points="379.31,-316 329.31,-278 379.31,-240 429.31,-278 379.31,-316"/>
<text text-anchor="middle" x="379.31" y="-281.8" font-family="Helvetica,sans-Serif" font-size="14.00">2</text>
<text text-anchor="middle" x="379.31" y="-266.8" font-family="Helvetica,sans-Serif" font-size="14.00">(0,2)</text>
</g>
<!-- 1&#45;&gt;2 -->
<g id="edge6" class="edge">
<title>1&#45;&gt;2</title>
<path fill="none" stroke="black" d="M270.42,-274.21C285.54,-274.74 303.72,-275.38 320.8,-275.98"/>
<polygon fill="black" stroke="black" points="321.14,-279.49 331.26,-276.35 321.39,-272.5 321.14,-279.49"/>
<text text-anchor="middle" x="299.81" y="-279.8" font-family="Helvetica,sans-Serif" font-size="14.00">0.7</text>
</g>
<!-- 7&#45;&gt;0 -->
<g id="edge19" class="edge">
<title>7&#45;&gt;0</title>
<path fill="none" stroke="red" d="M1090.82,-153.77C1059.17,-158.51 1013.91,-164 974.02,-164 233.96,-164 233.96,-164 233.96,-164 202.67,-164 167.86,-168.56 140.49,-173.22"/>
<polygon fill="red" stroke="red" points="139.63,-169.82 130.39,-175 140.84,-176.71 139.63,-169.82"/>
<text text-anchor="middle" x="588.52" y="-167.8" font-family="Helvetica,sans-Serif" font-size="14.00" fill="red">0</text>
</g>
<!-- 7&#45;&gt;14 -->
<g id="edge21" class="edge">
<title>7&#45;&gt;14</title>
<path fill="none" stroke="green" d="M1153.3,-125.07C1165.9,-112.28 1182.91,-96.48 1200.02,-85 1210.41,-78.03 1222.41,-71.77 1233.73,-66.53"/>
<polygon fill="green" stroke="green" points="1235.33,-69.65 1243.04,-62.38 1232.48,-63.26 1235.33,-69.65"/>
<text text-anchor="middle" x="1211.52" y="-88.8" font-family="Helvetica,sans-Serif" font-size="14.00" fill="green">&#45;1</text>
</g>
<!-- 8 -->
<g id="node17" class="node">
<title>8</title>
<ellipse fill="none" stroke="black" cx="1276.38" cy="-177" rx="35.21" ry="35.21"/>
<text text-anchor="middle" x="1276.38" y="-180.8" font-family="Helvetica,sans-Serif" font-size="14.00">8</text>
<text text-anchor="middle" x="1276.38" y="-165.8" font-family="Helvetica,sans-Serif" font-size="14.00">(1,1)</text>
</g>
<!-- 7&#45;&gt;8 -->
<g id="edge20" class="edge">
<title>7&#45;&gt;8</title>
<path fill="none" stroke="red" d="M1177.09,-143.19C1191.9,-143.04 1208.37,-144.13 1223.02,-148 1227.79,-149.26 1232.6,-151.05 1237.26,-153.14"/>
<polygon fill="red" stroke="red" points="1236.04,-156.44 1246.56,-157.74 1239.15,-150.17 1236.04,-156.44"/>
<text text-anchor="middle" x="1211.52" y="-151.8" font-family="Helvetica,sans-Serif" font-size="14.00" fill="red">5</text>
</g>
<!-- 14&#45;&gt;0 -->
<g id="edge36" class="edge">
<title>14&#45;&gt;0</title>
<path fill="none" stroke="black" d="M1240.86,-50.38C1212.03,-50.66 1169.85,-51 1133.02,-51 233.96,-51 233.96,-51 233.96,-51 177.32,-51 133.7,-107.87 110.41,-146.95"/>
<polygon fill="black" stroke="black" points="107.18,-145.56 105.21,-155.97 113.24,-149.06 107.18,-145.56"/>
<text text-anchor="middle" x="668.02" y="-54.8" font-family="Helvetica,sans-Serif" font-size="14.00">0.8</text>
</g>
<!-- 18 -->
<g id="node20" class="node">
<title>18</title>
<polygon fill="none" stroke="red" points="1420.73,-86 1370.73,-48 1420.73,-10 1470.73,-48 1420.73,-86"/>
<text text-anchor="middle" x="1420.73" y="-51.8" font-family="Helvetica,sans-Serif" font-size="14.00">18</text>
<text text-anchor="middle" x="1420.73" y="-36.8" font-family="Helvetica,sans-Serif" font-size="14.00">(3,0)</text>
</g>
<!-- 14&#45;&gt;18 -->
<g id="edge37" class="edge">
<title>14&#45;&gt;18</title>
<path fill="none" stroke="black" d="M1311.84,-49.52C1326.69,-49.31 1344.49,-49.06 1361.3,-48.82"/>
<polygon fill="black" stroke="black" points="1361.66,-52.32 1371.61,-48.68 1361.56,-45.32 1361.66,-52.32"/>
<text text-anchor="middle" x="1341.23" y="-53.8" font-family="Helvetica,sans-Serif" font-size="14.00">0.2</text>
</g>
<!-- 3 -->
<g id="node7" class="node">
<title>3</title>
<ellipse fill="none" stroke="black" cx="523.67" cy="-344" rx="35.21" ry="35.21"/>
<text text-anchor="middle" x="523.67" y="-347.8" font-family="Helvetica,sans-Serif" font-size="14.00">3</text>
<text text-anchor="middle" x="523.67" y="-332.8" font-family="Helvetica,sans-Serif" font-size="14.00">(0,3)</text>
</g>
<!-- 2&#45;&gt;3 -->
<g id="edge7" class="edge">
<title>2&#45;&gt;3</title>
<path fill="none" stroke="red" d="M413.2,-290.46C430.42,-297.25 451.73,-306.07 470.31,-315 474.7,-317.11 479.24,-319.42 483.73,-321.79"/>
<polygon fill="red" stroke="red" points="482.34,-325.01 492.8,-326.68 485.66,-318.85 482.34,-325.01"/>
<text text-anchor="middle" x="458.81" y="-318.8" font-family="Helvetica,sans-Serif" font-size="14.00" fill="red">2</text>
</g>
<!-- 9 -->
<g id="node8" class="node">
<title>9</title>
<polygon fill="none" stroke="red" points="1420.73,-297 1370.73,-259 1420.73,-221 1470.73,-259 1420.73,-297"/>
<text text-anchor="middle" x="1420.73" y="-262.8" font-family="Helvetica,sans-Serif" font-size="14.00">9</text>
<text text-anchor="middle" x="1420.73" y="-247.8" font-family="Helvetica,sans-Serif" font-size="14.00">(1,2)</text>
</g>
<!-- 2&#45;&gt;9 -->
<g id="edge8" class="edge">
<title>2&#45;&gt;9</title>
<path fill="none" stroke="red" d="M411.89,-264.5C440.32,-253.57 483.53,-240 522.67,-240 522.67,-240 522.67,-240 1277.38,-240 1308.66,-240 1343.48,-244.56 1370.84,-249.22"/>
<polygon fill="red" stroke="red" points="1370.49,-252.71 1380.95,-251 1371.71,-245.82 1370.49,-252.71"/>
<text text-anchor="middle" x="893.52" y="-243.8" font-family="Helvetica,sans-Serif" font-size="14.00" fill="red">0</text>
</g>
<!-- 15 -->
<g id="node9" class="node">
<title>15</title>
<ellipse fill="none" stroke="black" cx="1557.09" cy="-645" rx="35.21" ry="35.21"/>
<text text-anchor="middle" x="1557.09" y="-648.8" font-family="Helvetica,sans-Serif" font-size="14.00">15</text>
<text text-anchor="middle" x="1557.09" y="-633.8" font-family="Helvetica,sans-Serif" font-size="14.00">(2,2)</text>
</g>
<!-- 2&#45;&gt;15 -->
<g id="edge9" class="edge">
<title>2&#45;&gt;15</title>
<path fill="none" stroke="green" d="M385.84,-311.22C401.8,-401.56 451.42,-645 522.67,-645 522.67,-645 522.67,-645 1421.73,-645 1451.56,-645 1485.12,-645 1511.23,-645"/>
<polygon fill="green" stroke="green" points="1511.57,-648.5 1521.57,-645 1511.57,-641.5 1511.57,-648.5"/>
<text text-anchor="middle" x="973.02" y="-648.8" font-family="Helvetica,sans-Serif" font-size="14.00" fill="green">&#45;1</text>
</g>
<!-- 3&#45;&gt;0 -->
<g id="edge10" class="edge">
<title>3&#45;&gt;0</title>
<path fill="none" stroke="black" d="M488.4,-348.06C427.47,-353.82 297.47,-359.39 199.6,-317 156.87,-298.49 126.14,-252.86 108.64,-219.98"/>
<polygon fill="black" stroke="black" points="111.74,-218.37 104.05,-211.08 105.52,-221.57 111.74,-218.37"/>
<text text-anchor="middle" x="299.81" y="-350.8" font-family="Helvetica,sans-Serif" font-size="14.00">0.3</text>
</g>
<!-- 4 -->
<g id="node10" class="node">
<title>4</title>
<polygon fill="none" stroke="red" points="668.02,-521 618.02,-483 668.02,-445 718.02,-483 668.02,-521"/>
<text text-anchor="middle" x="668.02" y="-486.8" font-family="Helvetica,sans-Serif" font-size="14.00">4</text>
<text text-anchor="middle" x="668.02" y="-471.8" font-family="Helvetica,sans-Serif" font-size="14.00">(0,4)</text>
</g>
<!-- 3&#45;&gt;4 -->
<g id="edge11" class="edge">
<title>3&#45;&gt;4</title>
<path fill="none" stroke="black" d="M549.46,-368.21C574.11,-392.28 611.91,-429.19 637.96,-454.62"/>
<polygon fill="black" stroke="black" points="635.7,-457.31 645.3,-461.79 640.59,-452.3 635.7,-457.31"/>
<text text-anchor="middle" x="588.52" y="-416.8" font-family="Helvetica,sans-Serif" font-size="14.00">0.7</text>
</g>
<!-- 9&#45;&gt;2 -->
<g id="edge24" class="edge">
<title>9&#45;&gt;2</title>
<path fill="none" stroke="red" d="M1380.95,-267C1352.43,-272.2 1312.66,-278 1277.38,-278 522.67,-278 522.67,-278 522.67,-278 495.41,-278 465.21,-278 439.67,-278"/>
<polygon fill="red" stroke="red" points="439.39,-274.5 429.39,-278 439.39,-281.5 439.39,-274.5"/>
<text text-anchor="middle" x="893.52" y="-281.8" font-family="Helvetica,sans-Serif" font-size="14.00" fill="red">0</text>
</g>
<!-- 9&#45;&gt;15 -->
<g id="edge26" class="edge">
<title>9&#45;&gt;15</title>
<path fill="none" stroke="green" d="M1434.88,-286.73C1445.29,-309.18 1459.82,-341.77 1470.73,-371 1500.58,-450.98 1528.71,-546.64 1544.05,-601.16"/>
<polygon fill="green" stroke="green" points="1540.7,-602.16 1546.76,-610.85 1547.44,-600.27 1540.7,-602.16"/>
<text text-anchor="middle" x="1496.23" y="-463.8" font-family="Helvetica,sans-Serif" font-size="14.00" fill="green">&#45;1</text>
</g>
<!-- 10 -->
<g id="node18" class="node">
<title>10</title>
<ellipse fill="none" stroke="black" cx="1557.09" cy="-259" rx="35.21" ry="35.21"/>
<text text-anchor="middle" x="1557.09" y="-262.8" font-family="Helvetica,sans-Serif" font-size="14.00">10</text>
<text text-anchor="middle" x="1557.09" y="-247.8" font-family="Helvetica,sans-Serif" font-size="14.00">(1,3)</text>
</g>
<!-- 9&#45;&gt;10 -->
<g id="edge25" class="edge">
<title>9&#45;&gt;10</title>
<path fill="none" stroke="red" d="M1471,-259C1484.24,-259 1498.47,-259 1511.44,-259"/>
<polygon fill="red" stroke="red" points="1511.53,-262.5 1521.53,-259 1511.53,-255.5 1511.53,-262.5"/>
<text text-anchor="middle" x="1496.23" y="-262.8" font-family="Helvetica,sans-Serif" font-size="14.00" fill="red">5</text>
</g>
<!-- 15&#45;&gt;2 -->
<g id="edge38" class="edge">
<title>15&#45;&gt;2</title>
<path fill="none" stroke="black" d="M1526.62,-663.27C1500.18,-677.9 1459.78,-696 1421.73,-696 522.67,-696 522.67,-696 522.67,-696 444.39,-696 400.42,-430.04 385.82,-322.42"/>
<polygon fill="black" stroke="black" points="389.25,-321.66 384.46,-312.21 382.31,-322.58 389.25,-321.66"/>
<text text-anchor="middle" x="973.02" y="-699.8" font-family="Helvetica,sans-Serif" font-size="14.00">0.8</text>
</g>
<!-- 19 -->
<g id="node21" class="node">
<title>19</title>
<polygon fill="none" stroke="red" points="1701.44,-683 1651.44,-645 1701.44,-607 1751.44,-645 1701.44,-683"/>
<text text-anchor="middle" x="1701.44" y="-648.8" font-family="Helvetica,sans-Serif" font-size="14.00">19</text>
<text text-anchor="middle" x="1701.44" y="-633.8" font-family="Helvetica,sans-Serif" font-size="14.00">(3,2)</text>
</g>
<!-- 15&#45;&gt;19 -->
<g id="edge39" class="edge">
<title>15&#45;&gt;19</title>
<path fill="none" stroke="black" d="M1592.55,-645C1607.13,-645 1624.54,-645 1641.08,-645"/>
<polygon fill="black" stroke="black" points="1641.23,-648.5 1651.23,-645 1641.23,-641.5 1641.23,-648.5"/>
<text text-anchor="middle" x="1621.94" y="-648.8" font-family="Helvetica,sans-Serif" font-size="14.00">0.2</text>
</g>
<!-- 16 -->
<g id="node11" class="node">
<title>16</title>
<ellipse fill="none" stroke="black" cx="973.02" cy="-571" rx="35.21" ry="35.21"/>
<text text-anchor="middle" x="973.02" y="-574.8" font-family="Helvetica,sans-Serif" font-size="14.00">16</text>
<text text-anchor="middle" x="973.02" y="-559.8" font-family="Helvetica,sans-Serif" font-size="14.00">(2,4)</text>
</g>
<!-- 4&#45;&gt;16 -->
<g id="edge12" class="edge">
<title>4&#45;&gt;16</title>
<path fill="none" stroke="green" d="M699.27,-497.76C717.67,-506.31 741.82,-516.77 764.02,-524 819.47,-542.06 885.43,-555.69 927.97,-563.5"/>
<polygon fill="green" stroke="green" points="927.54,-566.98 938,-565.31 928.78,-560.09 927.54,-566.98"/>
<text text-anchor="middle" x="814.02" y="-552.8" font-family="Helvetica,sans-Serif" font-size="14.00" fill="green">&#45;1</text>
</g>
<!-- 5 -->
<g id="node12" class="node">
<title>5</title>
<ellipse fill="none" stroke="black" cx="814.02" cy="-386" rx="35.21" ry="35.21"/>
<text text-anchor="middle" x="814.02" y="-389.8" font-family="Helvetica,sans-Serif" font-size="14.00">5</text>
<text text-anchor="middle" x="814.02" y="-374.8" font-family="Helvetica,sans-Serif" font-size="14.00">(0,5)</text>
</g>
<!-- 4&#45;&gt;5 -->
<g id="edge13" class="edge">
<title>4&#45;&gt;5</title>
<path fill="none" stroke="red" d="M695.1,-465.43C717.57,-450.29 750.3,-428.25 775.57,-411.23"/>
<polygon fill="red" stroke="red" points="777.83,-413.92 784.17,-405.43 773.92,-408.12 777.83,-413.92"/>
<text text-anchor="middle" x="741.02" y="-440.8" font-family="Helvetica,sans-Serif" font-size="14.00" fill="red">2</text>
</g>
<!-- 11 -->
<g id="node13" class="node">
<title>11</title>
<polygon fill="none" stroke="red" points="814.02,-515 764.02,-477 814.02,-439 864.02,-477 814.02,-515"/>
<text text-anchor="middle" x="814.02" y="-480.8" font-family="Helvetica,sans-Serif" font-size="14.00">11</text>
<text text-anchor="middle" x="814.02" y="-465.8" font-family="Helvetica,sans-Serif" font-size="14.00">(1,4)</text>
</g>
<!-- 4&#45;&gt;11 -->
<g id="edge14" class="edge">
<title>4&#45;&gt;11</title>
<path fill="none" stroke="red" d="M703.44,-471.9C713.8,-469.06 725.27,-466.42 736.02,-465 746.08,-463.67 756.86,-464.15 767.06,-465.5"/>
<polygon fill="red" stroke="red" points="766.6,-468.97 777.03,-467.09 767.71,-462.05 766.6,-468.97"/>
<text text-anchor="middle" x="741.02" y="-468.8" font-family="Helvetica,sans-Serif" font-size="14.00" fill="red">0</text>
</g>
<!-- 16&#45;&gt;4 -->
<g id="edge41" class="edge">
<title>16&#45;&gt;4</title>
<path fill="none" stroke="black" d="M938.22,-577.56C895.87,-584.23 821.86,-590.66 764.02,-568 736.13,-557.07 711.18,-533.94 693.85,-514.56"/>
<polygon fill="black" stroke="black" points="696.33,-512.08 687.13,-506.81 691.04,-516.66 696.33,-512.08"/>
<text text-anchor="middle" x="814.02" y="-586.8" font-family="Helvetica,sans-Serif" font-size="14.00">0.8</text>
</g>
<!-- 20 -->
<g id="node22" class="node">
<title>20</title>
<polygon fill="none" stroke="red" points="1132.02,-616 1082.02,-578 1132.02,-540 1182.02,-578 1132.02,-616"/>
<text text-anchor="middle" x="1132.02" y="-581.8" font-family="Helvetica,sans-Serif" font-size="14.00">20</text>
<text text-anchor="middle" x="1132.02" y="-566.8" font-family="Helvetica,sans-Serif" font-size="14.00">(3,4)</text>
</g>
<!-- 16&#45;&gt;20 -->
<g id="edge40" class="edge">
<title>16&#45;&gt;20</title>
<path fill="none" stroke="black" d="M1008.48,-572.54C1027.8,-573.4 1052.39,-574.49 1074.47,-575.48"/>
<polygon fill="black" stroke="black" points="1074.59,-578.99 1084.73,-575.94 1074.9,-571.99 1074.59,-578.99"/>
<text text-anchor="middle" x="1052.52" y="-577.8" font-family="Helvetica,sans-Serif" font-size="14.00">0.2</text>
</g>
<!-- 5&#45;&gt;0 -->
<g id="edge15" class="edge">
<title>5&#45;&gt;0</title>
<path fill="none" stroke="black" d="M795.16,-355.62C761.87,-303.35 685.02,-202 589.52,-202 233.96,-202 233.96,-202 233.96,-202 202.67,-202 167.86,-197.44 140.49,-192.78"/>
<polygon fill="black" stroke="black" points="140.84,-189.29 130.39,-191 139.63,-196.18 140.84,-189.29"/>
<text text-anchor="middle" x="458.81" y="-205.8" font-family="Helvetica,sans-Serif" font-size="14.00">0.3</text>
</g>
<!-- 6 -->
<g id="node14" class="node">
<title>6</title>
<polygon fill="none" stroke="red" points="973.02,-470 923.02,-432 973.02,-394 1023.02,-432 973.02,-470"/>
<text text-anchor="middle" x="973.02" y="-435.8" font-family="Helvetica,sans-Serif" font-size="14.00">6</text>
<text text-anchor="middle" x="973.02" y="-420.8" font-family="Helvetica,sans-Serif" font-size="14.00">(0,6)</text>
</g>
<!-- 5&#45;&gt;6 -->
<g id="edge16" class="edge">
<title>5&#45;&gt;6</title>
<path fill="none" stroke="black" d="M848.43,-395C865.42,-399.65 886.36,-405.48 905.02,-411 912.34,-413.16 920.08,-415.52 927.6,-417.85"/>
<polygon fill="black" stroke="black" points="926.72,-421.25 937.31,-420.88 928.81,-414.56 926.72,-421.25"/>
<text text-anchor="middle" x="893.52" y="-414.8" font-family="Helvetica,sans-Serif" font-size="14.00">0.7</text>
</g>
<!-- 11&#45;&gt;4 -->
<g id="edge30" class="edge">
<title>11&#45;&gt;4</title>
<path fill="none" stroke="red" d="M766.53,-479.12C759.65,-479.42 752.65,-479.72 746.02,-480 739.62,-480.27 732.91,-480.54 726.25,-480.81"/>
<polygon fill="red" stroke="red" points="725.7,-477.33 715.85,-481.22 725.98,-484.32 725.7,-477.33"/>
<text text-anchor="middle" x="741.02" y="-483.8" font-family="Helvetica,sans-Serif" font-size="14.00" fill="red">0</text>
</g>
<!-- 11&#45;&gt;16 -->
<g id="edge29" class="edge">
<title>11&#45;&gt;16</title>
<path fill="none" stroke="green" d="M843.15,-492.9C860.97,-503.07 884.46,-516.62 905.02,-529 914.57,-534.75 924.79,-541.07 934.31,-547.03"/>
<polygon fill="green" stroke="green" points="932.48,-550.01 942.81,-552.37 936.21,-544.09 932.48,-550.01"/>
<text text-anchor="middle" x="893.52" y="-532.8" font-family="Helvetica,sans-Serif" font-size="14.00" fill="green">&#45;1</text>
</g>
<!-- 12 -->
<g id="node19" class="node">
<title>12</title>
<ellipse fill="none" stroke="black" cx="973.02" cy="-341" rx="35.21" ry="35.21"/>
<text text-anchor="middle" x="973.02" y="-344.8" font-family="Helvetica,sans-Serif" font-size="14.00">12</text>
<text text-anchor="middle" x="973.02" y="-329.8" font-family="Helvetica,sans-Serif" font-size="14.00">(1,5)</text>
</g>
<!-- 11&#45;&gt;12 -->
<g id="edge31" class="edge">
<title>11&#45;&gt;12</title>
<path fill="none" stroke="red" d="M848.03,-464.49C866.76,-456.01 889.49,-443.19 905.02,-426 918.36,-411.23 911.35,-401.12 923.02,-385 927.07,-379.4 931.95,-373.99 937.02,-368.99"/>
<polygon fill="red" stroke="red" points="939.61,-371.37 944.54,-361.99 934.84,-366.25 939.61,-371.37"/>
<text text-anchor="middle" x="893.52" y="-447.8" font-family="Helvetica,sans-Serif" font-size="14.00" fill="red">5</text>
</g>
<!-- 17 -->
<g id="node15" class="node">
<title>17</title>
<ellipse fill="none" stroke="black" cx="1276.38" cy="-418" rx="35.21" ry="35.21"/>
<text text-anchor="middle" x="1276.38" y="-421.8" font-family="Helvetica,sans-Serif" font-size="14.00">17</text>
<text text-anchor="middle" x="1276.38" y="-406.8" font-family="Helvetica,sans-Serif" font-size="14.00">(2,6)</text>
</g>
<!-- 6&#45;&gt;17 -->
<g id="edge17" class="edge">
<title>6&#45;&gt;17</title>
<path fill="none" stroke="green" d="M1016.79,-436.9C1066.77,-441.49 1151.72,-445.81 1223.02,-432 1226.06,-431.41 1229.19,-430.74 1232.33,-430.02"/>
<polygon fill="green" stroke="green" points="1233.42,-433.36 1242.3,-427.59 1231.76,-426.56 1233.42,-433.36"/>
<text text-anchor="middle" x="1132.02" y="-444.8" font-family="Helvetica,sans-Serif" font-size="14.00" fill="green">&#45;1</text>
</g>
<!-- 13 -->
<g id="node16" class="node">
<title>13</title>
<polygon fill="none" stroke="red" points="1132.02,-382 1082.02,-344 1132.02,-306 1182.02,-344 1132.02,-382"/>
<text text-anchor="middle" x="1132.02" y="-347.8" font-family="Helvetica,sans-Serif" font-size="14.00">13</text>
<text text-anchor="middle" x="1132.02" y="-332.8" font-family="Helvetica,sans-Serif" font-size="14.00">(1,6)</text>
</g>
<!-- 6&#45;&gt;13 -->
<g id="edge18" class="edge">
<title>6&#45;&gt;13</title>
<path fill="none" stroke="red" d="M1000.03,-414.39C1012.28,-406.33 1027.2,-396.86 1041.02,-389 1057.27,-379.76 1075.66,-370.38 1091.56,-362.6"/>
<polygon fill="red" stroke="red" points="1093.13,-365.72 1100.6,-358.21 1090.07,-359.43 1093.13,-365.72"/>
<text text-anchor="middle" x="1052.52" y="-392.8" font-family="Helvetica,sans-Serif" font-size="14.00" fill="red">0</text>
</g>
<!-- 17&#45;&gt;6 -->
<g id="edge43" class="edge">
<title>17&#45;&gt;6</title>
<path fill="none" stroke="black" d="M1240.76,-416.99C1202.04,-416.13 1137.47,-415.53 1082.02,-419 1063.42,-420.16 1043.11,-422.36 1025.18,-424.62"/>
<polygon fill="black" stroke="black" points="1024.67,-421.16 1015.2,-425.92 1025.57,-428.1 1024.67,-421.16"/>
<text text-anchor="middle" x="1132.02" y="-422.8" font-family="Helvetica,sans-Serif" font-size="14.00">0.8</text>
</g>
<!-- 21 -->
<g id="node23" class="node">
<title>21</title>
<polygon fill="none" stroke="red" points="1420.73,-456 1370.73,-418 1420.73,-380 1470.73,-418 1420.73,-456"/>
<text text-anchor="middle" x="1420.73" y="-421.8" font-family="Helvetica,sans-Serif" font-size="14.00">21</text>
<text text-anchor="middle" x="1420.73" y="-406.8" font-family="Helvetica,sans-Serif" font-size="14.00">(3,6)</text>
</g>
<!-- 17&#45;&gt;21 -->
<g id="edge42" class="edge">
<title>17&#45;&gt;21</title>
<path fill="none" stroke="black" d="M1311.84,-418C1326.42,-418 1343.83,-418 1360.37,-418"/>
<polygon fill="black" stroke="black" points="1360.52,-421.5 1370.52,-418 1360.52,-414.5 1360.52,-421.5"/>
<text text-anchor="middle" x="1341.23" y="-421.8" font-family="Helvetica,sans-Serif" font-size="14.00">0.2</text>
</g>
<!-- 13&#45;&gt;6 -->
<g id="edge35" class="edge">
<title>13&#45;&gt;6</title>
<path fill="none" stroke="red" d="M1082.17,-344.29C1068.02,-346.24 1053.15,-350.25 1041.02,-358 1028.87,-365.77 1032.28,-373.94 1023.02,-385 1017.36,-391.76 1010.83,-398.57 1004.42,-404.84"/>
<polygon fill="red" stroke="red" points="1001.83,-402.48 997.01,-411.91 1006.66,-407.54 1001.83,-402.48"/>
<text text-anchor="middle" x="1052.52" y="-361.8" font-family="Helvetica,sans-Serif" font-size="14.00" fill="red">0</text>
</g>
<!-- 13&#45;&gt;17 -->
<g id="edge34" class="edge">
<title>13&#45;&gt;17</title>
<path fill="none" stroke="green" d="M1163.18,-358.69C1180.74,-367.33 1203.24,-378.58 1223.02,-389 1227.33,-391.27 1231.82,-393.68 1236.28,-396.11"/>
<polygon fill="green" stroke="green" points="1234.87,-399.33 1245.32,-401.07 1238.23,-393.19 1234.87,-399.33"/>
<text text-anchor="middle" x="1211.52" y="-392.8" font-family="Helvetica,sans-Serif" font-size="14.00" fill="green">&#45;1</text>
</g>
<!-- 8&#45;&gt;7 -->
<g id="edge22" class="edge">
<title>8&#45;&gt;7</title>
<path fill="none" stroke="black" d="M1241.17,-171.02C1228.25,-168.67 1213.43,-165.84 1200.02,-163 1193.5,-161.62 1186.64,-160.08 1179.9,-158.51"/>
<polygon fill="black" stroke="black" points="1180.69,-155.1 1170.16,-156.22 1179.09,-161.92 1180.69,-155.1"/>
<text text-anchor="middle" x="1211.52" y="-171.8" font-family="Helvetica,sans-Serif" font-size="14.00">0.1</text>
</g>
<!-- 8&#45;&gt;9 -->
<g id="edge23" class="edge">
<title>8&#45;&gt;9</title>
<path fill="none" stroke="black" d="M1309.6,-189.87C1323.22,-195.73 1339.05,-203.12 1352.73,-211 1364.47,-217.76 1376.69,-226.09 1387.43,-233.9"/>
<polygon fill="black" stroke="black" points="1385.57,-236.88 1395.69,-240.01 1389.74,-231.25 1385.57,-236.88"/>
<text text-anchor="middle" x="1341.23" y="-214.8" font-family="Helvetica,sans-Serif" font-size="14.00">0.9</text>
</g>
<!-- 10&#45;&gt;7 -->
<g id="edge27" class="edge">
<title>10&#45;&gt;7</title>
<path fill="none" stroke="black" d="M1527.84,-238.48C1484.13,-208.16 1396.3,-152.85 1311.73,-133 1267.7,-122.66 1216.06,-128.58 1179.65,-135.62"/>
<polygon fill="black" stroke="black" points="1178.9,-132.2 1169.8,-137.62 1180.3,-139.06 1178.9,-132.2"/>
<text text-anchor="middle" x="1341.23" y="-148.8" font-family="Helvetica,sans-Serif" font-size="14.00">0.1</text>
</g>
<!-- 10&#45;&gt;11 -->
<g id="edge28" class="edge">
<title>10&#45;&gt;11</title>
<path fill="none" stroke="black" d="M1551.71,-294.03C1544.22,-348.84 1527.43,-451.48 1503.73,-479 1478.1,-508.77 1461.02,-512 1421.73,-512 1131.02,-512 1131.02,-512 1131.02,-512 1036.38,-512 926.77,-496.3 864.69,-485.93"/>
<polygon fill="black" stroke="black" points="865.22,-482.47 854.77,-484.25 864.05,-489.37 865.22,-482.47"/>
<text text-anchor="middle" x="1211.52" y="-515.8" font-family="Helvetica,sans-Serif" font-size="14.00">0.9</text>
</g>
<!-- 12&#45;&gt;7 -->
<g id="edge32" class="edge">
<title>12&#45;&gt;7</title>
<path fill="none" stroke="black" d="M996.18,-313.62C1025.02,-277.98 1075.3,-215.85 1105.64,-178.36"/>
<polygon fill="black" stroke="black" points="1108.6,-180.27 1112.17,-170.3 1103.16,-175.87 1108.6,-180.27"/>
<text text-anchor="middle" x="1052.52" y="-259.8" font-family="Helvetica,sans-Serif" font-size="14.00">0.1</text>
</g>
<!-- 12&#45;&gt;13 -->
<g id="edge33" class="edge">
<title>12&#45;&gt;13</title>
<path fill="none" stroke="black" d="M1004.09,-323.43C1021.42,-315.39 1043.73,-308.53 1064.02,-313 1074.07,-315.21 1084.4,-319.08 1093.85,-323.36"/>
<polygon fill="black" stroke="black" points="1092.43,-326.56 1102.96,-327.72 1095.45,-320.24 1092.43,-326.56"/>
<text text-anchor="middle" x="1052.52" y="-316.8" font-family="Helvetica,sans-Serif" font-size="14.00">0.9</text>
</g>
</g>
</svg>
